<svg width="282" height="45" viewBox="0 0 282 45" fill="none" xmlns="http://www.w3.org/2000/svg">
<path d="M70.5 0H62.5595C62.5595 0 62.5595 22.6342 62.5595 28.2C62.5595 33.6916 59.6653 36.3632 53.9511 36.3632C48.2368 36.3632 45.4911 33.6916 45.4911 28.2C45.4911 22.6342 45.4911 0 45.4911 0H37.5505C37.5505 0 37.5505 22.6342 37.5505 28.2C37.5505 38.2184 43.8584 44.3779 54.0253 44.3779C64.0437 44.3779 70.5742 38.07 70.5742 28.2C70.5 22.6342 70.5 0 70.5 0Z" fill="#003B5C"/>
<path d="M15.5842 0L0 43.1905H7.94053L10.8347 35.25H26.7158L29.61 43.1905H37.5505L21.9663 0H15.5842ZM13.6547 27.3095L18.7011 13.2837L23.7474 27.3095H13.6547Z" fill="#003B5C"/>
<path d="M86.0842 0L70.5 43.1905H78.4405L81.3347 35.25H97.2158L100.11 43.1905H108.051L92.4663 0H86.0842ZM84.1547 27.3095L89.201 13.2837L94.2474 27.3095H84.1547Z" fill="#003B5C"/>
<path d="M118.514 15.3615L117.624 15.2873C117.104 15.2131 117.104 15.0647 117.178 14.6194C117.475 13.5805 117.772 12.6158 118.217 11.4284H122.002C122.225 12.0221 122.818 13.7289 123.115 14.5452C123.264 14.9905 123.19 15.2131 122.67 15.2873L121.854 15.3615V15.881H126.306V15.3615C125.342 15.2873 125.193 15.2131 124.822 14.3226C123.932 11.7994 122.225 6.90155 121.26 4.15576H119.924C118.811 7.42102 117.55 11.0573 116.362 14.1742C115.991 15.0647 115.843 15.2873 114.804 15.3615V15.881H118.514V15.3615ZM120.073 5.93682C120.518 7.04997 121.408 9.57313 121.78 10.8347H118.44C118.96 9.12787 119.553 7.34682 120.073 5.93682Z" fill="#003B5C"/>
<path d="M132.837 15.3614V15.8809H136.918V15.3614C135.731 15.2872 135.657 15.2872 135.657 14.3967V10.5377C135.657 10.0925 135.657 9.86986 135.805 9.64722C136.028 8.97933 136.77 8.45985 137.66 8.45985C138.699 8.45985 139.367 9.12775 139.367 10.5377V14.4709C139.367 15.3614 139.293 15.3614 138.106 15.4356V15.9551H142.262V15.3614C141.074 15.2872 141 15.213 141 14.3967V10.1667C141 8.45985 140.109 7.49512 138.477 7.49512C137.067 7.49512 136.102 8.45985 135.508 8.75669C135.063 8.01459 134.469 7.49512 133.282 7.49512C132.02 7.49512 130.982 8.31143 130.314 8.75669L130.165 7.49512L127.494 7.94038V8.45985L128.162 8.53407C128.607 8.60828 128.681 8.68249 128.681 9.27617V14.3967C128.681 15.2872 128.607 15.2872 127.419 15.3614V15.8809H131.575V15.3614C130.462 15.2872 130.314 15.213 130.314 14.3967V10.5377C130.314 10.1667 130.314 9.94407 130.462 9.64722C130.759 8.97933 131.501 8.38564 132.466 8.38564C133.876 8.38564 134.024 9.42459 134.024 10.4635V14.3967C134.098 15.2872 134.024 15.2872 132.837 15.3614Z" fill="#003B5C"/>
<path d="M150.944 13.803L150.425 13.5062C149.905 14.4709 149.312 15.2872 148.05 15.2872C145.972 15.2872 145.527 13.3577 145.601 11.5767H150.425C150.796 11.5767 151.093 11.4283 151.093 10.9088C151.093 9.86985 150.722 7.49512 147.679 7.49512C145.082 7.49512 143.82 9.35038 143.82 11.8735C143.82 14.5451 144.859 16.1777 147.753 16.1777C149.534 16.1777 150.499 15.1388 150.944 13.803ZM147.531 8.0888C149.089 8.0888 149.237 9.64722 149.237 10.3151C149.237 10.612 149.163 10.8346 148.644 10.8346H145.527C145.527 10.1667 145.824 8.0888 147.531 8.0888Z" fill="#003B5C"/>
<path d="M157.03 15.3614C155.545 15.2872 155.471 15.213 155.471 14.3967V10.5377C155.471 9.27617 156.065 8.8309 156.436 8.8309C156.733 8.8309 156.955 8.90512 157.401 9.27617C157.549 9.35038 157.697 9.35038 157.772 9.35038C158.217 9.35038 158.588 8.83091 158.588 8.31143C158.588 7.94038 158.365 7.49512 157.697 7.49512C157.104 7.49512 156.584 7.94038 155.471 8.90512L155.248 7.49512L152.651 7.94038V8.45985L153.319 8.53407C153.764 8.60828 153.838 8.68249 153.838 9.27617V14.3967C153.838 15.213 153.764 15.2872 152.577 15.3614V15.8809H157.03V15.3614Z" fill="#003B5C"/>
<path d="M164.228 15.3614C163.04 15.2872 162.966 15.213 162.966 14.3967V7.56933L162.818 7.49512L160.146 7.94038V8.45985L160.814 8.53407C161.259 8.60828 161.334 8.68249 161.334 9.27617V14.3967C161.334 15.213 161.259 15.2872 160.072 15.3614V15.8809H164.228V15.3614Z" fill="#003B5C"/>
<path d="M162.15 6.15943C162.744 6.15943 163.189 5.71417 163.189 5.12048C163.189 4.5268 162.818 4.00732 162.15 4.00732C161.482 4.00732 161.111 4.45259 161.111 5.12048C161.111 5.71417 161.556 6.15943 162.15 6.15943Z" fill="#003B5C"/>
<path d="M172.762 13.7288L172.243 13.5062C171.723 14.6935 171.055 15.2872 169.868 15.2872C167.938 15.2872 167.419 13.2835 167.419 11.6509C167.419 9.12776 168.384 8.16302 169.497 8.16302C170.239 8.16302 170.758 8.6825 171.055 9.64723C171.13 9.94408 171.278 10.0925 171.575 10.0925C171.946 10.0925 172.614 9.86986 172.614 9.20197C172.614 8.38565 171.501 7.56934 169.645 7.56934C166.603 7.56934 165.564 9.72144 165.564 12.022C165.564 14.842 166.974 16.252 169.497 16.252C170.684 16.1778 172.243 15.5099 172.762 13.7288Z" fill="#003B5C"/>
<path d="M175.656 11.7251C174.469 12.0962 174.098 12.9867 174.098 13.803C174.098 15.0646 174.914 16.1777 176.547 16.1777C177.586 16.1777 178.476 15.5099 179.07 15.1388C179.293 15.8067 179.589 16.1777 180.183 16.1777C180.851 16.1777 181.593 15.9551 181.964 15.6583L181.89 15.1388C181.667 15.213 181.371 15.213 181.222 15.1388C180.925 15.0646 180.628 14.7678 180.628 13.7288V9.79564C180.628 8.83091 180.257 7.49512 177.734 7.49512C175.805 7.49512 174.395 8.53406 174.395 9.42459C174.395 9.94406 174.988 10.2409 175.359 10.2409C175.731 10.2409 175.879 10.0183 175.953 9.72143C176.324 8.45985 176.918 8.0888 177.586 8.0888C178.402 8.0888 179.07 8.53406 179.07 9.79564V10.3893C178.551 10.8346 176.918 11.2799 175.656 11.7251ZM178.996 13.5804C178.996 14.9162 177.957 15.213 177.363 15.213C176.324 15.213 175.805 14.4709 175.805 13.5062C175.805 12.6899 176.176 12.3188 177.066 11.9477C177.734 11.7251 178.625 11.3541 178.996 11.1314V13.5804Z" fill="#003B5C"/>
<path d="M188.717 15.3614V15.8809H192.873V15.3614C191.686 15.2872 191.612 15.213 191.612 14.3967V10.1667C191.612 8.45985 190.647 7.49512 189.088 7.49512C187.827 7.49512 187.085 8.0888 186.046 8.75669L185.823 7.49512L183.3 7.94038V8.45985L183.894 8.53407C184.339 8.60828 184.413 8.68249 184.413 9.27617V14.3967C184.413 15.2872 184.339 15.2872 183.152 15.3614V15.8809H187.307V15.3614C186.194 15.2872 186.046 15.2872 186.046 14.3967V10.5377C186.046 10.0925 186.046 9.86986 186.194 9.64722C186.565 8.97933 187.233 8.45985 188.198 8.45985C189.311 8.45985 189.905 9.05354 189.905 10.5377V14.4709C189.979 15.2872 189.905 15.2872 188.717 15.3614Z" fill="#003B5C"/>
<path d="M206.083 4.82367C207.567 4.89788 207.567 4.97208 207.567 5.86261V11.3542C207.567 13.5063 207.122 15.5842 204.524 15.5842C202.075 15.5842 201.63 13.4321 201.63 11.3542V5.86261C201.63 4.89787 201.704 4.89788 203.114 4.82367V4.22998H198.291V4.82367C199.775 4.89788 199.775 4.97208 199.775 5.86261V11.7252C199.775 12.7642 199.923 13.5805 200.22 14.1742C201.036 15.8068 202.743 16.1779 204.45 16.1779C206.157 16.1779 207.938 15.8068 208.754 14.1C209.051 13.5063 209.199 12.6158 209.199 11.5768V5.7884C209.199 4.82366 209.274 4.82366 210.684 4.67524V4.22998H205.934V4.82367H206.083Z" fill="#003B5C"/>
<path d="M219.663 14.3967V10.1667C219.663 8.45985 218.698 7.49512 217.14 7.49512C215.878 7.49512 215.136 8.0888 214.097 8.75669L213.875 7.49512L211.352 7.94038V8.45985L211.945 8.53407C212.39 8.60828 212.465 8.68249 212.465 9.27617V14.3967C212.465 15.2872 212.39 15.2872 211.203 15.3614V15.8809H215.359V15.3614C214.246 15.2872 214.097 15.2872 214.097 14.3967V10.5377C214.097 10.0925 214.097 9.86986 214.246 9.64722C214.617 8.97933 215.285 8.45985 216.249 8.45985C217.363 8.45985 217.956 9.05354 217.956 10.5377V14.4709C217.956 15.3614 217.882 15.3614 216.695 15.4356V15.9551H220.85V15.3614C219.737 15.2872 219.663 15.2872 219.663 14.3967Z" fill="#003B5C"/>
<path d="M224.413 6.15943C225.006 6.15943 225.452 5.71417 225.452 5.12048C225.452 4.5268 225.081 4.00732 224.413 4.00732C223.745 4.00732 223.374 4.45259 223.374 5.12048C223.374 5.71417 223.819 6.15943 224.413 6.15943Z" fill="#003B5C"/>
<path d="M225.229 14.3967V7.56933L225.081 7.49512L222.409 7.94038V8.45985L223.077 8.53407C223.522 8.60828 223.596 8.68249 223.596 9.27617V14.3967C223.596 15.213 223.522 15.2872 222.335 15.3614V15.8809H226.491V15.3614C225.303 15.2872 225.229 15.2872 225.229 14.3967Z" fill="#003B5C"/>
<path d="M233.095 8.23722L233.912 8.31143C234.208 8.31143 234.208 8.53406 234.134 8.75669C233.689 10.3151 232.798 12.8383 232.205 14.3225C231.537 12.4672 230.869 10.612 230.275 8.75669C230.201 8.45985 230.201 8.31143 230.572 8.23722L231.314 8.16301V7.56933H227.381V8.16301C228.197 8.23722 228.346 8.31143 228.568 8.90512C229.459 11.2056 230.275 13.5062 231.092 15.8067H232.353C233.318 13.2093 234.505 10.0183 235.025 8.8309C235.322 8.23722 235.47 8.16301 236.212 8.0888V7.49512H233.021V8.23722H233.095Z" fill="#003B5C"/>
<path d="M243.633 11.5767C244.004 11.5767 244.301 11.4283 244.301 10.9088C244.301 9.86985 243.93 7.49512 240.887 7.49512C238.29 7.49512 237.028 9.35038 237.028 11.8735C237.028 14.5451 238.067 16.1777 240.961 16.1777C242.817 16.1777 243.781 15.1388 244.301 13.803L243.781 13.5062C243.262 14.4709 242.668 15.2872 241.407 15.2872C239.329 15.2872 238.884 13.3577 238.958 11.5767H243.633ZM240.813 8.0888C242.371 8.0888 242.52 9.64722 242.52 10.3151C242.52 10.612 242.446 10.8346 241.926 10.8346H238.809C238.809 10.1667 239.106 8.0888 240.813 8.0888Z" fill="#003B5C"/>
<path d="M250.906 7.49512C250.312 7.49512 249.793 7.94038 248.679 8.90512L248.457 7.49512L245.859 7.94038V8.45985L246.527 8.53407C246.973 8.60828 247.047 8.68249 247.047 9.27617V14.3967C247.047 15.213 246.973 15.2872 245.785 15.3614V15.8809H250.238V15.3614C248.754 15.2872 248.679 15.213 248.679 14.3967V10.5377C248.679 9.27617 249.273 8.8309 249.644 8.8309C249.941 8.8309 250.164 8.90512 250.609 9.27617C250.757 9.35038 250.906 9.35038 250.98 9.35038C251.425 9.35038 251.796 8.83091 251.796 8.31143C251.796 7.94038 251.574 7.49512 250.906 7.49512Z" fill="#003B5C"/>
<path d="M256.694 10.983C255.952 10.7604 254.913 10.3151 254.913 9.42459C254.913 8.53406 255.581 8.0888 256.397 8.0888C257.585 8.0888 258.104 9.05354 258.253 10.0925H258.772V8.01459C258.178 7.64354 257.362 7.49512 256.546 7.49512C254.691 7.49512 253.503 8.38564 253.503 9.94406C253.503 11.5025 254.542 11.9477 255.952 12.4672C256.991 12.8383 257.807 13.2835 257.807 14.1741C257.807 14.9904 257.139 15.5099 256.249 15.5099C254.913 15.5099 254.171 14.5451 253.874 13.1351H253.355L253.503 15.3614C254.171 15.8809 255.136 16.1777 256.175 16.1777C258.178 16.1777 259.292 15.0646 259.292 13.6546C259.366 12.0962 258.475 11.5767 256.694 10.983Z" fill="#003B5C"/>
<path d="M263.225 6.15943C263.818 6.15943 264.264 5.71417 264.264 5.12048C264.264 4.5268 263.893 4.00732 263.225 4.00732C262.557 4.00732 262.186 4.45259 262.186 5.12048C262.186 5.71417 262.631 6.15943 263.225 6.15943Z" fill="#003B5C"/>
<path d="M264.115 14.3967V7.56933L263.967 7.49512L261.295 7.94038V8.45985L261.963 8.53407C262.408 8.60828 262.483 8.68249 262.483 9.27617V14.3967C262.483 15.213 262.408 15.2872 261.221 15.3614V15.8809H265.377V15.3614C264.115 15.2872 264.115 15.2872 264.115 14.3967Z" fill="#003B5C"/>
<path d="M270.572 15.2133C269.978 15.2133 269.458 14.8422 269.458 13.5807V8.46013H271.611V7.71803H269.458V5.64014H268.939L267.9 7.71803H266.638V8.46013H267.826V14.2486C267.826 15.9554 269.087 16.178 269.755 16.178C270.572 16.178 271.239 15.807 271.833 15.4359L271.685 14.9907C271.239 15.1391 271.017 15.2133 270.572 15.2133Z" fill="#003B5C"/>
<path d="M278.586 7.71776V8.23724L279.477 8.31145C279.774 8.31145 279.774 8.53408 279.699 8.83092C279.477 9.86987 278.661 12.3188 277.918 14.2483C277.176 12.2446 276.434 10.4636 275.84 8.75671C275.766 8.45987 275.692 8.23724 276.137 8.23724L276.879 8.16303V7.64355H272.946V8.16303C273.763 8.23724 273.911 8.31145 274.208 9.05356C275.024 11.0572 276.508 14.6193 276.954 15.8067C277.028 16.1036 277.102 16.3262 277.102 16.623C276.954 17.4393 276.508 18.7751 275.915 18.7751C275.766 18.7751 275.618 18.7009 275.321 18.4041C275.173 18.2557 275.024 18.1815 274.802 18.1815C274.43 18.1815 274.059 18.6267 274.059 19.1462C274.059 19.5914 274.505 20.0367 275.247 20.0367C275.915 20.0367 276.805 19.8141 277.696 17.3651C278.735 14.3967 280.219 10.2409 280.738 9.05356C281.035 8.38566 281.184 8.23724 282 8.16303V7.64355H278.586V7.71776Z" fill="#003B5C"/>
<path d="M122.151 33.4691C122.893 32.3559 123.115 31.0201 123.115 30.2038C123.115 28.0517 121.557 27.458 120.295 27.458C116.659 27.458 115.694 31.2427 115.694 32.6527C115.694 34.2854 116.585 35.4727 118.589 35.4727C120.295 35.4727 121.409 34.5822 122.151 33.4691ZM118.663 34.8791C117.772 34.8791 117.253 34.2854 117.253 33.2464C117.253 31.5396 118.292 27.9775 120.295 27.9775C121.26 27.9775 121.557 28.6454 121.557 29.6101C121.557 30.7233 120.741 34.8791 118.663 34.8791Z" fill="#003B5C"/>
<path d="M129.868 23.5991C128.755 23.5991 128.162 24.0444 127.642 24.7123C126.974 25.5286 126.752 26.5675 126.455 27.6065H125.119L124.971 28.2002H126.381C125.861 30.6491 124.971 34.9533 124.6 36.8828C124.377 37.9218 124.08 38.367 123.783 38.367C123.486 38.367 123.19 38.2186 122.818 37.5507C122.67 37.4023 122.596 37.2539 122.447 37.2539C122.076 37.2539 121.631 37.6991 121.631 38.0702C121.631 38.5897 122.225 39.0349 123.115 39.0349C124.822 39.0349 126.01 37.4023 126.677 34.2854L128.013 28.2002H129.794L129.943 27.6065H128.162L128.607 25.677C128.904 24.5639 129.201 24.1186 129.572 24.1186C130.017 24.1186 130.091 24.267 130.388 25.0091C130.462 25.1575 130.611 25.306 130.833 25.306C131.13 25.306 131.575 25.0091 131.575 24.5639C131.353 23.9702 130.833 23.5991 129.868 23.5991Z" fill="#003B5C"/>
<path d="M143.152 33.6917C142.262 31.1686 140.555 26.2707 139.59 23.5249H138.254C137.141 26.7902 135.88 30.4265 134.692 33.5433C134.321 34.4338 134.173 34.6565 133.134 34.7307V35.2502H136.844V34.7307L135.954 34.6565C135.434 34.5823 135.434 34.4339 135.509 33.9886C135.805 32.9496 136.102 31.9849 136.547 30.7975H140.332C140.555 31.3912 141.149 33.0981 141.445 33.9144C141.594 34.3596 141.52 34.5823 141 34.6565L140.184 34.7307V35.2502H144.636V34.7307C143.597 34.5823 143.449 34.5823 143.152 33.6917ZM136.696 30.1296C137.215 28.497 137.809 26.716 138.329 25.2317H138.403C138.774 26.3449 139.664 28.8681 140.035 30.1296H136.696Z" fill="#003B5C"/>
<path d="M150.87 26.79C150.276 26.79 149.757 27.2353 148.644 28.2L148.421 26.79L145.824 27.2353V27.7548L146.492 27.829C146.937 27.9032 147.011 27.9774 147.011 28.5711V33.6916C147.011 34.5079 146.937 34.5821 145.75 34.6564V35.1758H150.202V34.6564C148.718 34.5821 148.644 34.5079 148.644 33.6916V29.8327C148.644 28.5711 149.237 28.1258 149.608 28.1258C149.905 28.1258 150.128 28.2 150.573 28.5711C150.722 28.6453 150.87 28.6453 150.944 28.6453C151.39 28.6453 151.761 28.1258 151.761 27.6064C151.761 27.2353 151.538 26.79 150.87 26.79Z" fill="#003B5C"/>
<path d="M166.899 33.6916V29.4616C166.899 27.7548 166.009 26.79 164.376 26.79C162.966 26.79 162.001 27.7548 161.408 28.0516C160.963 27.3095 160.369 26.79 159.181 26.79C157.92 26.79 156.881 27.6064 156.213 28.0516L156.065 26.79L153.393 27.2353V27.7548L154.061 27.829C154.506 27.9032 154.58 27.9774 154.58 28.5711V33.6916C154.58 34.5821 154.506 34.5821 153.319 34.6564V35.1758H157.475V34.6564C156.361 34.5821 156.213 34.5079 156.213 33.6916V29.8327C156.213 29.4616 156.213 29.239 156.361 28.9421C156.658 28.2743 157.4 27.6806 158.365 27.6806C159.775 27.6806 159.924 28.7195 159.924 29.7585V33.6916C159.924 34.5821 159.849 34.5821 158.662 34.6564V35.1758H162.744V34.6564C161.556 34.5821 161.482 34.5821 161.482 33.6916V29.8327C161.482 29.3874 161.482 29.1648 161.63 28.9421C161.853 28.2743 162.595 27.7548 163.486 27.7548C164.525 27.7548 165.193 28.4227 165.193 29.8327V33.7658C165.193 34.6564 165.118 34.6564 163.931 34.7306V35.25H168.087V34.7306C166.974 34.5821 166.899 34.5821 166.899 33.6916Z" fill="#003B5C"/>
<path d="M176.176 30.8716C176.547 30.8716 176.844 30.7232 176.844 30.2037C176.844 29.1648 176.473 26.79 173.43 26.79C170.833 26.79 169.571 28.6453 169.571 31.1685C169.571 33.84 170.61 35.4727 173.504 35.4727C175.359 35.4727 176.324 34.4337 176.844 33.0979L176.324 32.8011C175.805 33.7658 175.211 34.5821 173.949 34.5821C171.872 34.5821 171.426 32.6527 171.501 30.8716H176.176ZM173.356 27.3837C174.914 27.3837 175.063 28.9421 175.063 29.61C175.063 29.9069 174.988 30.1295 174.469 30.1295H171.352C171.352 29.4616 171.649 27.3837 173.356 27.3837Z" fill="#003B5C"/>
<path d="M186.788 33.6916V29.4616C186.788 27.7548 185.823 26.79 184.265 26.79C183.003 26.79 182.261 27.3837 181.222 28.0516L180.999 26.79L178.476 27.2353V27.7548L179.07 27.829C179.515 27.9032 179.589 27.9774 179.589 28.5711V33.6916C179.589 34.5821 179.515 34.5821 178.328 34.6564V35.1758H182.484V34.6564C181.371 34.5821 181.222 34.5821 181.222 33.6916V29.8327C181.222 29.3874 181.222 29.1648 181.371 28.9421C181.742 28.2743 182.409 27.7548 183.374 27.7548C184.487 27.7548 185.081 28.3485 185.081 29.8327V33.7658C185.081 34.6564 185.007 34.6564 183.819 34.7306V35.25H187.975V34.7306C186.862 34.5821 186.788 34.5821 186.788 33.6916Z" fill="#003B5C"/>
<path d="M192.354 33.7658V26.9385L192.205 26.8643L189.534 27.3095V27.829L190.202 27.9032C190.647 27.9774 190.721 28.0516 190.721 28.6453V33.7658C190.721 34.5822 190.647 34.6564 189.459 34.7306V35.25H193.615V34.7306C192.428 34.5822 192.354 34.5822 192.354 33.7658Z" fill="#003B5C"/>
<path d="M190.424 24.4154C190.424 25.0091 190.87 25.4544 191.463 25.4544C192.057 25.4544 192.502 25.0091 192.502 24.4154C192.502 23.8217 192.131 23.3022 191.463 23.3022C190.87 23.3022 190.424 23.8217 190.424 24.4154Z" fill="#003B5C"/>
<path d="M202.372 34.4337C202.075 34.3595 201.778 34.0627 201.778 33.0237V29.0906C201.778 28.1258 201.407 26.79 198.884 26.79C196.955 26.79 195.545 27.829 195.545 28.7195C195.545 29.239 196.138 29.5358 196.509 29.5358C196.88 29.5358 197.029 29.3132 197.103 29.0164C197.474 27.7548 198.068 27.3837 198.736 27.3837C199.552 27.3837 200.22 27.829 200.22 29.0906V29.6843C199.775 30.1295 198.142 30.5748 196.806 30.9458C195.619 31.3169 195.248 32.2074 195.248 33.0237C195.248 34.2853 196.064 35.3985 197.697 35.3985C198.736 35.3985 199.626 34.7306 200.22 34.3595C200.443 35.0274 200.739 35.3985 201.333 35.3985C202.001 35.3985 202.743 35.1758 203.114 34.879L203.04 34.3595C202.817 34.5079 202.52 34.5079 202.372 34.4337ZM200.22 32.8753C200.22 34.2111 199.181 34.5079 198.587 34.5079C197.548 34.5079 197.029 33.7658 197.029 32.8011C197.029 31.9848 197.4 31.6137 198.29 31.2427C198.958 31.02 199.849 30.649 200.22 30.4264V32.8753Z" fill="#003B5C"/>
</svg>
