<svg xmlns="http://www.w3.org/2000/svg" xmlns:xlink="http://www.w3.org/1999/xlink" width="300" zoomAndPan="magnify" viewBox="0 0 224.87999 67.499998" height="90" preserveAspectRatio="xMidYMid meet" version="1.0"><defs><g/></defs><g fill="#f6f3ec" fill-opacity="1"><g transform="translate(5.209933, 38.054181)"><g><path d="M 16.46875 -28.203125 C 18.175781 -28.203125 19.832031 -28.023438 21.4375 -27.671875 C 23.039062 -27.316406 24.546875 -26.84375 25.953125 -26.25 C 26.378906 -26.070312 26.828125 -25.867188 27.296875 -25.640625 C 27.773438 -25.410156 28.113281 -25.296875 28.3125 -25.296875 C 28.570312 -25.296875 28.765625 -25.382812 28.890625 -25.5625 L 29.5 -25.375 L 26.5625 -19.640625 L 25.953125 -19.984375 C 26.003906 -20.191406 26.03125 -20.375 26.03125 -20.53125 C 26.03125 -20.625 25.8125 -20.847656 25.375 -21.203125 C 24.945312 -21.566406 24.316406 -21.925781 23.484375 -22.28125 C 22.660156 -22.632812 21.632812 -22.957031 20.40625 -23.25 C 19.1875 -23.550781 17.773438 -23.703125 16.171875 -23.703125 C 13.410156 -23.703125 11.304688 -23.320312 9.859375 -22.5625 C 8.410156 -21.8125 7.6875 -20.785156 7.6875 -19.484375 C 7.6875 -18.847656 7.894531 -18.359375 8.3125 -18.015625 C 8.726562 -17.671875 9.34375 -17.414062 10.15625 -17.25 C 10.976562 -17.082031 11.96875 -16.976562 13.125 -16.9375 C 14.28125 -16.90625 15.613281 -16.890625 17.125 -16.890625 C 19.03125 -16.890625 20.785156 -16.773438 22.390625 -16.546875 C 23.992188 -16.316406 25.367188 -15.894531 26.515625 -15.28125 C 27.671875 -14.675781 28.570312 -13.835938 29.21875 -12.765625 C 29.863281 -11.691406 30.1875 -10.300781 30.1875 -8.59375 C 30.1875 -7.25 29.851562 -6.019531 29.1875 -4.90625 C 28.53125 -3.800781 27.570312 -2.851562 26.3125 -2.0625 C 25.050781 -1.269531 23.507812 -0.664062 21.6875 -0.25 C 19.863281 0.164062 17.796875 0.375 15.484375 0.375 C 10.566406 0.375 6.640625 -0.460938 3.703125 -2.140625 C 3.117188 -2.441406 2.773438 -2.59375 2.671875 -2.59375 C 2.523438 -2.59375 2.410156 -2.554688 2.328125 -2.484375 C 2.253906 -2.410156 2.179688 -2.347656 2.109375 -2.296875 L 1.609375 -2.40625 L 4.78125 -8.90625 L 5.390625 -8.59375 C 5.390625 -8.519531 5.375 -8.4375 5.34375 -8.34375 C 5.320312 -8.257812 5.3125 -8.128906 5.3125 -7.953125 C 5.332031 -7.390625 5.628906 -6.867188 6.203125 -6.390625 C 6.785156 -5.921875 7.535156 -5.519531 8.453125 -5.1875 C 9.367188 -4.863281 10.410156 -4.601562 11.578125 -4.40625 C 12.753906 -4.21875 13.953125 -4.125 15.171875 -4.125 C 18.179688 -4.125 20.476562 -4.488281 22.0625 -5.21875 C 23.65625 -5.945312 24.453125 -6.945312 24.453125 -8.21875 C 24.453125 -9.0625 24.191406 -9.710938 23.671875 -10.171875 C 23.148438 -10.628906 22.429688 -10.960938 21.515625 -11.171875 C 20.597656 -11.390625 19.492188 -11.523438 18.203125 -11.578125 C 16.921875 -11.628906 15.515625 -11.664062 13.984375 -11.6875 C 12.148438 -11.71875 10.503906 -11.851562 9.046875 -12.09375 C 7.597656 -12.332031 6.367188 -12.734375 5.359375 -13.296875 C 4.359375 -13.859375 3.585938 -14.609375 3.046875 -15.546875 C 2.515625 -16.492188 2.25 -17.679688 2.25 -19.109375 C 2.25 -20.609375 2.601562 -21.925781 3.3125 -23.0625 C 4.03125 -24.195312 5.019531 -25.144531 6.28125 -25.90625 C 7.539062 -26.675781 9.046875 -27.25 10.796875 -27.625 C 12.546875 -28.007812 14.4375 -28.203125 16.46875 -28.203125 Z M 16.46875 -28.203125 "/></g></g></g><g fill="#f6f3ec" fill-opacity="1"><g transform="translate(37.04863, 38.054181)"><g><path d="M 1.109375 -28.734375 L 1.640625 -28.734375 C 1.640625 -28.128906 2.070312 -27.828125 2.9375 -27.828125 L 26.828125 -27.828125 C 27.671875 -27.828125 28.09375 -28.128906 28.09375 -28.734375 L 28.625 -28.734375 L 28.625 -22.359375 L 28.09375 -22.359375 C 28.09375 -22.992188 27.660156 -23.3125 26.796875 -23.3125 L 17.578125 -23.3125 L 17.578125 -1.609375 C 17.578125 -1.222656 17.65625 -0.945312 17.8125 -0.78125 C 17.96875 -0.613281 18.285156 -0.53125 18.765625 -0.53125 L 18.765625 0 L 11 0 L 11 -0.53125 C 11.488281 -0.53125 11.800781 -0.613281 11.9375 -0.78125 C 12.082031 -0.945312 12.15625 -1.222656 12.15625 -1.609375 L 12.15625 -23.3125 L 2.9375 -23.3125 C 2.070312 -23.3125 1.640625 -22.992188 1.640625 -22.359375 L 1.109375 -22.359375 Z M 1.109375 -28.734375 "/></g></g></g><g fill="#f6f3ec" fill-opacity="1"><g transform="translate(66.785131, 38.054181)"><g><path d="M 21.21875 -16.359375 C 21.851562 -16.359375 22.460938 -16.421875 23.046875 -16.546875 C 23.628906 -16.671875 24.144531 -16.878906 24.59375 -17.171875 C 25.039062 -17.472656 25.394531 -17.835938 25.65625 -18.265625 C 25.925781 -18.703125 26.0625 -19.222656 26.0625 -19.828125 C 26.0625 -20.472656 25.914062 -21.015625 25.625 -21.453125 C 25.332031 -21.898438 24.957031 -22.257812 24.5 -22.53125 C 24.039062 -22.800781 23.515625 -23 22.921875 -23.125 C 22.335938 -23.25 21.753906 -23.3125 21.171875 -23.3125 L 9.515625 -23.3125 L 9.515625 -16.359375 Z M 21.4375 -27.828125 C 22.894531 -27.828125 24.234375 -27.644531 25.453125 -27.28125 C 26.671875 -26.925781 27.734375 -26.40625 28.640625 -25.71875 C 29.546875 -25.03125 30.25 -24.1875 30.75 -23.1875 C 31.25 -22.195312 31.5 -21.078125 31.5 -19.828125 C 31.5 -17.617188 30.863281 -15.804688 29.59375 -14.390625 C 28.332031 -12.972656 26.46875 -12.070312 24 -11.6875 L 30.609375 -2.328125 C 31.066406 -1.671875 31.410156 -1.207031 31.640625 -0.9375 C 31.867188 -0.664062 32.226562 -0.53125 32.71875 -0.53125 L 32.71875 0 L 24.234375 0 L 24.234375 -0.53125 C 24.460938 -0.53125 24.609375 -0.5625 24.671875 -0.625 C 24.734375 -0.6875 24.765625 -0.757812 24.765625 -0.84375 C 24.765625 -1.019531 24.71875 -1.179688 24.625 -1.328125 C 24.539062 -1.484375 24.332031 -1.789062 24 -2.25 L 17.28125 -11.84375 L 9.40625 -11.84375 L 9.40625 -1.6875 C 9.40625 -1.25 9.46875 -0.945312 9.59375 -0.78125 C 9.71875 -0.613281 10.007812 -0.53125 10.46875 -0.53125 L 10.46875 0 L 2.90625 0 L 2.90625 -0.53125 C 3.332031 -0.53125 3.613281 -0.613281 3.75 -0.78125 C 3.894531 -0.945312 3.96875 -1.25 3.96875 -1.6875 L 3.96875 -26.1875 C 3.96875 -26.59375 3.90625 -26.875 3.78125 -27.03125 C 3.65625 -27.195312 3.363281 -27.28125 2.90625 -27.28125 L 2.90625 -27.828125 Z M 21.4375 -27.828125 "/></g></g></g><g fill="#f6f3ec" fill-opacity="1"><g transform="translate(100.764246, 38.054181)"><g><path d="M 7.53125 -13.90625 C 7.53125 -12.332031 7.796875 -10.9375 8.328125 -9.71875 C 8.867188 -8.507812 9.609375 -7.488281 10.546875 -6.65625 C 11.492188 -5.832031 12.609375 -5.203125 13.890625 -4.765625 C 15.179688 -4.335938 16.566406 -4.125 18.046875 -4.125 C 19.597656 -4.125 21.019531 -4.351562 22.3125 -4.8125 C 23.613281 -5.269531 24.722656 -5.921875 25.640625 -6.765625 C 26.554688 -7.609375 27.269531 -8.632812 27.78125 -9.84375 C 28.289062 -11.050781 28.546875 -12.40625 28.546875 -13.90625 C 28.546875 -15.4375 28.285156 -16.804688 27.765625 -18.015625 C 27.242188 -19.222656 26.515625 -20.25 25.578125 -21.09375 C 24.648438 -21.9375 23.535156 -22.582031 22.234375 -23.03125 C 20.941406 -23.476562 19.53125 -23.703125 18 -23.703125 C 16.550781 -23.703125 15.1875 -23.484375 13.90625 -23.046875 C 12.632812 -22.609375 11.523438 -21.972656 10.578125 -21.140625 C 9.640625 -20.316406 8.894531 -19.296875 8.34375 -18.078125 C 7.800781 -16.859375 7.53125 -15.46875 7.53125 -13.90625 Z M 18.046875 -28.203125 C 20.253906 -28.203125 22.328125 -27.890625 24.265625 -27.265625 C 26.203125 -26.640625 27.890625 -25.722656 29.328125 -24.515625 C 30.773438 -23.304688 31.910156 -21.820312 32.734375 -20.0625 C 33.554688 -18.300781 33.96875 -16.289062 33.96875 -14.03125 C 33.96875 -11.582031 33.53125 -9.453125 32.65625 -7.640625 C 31.78125 -5.835938 30.613281 -4.34375 29.15625 -3.15625 C 27.707031 -1.96875 26.023438 -1.082031 24.109375 -0.5 C 22.203125 0.0820312 20.21875 0.375 18.15625 0.375 C 15.8125 0.375 13.65625 0.0507812 11.6875 -0.59375 C 9.726562 -1.238281 8.035156 -2.171875 6.609375 -3.390625 C 5.179688 -4.617188 4.070312 -6.113281 3.28125 -7.875 C 2.5 -9.632812 2.109375 -11.609375 2.109375 -13.796875 C 2.109375 -16.191406 2.53125 -18.285156 3.375 -20.078125 C 4.226562 -21.878906 5.378906 -23.382812 6.828125 -24.59375 C 8.285156 -25.800781 9.976562 -26.703125 11.90625 -27.296875 C 13.832031 -27.898438 15.878906 -28.203125 18.046875 -28.203125 Z M 18.046875 -28.203125 "/></g></g></g><g fill="#f6f3ec" fill-opacity="1"><g transform="translate(136.845558, 38.054181)"><g><path d="M 21.0625 -4.515625 C 22.863281 -4.515625 24.175781 -4.820312 25 -5.4375 C 25.832031 -6.0625 26.25 -7.101562 26.25 -8.5625 C 26.25 -9.9375 25.773438 -10.90625 24.828125 -11.46875 C 23.890625 -12.03125 22.582031 -12.3125 20.90625 -12.3125 L 9.40625 -12.3125 L 9.40625 -4.515625 Z M 22.015625 -16.8125 C 23.003906 -16.8125 23.8125 -17.101562 24.4375 -17.6875 C 25.0625 -18.28125 25.375 -19.070312 25.375 -20.0625 C 25.375 -21.289062 25.09375 -22.140625 24.53125 -22.609375 C 23.976562 -23.078125 23 -23.3125 21.59375 -23.3125 L 9.40625 -23.3125 L 9.40625 -16.8125 Z M 21.484375 -27.828125 C 22.703125 -27.828125 23.863281 -27.710938 24.96875 -27.484375 C 26.082031 -27.253906 27.054688 -26.859375 27.890625 -26.296875 C 28.734375 -25.734375 29.40625 -24.972656 29.90625 -24.015625 C 30.40625 -23.066406 30.65625 -21.851562 30.65625 -20.375 C 30.65625 -19.09375 30.34375 -17.960938 29.71875 -16.984375 C 29.09375 -16.003906 28.128906 -15.195312 26.828125 -14.5625 C 28.515625 -13.800781 29.742188 -12.859375 30.515625 -11.734375 C 31.296875 -10.609375 31.6875 -9.285156 31.6875 -7.765625 C 31.6875 -6.410156 31.4375 -5.25 30.9375 -4.28125 C 30.4375 -3.3125 29.765625 -2.507812 28.921875 -1.875 C 28.085938 -1.238281 27.109375 -0.765625 25.984375 -0.453125 C 24.867188 -0.148438 23.6875 0 22.4375 0 L 2.90625 0 L 2.90625 -0.53125 C 3.332031 -0.53125 3.613281 -0.613281 3.75 -0.78125 C 3.894531 -0.945312 3.96875 -1.222656 3.96875 -1.609375 L 3.96875 -26.1875 C 3.96875 -26.59375 3.90625 -26.875 3.78125 -27.03125 C 3.65625 -27.195312 3.363281 -27.28125 2.90625 -27.28125 L 2.90625 -27.828125 Z M 21.484375 -27.828125 "/></g></g></g><g fill="#f6f3ec" fill-opacity="1"><g transform="translate(170.824682, 38.054181)"><g><path d="M 11.546875 -27.828125 L 11.546875 -27.28125 C 10.953125 -27.28125 10.566406 -27.203125 10.390625 -27.046875 C 10.210938 -26.898438 10.125 -26.597656 10.125 -26.140625 L 10.125 -1.609375 C 10.125 -1.171875 10.234375 -0.878906 10.453125 -0.734375 C 10.671875 -0.597656 11.035156 -0.53125 11.546875 -0.53125 L 11.546875 0 L 3.328125 0 L 3.328125 -0.53125 C 3.835938 -0.53125 4.191406 -0.597656 4.390625 -0.734375 C 4.597656 -0.878906 4.703125 -1.171875 4.703125 -1.609375 L 4.703125 -26.140625 C 4.703125 -26.597656 4.617188 -26.898438 4.453125 -27.046875 C 4.285156 -27.203125 3.910156 -27.28125 3.328125 -27.28125 L 3.328125 -27.828125 Z M 11.546875 -27.828125 "/></g></g></g><g fill="#f6f3ec" fill-opacity="1"><g transform="translate(185.692928, 38.054181)"><g><path d="M 11.8125 -11.6875 L 20.90625 -11.6875 L 16.3125 -21.703125 Z M 20.828125 -27.828125 L 20.828125 -27.28125 C 20.296875 -27.207031 20.03125 -27.019531 20.03125 -26.71875 C 20.03125 -26.507812 20.09375 -26.285156 20.21875 -26.046875 C 20.34375 -25.804688 20.46875 -25.53125 20.59375 -25.21875 L 31.453125 -1.984375 C 31.710938 -1.453125 31.914062 -1.078125 32.0625 -0.859375 C 32.21875 -0.640625 32.507812 -0.53125 32.9375 -0.53125 L 32.9375 0 L 25.34375 0 L 25.34375 -0.53125 C 25.800781 -0.53125 26.03125 -0.660156 26.03125 -0.921875 C 26.03125 -1.046875 25.976562 -1.234375 25.875 -1.484375 C 25.769531 -1.742188 25.628906 -2.050781 25.453125 -2.40625 L 23.125 -7.34375 L 10.015625 -7.34375 C 9.453125 -6.09375 8.992188 -5.082031 8.640625 -4.3125 C 8.285156 -3.550781 8.003906 -2.96875 7.796875 -2.5625 C 7.617188 -2.207031 7.476562 -1.90625 7.375 -1.65625 C 7.269531 -1.414062 7.21875 -1.234375 7.21875 -1.109375 C 7.21875 -0.773438 7.410156 -0.582031 7.796875 -0.53125 L 7.796875 0 L 1 0 L 1 -0.53125 C 1.40625 -0.5625 1.691406 -0.679688 1.859375 -0.890625 C 2.023438 -1.109375 2.222656 -1.472656 2.453125 -1.984375 L 12.875 -25.453125 C 12.976562 -25.660156 13.070312 -25.863281 13.15625 -26.0625 C 13.25 -26.269531 13.296875 -26.445312 13.296875 -26.59375 C 13.296875 -26.976562 13.03125 -27.207031 12.5 -27.28125 L 12.5 -27.828125 Z M 20.828125 -27.828125 "/></g></g></g><g fill="#f6f3ec" fill-opacity="1"><g transform="translate(2.891559, 61.269696)"><g><path d="M 18.828125 -14.125 L 18.4375 -14.125 C 18.4375 -14.726562 18.007812 -15.03125 17.15625 -15.03125 L 6.609375 -15.03125 L 6.609375 -10 L 13.46875 -10 C 14.007812 -10 14.375 -10.035156 14.5625 -10.109375 C 14.75 -10.191406 14.84375 -10.375 14.84375 -10.65625 L 15.234375 -10.65625 L 15.234375 -6.9375 L 14.84375 -6.9375 C 14.84375 -7.34375 14.695312 -7.59375 14.40625 -7.6875 C 14.125 -7.789062 13.800781 -7.84375 13.4375 -7.84375 L 6.609375 -7.84375 L 6.609375 -1.171875 C 6.609375 -0.929688 6.660156 -0.738281 6.765625 -0.59375 C 6.878906 -0.457031 7.085938 -0.390625 7.390625 -0.390625 L 7.390625 0 L 3.078125 0 L 3.078125 -0.390625 C 3.378906 -0.390625 3.582031 -0.457031 3.6875 -0.59375 C 3.800781 -0.738281 3.859375 -0.929688 3.859375 -1.171875 L 3.859375 -16.015625 C 3.859375 -16.253906 3.800781 -16.441406 3.6875 -16.578125 C 3.582031 -16.722656 3.378906 -16.796875 3.078125 -16.796875 L 3.078125 -17.1875 L 17 -17.1875 C 17.539062 -17.1875 17.914062 -17.21875 18.125 -17.28125 C 18.332031 -17.351562 18.4375 -17.539062 18.4375 -17.84375 L 18.828125 -17.84375 Z M 18.828125 -14.125 "/></g></g></g><g fill="#f6f3ec" fill-opacity="1"><g transform="translate(22.996172, 61.269696)"><g><path d="M 4.84375 -8.59375 C 4.84375 -6.519531 5.457031 -4.90625 6.6875 -3.75 C 7.914062 -2.601562 9.617188 -2.03125 11.796875 -2.03125 C 13.972656 -2.03125 15.675781 -2.597656 16.90625 -3.734375 C 18.144531 -4.878906 18.765625 -6.5 18.765625 -8.59375 C 18.765625 -10.644531 18.160156 -12.253906 16.953125 -13.421875 C 15.742188 -14.585938 14.015625 -15.171875 11.765625 -15.171875 C 9.585938 -15.171875 7.890625 -14.585938 6.671875 -13.421875 C 5.453125 -12.253906 4.84375 -10.644531 4.84375 -8.59375 Z M 11.796875 -17.390625 C 13.234375 -17.390625 14.554688 -17.191406 15.765625 -16.796875 C 16.972656 -16.410156 18.007812 -15.835938 18.875 -15.078125 C 19.738281 -14.328125 20.414062 -13.40625 20.90625 -12.3125 C 21.394531 -11.226562 21.640625 -9.988281 21.640625 -8.59375 C 21.640625 -7.238281 21.40625 -6.015625 20.9375 -4.921875 C 20.46875 -3.835938 19.800781 -2.914062 18.9375 -2.15625 C 18.082031 -1.394531 17.046875 -0.8125 15.828125 -0.40625 C 14.617188 0 13.273438 0.203125 11.796875 0.203125 C 10.316406 0.203125 8.972656 -0.00390625 7.765625 -0.421875 C 6.554688 -0.835938 5.519531 -1.425781 4.65625 -2.1875 C 3.789062 -2.945312 3.125 -3.863281 2.65625 -4.9375 C 2.195312 -6.019531 1.96875 -7.238281 1.96875 -8.59375 C 1.96875 -9.988281 2.207031 -11.226562 2.6875 -12.3125 C 3.164062 -13.40625 3.835938 -14.328125 4.703125 -15.078125 C 5.578125 -15.835938 6.617188 -16.410156 7.828125 -16.796875 C 9.035156 -17.191406 10.359375 -17.390625 11.796875 -17.390625 Z M 11.796875 -17.390625 "/></g></g></g><g fill="#f6f3ec" fill-opacity="1"><g transform="translate(46.729427, 61.269696)"><g><path d="M 7.0625 -17.1875 L 7.0625 -16.796875 C 6.757812 -16.796875 6.550781 -16.722656 6.4375 -16.578125 C 6.332031 -16.441406 6.28125 -16.253906 6.28125 -16.015625 L 6.28125 -5.53125 C 6.28125 -4.351562 6.734375 -3.492188 7.640625 -2.953125 C 8.554688 -2.421875 9.941406 -2.15625 11.796875 -2.15625 C 13.753906 -2.15625 15.164062 -2.4375 16.03125 -3 C 16.894531 -3.570312 17.328125 -4.425781 17.328125 -5.5625 L 17.328125 -16.015625 C 17.328125 -16.253906 17.269531 -16.441406 17.15625 -16.578125 C 17.050781 -16.722656 16.847656 -16.796875 16.546875 -16.796875 L 16.546875 -17.1875 L 20.859375 -17.1875 L 20.859375 -16.796875 C 20.546875 -16.796875 20.332031 -16.722656 20.21875 -16.578125 C 20.113281 -16.441406 20.0625 -16.253906 20.0625 -16.015625 L 20.0625 -6.25 C 20.0625 -4.976562 19.875 -3.925781 19.5 -3.09375 C 19.132812 -2.269531 18.601562 -1.613281 17.90625 -1.125 C 17.207031 -0.632812 16.34375 -0.289062 15.3125 -0.09375 C 14.28125 0.101562 13.109375 0.203125 11.796875 0.203125 C 10.578125 0.203125 9.460938 0.113281 8.453125 -0.0625 C 7.441406 -0.238281 6.566406 -0.5625 5.828125 -1.03125 C 5.097656 -1.5 4.53125 -2.148438 4.125 -2.984375 C 3.726562 -3.828125 3.53125 -4.914062 3.53125 -6.25 L 3.53125 -16.015625 C 3.53125 -16.253906 3.472656 -16.441406 3.359375 -16.578125 C 3.253906 -16.722656 3.050781 -16.796875 2.75 -16.796875 L 2.75 -17.1875 Z M 7.0625 -17.1875 "/></g></g></g><g fill="#f6f3ec" fill-opacity="1"><g transform="translate(70.462684, 61.269696)"><g><path d="M 8.921875 -17.1875 L 8.921875 -16.796875 C 8.660156 -16.796875 8.488281 -16.769531 8.40625 -16.71875 C 8.332031 -16.664062 8.296875 -16.582031 8.296875 -16.46875 C 8.296875 -16.382812 8.328125 -16.296875 8.390625 -16.203125 C 8.460938 -16.117188 8.597656 -15.96875 8.796875 -15.75 L 18.828125 -4.3125 L 18.890625 -4.3125 L 18.890625 -16.015625 C 18.890625 -16.253906 18.832031 -16.441406 18.71875 -16.578125 C 18.613281 -16.722656 18.410156 -16.796875 18.109375 -16.796875 L 18.109375 -17.1875 L 22.03125 -17.1875 L 22.03125 -16.796875 C 21.726562 -16.796875 21.519531 -16.722656 21.40625 -16.578125 C 21.300781 -16.441406 21.25 -16.253906 21.25 -16.015625 L 21.25 -1.171875 C 21.25 -0.929688 21.300781 -0.738281 21.40625 -0.59375 C 21.519531 -0.457031 21.726562 -0.390625 22.03125 -0.390625 L 22.03125 0 L 17.84375 0 L 17.84375 -0.390625 C 18.28125 -0.390625 18.5 -0.488281 18.5 -0.6875 C 18.5 -0.789062 18.453125 -0.894531 18.359375 -1 C 18.273438 -1.113281 18.140625 -1.289062 17.953125 -1.53125 L 6.53125 -14.515625 L 6.53125 -1.171875 C 6.53125 -0.929688 6.582031 -0.738281 6.6875 -0.59375 C 6.800781 -0.457031 7.015625 -0.390625 7.328125 -0.390625 L 7.328125 0 L 3.40625 0 L 3.40625 -0.390625 C 3.707031 -0.390625 3.910156 -0.457031 4.015625 -0.59375 C 4.128906 -0.738281 4.1875 -0.929688 4.1875 -1.171875 L 4.1875 -16.015625 C 4.1875 -16.253906 4.128906 -16.441406 4.015625 -16.578125 C 3.910156 -16.722656 3.707031 -16.796875 3.40625 -16.796875 L 3.40625 -17.1875 Z M 8.921875 -17.1875 "/></g></g></g><g fill="#f6f3ec" fill-opacity="1"><g transform="translate(96.026595, 61.269696)"><g><path d="M 13.234375 -2.15625 C 15.023438 -2.15625 16.425781 -2.679688 17.4375 -3.734375 C 18.445312 -4.796875 18.953125 -6.414062 18.953125 -8.59375 C 18.953125 -10.707031 18.394531 -12.304688 17.28125 -13.390625 C 16.175781 -14.484375 14.609375 -15.03125 12.578125 -15.03125 L 6.28125 -15.03125 L 6.28125 -2.15625 Z M 12.9375 -17.1875 C 14.132812 -17.1875 15.257812 -16.988281 16.3125 -16.59375 C 17.375 -16.207031 18.296875 -15.648438 19.078125 -14.921875 C 19.867188 -14.191406 20.492188 -13.289062 20.953125 -12.21875 C 21.410156 -11.15625 21.640625 -9.945312 21.640625 -8.59375 C 21.640625 -7.289062 21.453125 -6.109375 21.078125 -5.046875 C 20.710938 -3.992188 20.179688 -3.085938 19.484375 -2.328125 C 18.785156 -1.578125 17.929688 -1 16.921875 -0.59375 C 15.921875 -0.195312 14.800781 0 13.5625 0 L 2.75 0 L 2.75 -0.390625 C 3.050781 -0.390625 3.253906 -0.457031 3.359375 -0.59375 C 3.472656 -0.738281 3.53125 -0.921875 3.53125 -1.140625 L 3.53125 -16.046875 C 3.53125 -16.222656 3.476562 -16.390625 3.375 -16.546875 C 3.28125 -16.710938 3.070312 -16.796875 2.75 -16.796875 L 2.75 -17.1875 Z M 12.9375 -17.1875 "/></g></g></g><g fill="#f6f3ec" fill-opacity="1"><g transform="translate(119.759849, 61.269696)"><g><path d="M 7.0625 -6.734375 L 14.15625 -6.734375 L 10.453125 -14.453125 Z M 12.9375 -17.1875 L 12.9375 -16.796875 C 12.726562 -16.796875 12.585938 -16.757812 12.515625 -16.6875 C 12.453125 -16.613281 12.421875 -16.519531 12.421875 -16.40625 C 12.421875 -16.28125 12.472656 -16.113281 12.578125 -15.90625 C 12.691406 -15.695312 12.835938 -15.40625 13.015625 -15.03125 L 18.984375 -2.640625 C 19.222656 -2.140625 19.421875 -1.738281 19.578125 -1.4375 C 19.734375 -1.132812 19.84375 -0.925781 19.90625 -0.8125 C 20.039062 -0.613281 20.171875 -0.492188 20.296875 -0.453125 C 20.429688 -0.410156 20.609375 -0.390625 20.828125 -0.390625 L 20.828125 0 L 16.28125 0 L 16.28125 -0.390625 C 16.539062 -0.390625 16.710938 -0.425781 16.796875 -0.5 C 16.890625 -0.582031 16.9375 -0.695312 16.9375 -0.84375 C 16.9375 -0.957031 16.898438 -1.082031 16.828125 -1.21875 C 16.765625 -1.363281 16.671875 -1.585938 16.546875 -1.890625 L 15.265625 -4.578125 L 6.015625 -4.578125 L 4.671875 -1.4375 C 4.523438 -1.113281 4.453125 -0.882812 4.453125 -0.75 C 4.453125 -0.507812 4.632812 -0.390625 5 -0.390625 L 5 0 L 0.984375 0 L 0.984375 -0.390625 C 1.128906 -0.390625 1.25 -0.40625 1.34375 -0.4375 C 1.445312 -0.46875 1.546875 -0.535156 1.640625 -0.640625 C 1.742188 -0.753906 1.84375 -0.914062 1.9375 -1.125 C 2.039062 -1.332031 2.179688 -1.625 2.359375 -2 L 8.203125 -15.0625 C 8.441406 -15.570312 8.59375 -15.894531 8.65625 -16.03125 C 8.726562 -16.175781 8.765625 -16.300781 8.765625 -16.40625 C 8.765625 -16.519531 8.703125 -16.613281 8.578125 -16.6875 C 8.460938 -16.757812 8.328125 -16.796875 8.171875 -16.796875 L 8.171875 -17.1875 Z M 12.9375 -17.1875 "/></g></g></g><g fill="#f6f3ec" fill-opacity="1"><g transform="translate(141.695126, 61.269696)"><g><path d="M 1.5625 -18.046875 L 1.96875 -18.046875 C 1.96875 -17.734375 2.070312 -17.507812 2.28125 -17.375 C 2.5 -17.25 2.765625 -17.1875 3.078125 -17.1875 L 16.859375 -17.1875 C 17.609375 -17.1875 17.984375 -17.472656 17.984375 -18.046875 L 18.375 -18.046875 L 18.375 -14.1875 L 17.984375 -14.1875 C 17.984375 -14.53125 17.890625 -14.753906 17.703125 -14.859375 C 17.515625 -14.972656 17.234375 -15.03125 16.859375 -15.03125 L 11.34375 -15.03125 L 11.34375 -1.171875 C 11.34375 -0.929688 11.394531 -0.738281 11.5 -0.59375 C 11.613281 -0.457031 11.820312 -0.390625 12.125 -0.390625 L 12.125 0 L 7.8125 0 L 7.8125 -0.390625 C 8.332031 -0.390625 8.59375 -0.648438 8.59375 -1.171875 L 8.59375 -15.03125 L 3.109375 -15.03125 C 2.734375 -15.03125 2.445312 -14.972656 2.25 -14.859375 C 2.0625 -14.753906 1.96875 -14.53125 1.96875 -14.1875 L 1.5625 -14.1875 Z M 1.5625 -18.046875 "/></g></g></g><g fill="#f6f3ec" fill-opacity="1"><g transform="translate(161.799738, 61.269696)"><g><path d="M 7.578125 -17.1875 L 7.578125 -16.796875 C 7.273438 -16.796875 7.066406 -16.722656 6.953125 -16.578125 C 6.847656 -16.441406 6.796875 -16.253906 6.796875 -16.015625 L 6.796875 -1.171875 C 6.796875 -0.929688 6.847656 -0.738281 6.953125 -0.59375 C 7.066406 -0.457031 7.273438 -0.390625 7.578125 -0.390625 L 7.578125 0 L 3.265625 0 L 3.265625 -0.390625 C 3.566406 -0.390625 3.769531 -0.457031 3.875 -0.59375 C 3.988281 -0.738281 4.046875 -0.929688 4.046875 -1.171875 L 4.046875 -16.015625 C 4.046875 -16.253906 3.988281 -16.441406 3.875 -16.578125 C 3.769531 -16.722656 3.566406 -16.796875 3.265625 -16.796875 L 3.265625 -17.1875 Z M 7.578125 -17.1875 "/></g></g></g><g fill="#f6f3ec" fill-opacity="1"><g transform="translate(172.816418, 61.269696)"><g><path d="M 4.84375 -8.59375 C 4.84375 -6.519531 5.457031 -4.90625 6.6875 -3.75 C 7.914062 -2.601562 9.617188 -2.03125 11.796875 -2.03125 C 13.972656 -2.03125 15.675781 -2.597656 16.90625 -3.734375 C 18.144531 -4.878906 18.765625 -6.5 18.765625 -8.59375 C 18.765625 -10.644531 18.160156 -12.253906 16.953125 -13.421875 C 15.742188 -14.585938 14.015625 -15.171875 11.765625 -15.171875 C 9.585938 -15.171875 7.890625 -14.585938 6.671875 -13.421875 C 5.453125 -12.253906 4.84375 -10.644531 4.84375 -8.59375 Z M 11.796875 -17.390625 C 13.234375 -17.390625 14.554688 -17.191406 15.765625 -16.796875 C 16.972656 -16.410156 18.007812 -15.835938 18.875 -15.078125 C 19.738281 -14.328125 20.414062 -13.40625 20.90625 -12.3125 C 21.394531 -11.226562 21.640625 -9.988281 21.640625 -8.59375 C 21.640625 -7.238281 21.40625 -6.015625 20.9375 -4.921875 C 20.46875 -3.835938 19.800781 -2.914062 18.9375 -2.15625 C 18.082031 -1.394531 17.046875 -0.8125 15.828125 -0.40625 C 14.617188 0 13.273438 0.203125 11.796875 0.203125 C 10.316406 0.203125 8.972656 -0.00390625 7.765625 -0.421875 C 6.554688 -0.835938 5.519531 -1.425781 4.65625 -2.1875 C 3.789062 -2.945312 3.125 -3.863281 2.65625 -4.9375 C 2.195312 -6.019531 1.96875 -7.238281 1.96875 -8.59375 C 1.96875 -9.988281 2.207031 -11.226562 2.6875 -12.3125 C 3.164062 -13.40625 3.835938 -14.328125 4.703125 -15.078125 C 5.578125 -15.835938 6.617188 -16.410156 7.828125 -16.796875 C 9.035156 -17.191406 10.359375 -17.390625 11.796875 -17.390625 Z M 11.796875 -17.390625 "/></g></g></g><g fill="#f6f3ec" fill-opacity="1"><g transform="translate(196.54968, 61.269696)"><g><path d="M 8.921875 -17.1875 L 8.921875 -16.796875 C 8.660156 -16.796875 8.488281 -16.769531 8.40625 -16.71875 C 8.332031 -16.664062 8.296875 -16.582031 8.296875 -16.46875 C 8.296875 -16.382812 8.328125 -16.296875 8.390625 -16.203125 C 8.460938 -16.117188 8.597656 -15.96875 8.796875 -15.75 L 18.828125 -4.3125 L 18.890625 -4.3125 L 18.890625 -16.015625 C 18.890625 -16.253906 18.832031 -16.441406 18.71875 -16.578125 C 18.613281 -16.722656 18.410156 -16.796875 18.109375 -16.796875 L 18.109375 -17.1875 L 22.03125 -17.1875 L 22.03125 -16.796875 C 21.726562 -16.796875 21.519531 -16.722656 21.40625 -16.578125 C 21.300781 -16.441406 21.25 -16.253906 21.25 -16.015625 L 21.25 -1.171875 C 21.25 -0.929688 21.300781 -0.738281 21.40625 -0.59375 C 21.519531 -0.457031 21.726562 -0.390625 22.03125 -0.390625 L 22.03125 0 L 17.84375 0 L 17.84375 -0.390625 C 18.28125 -0.390625 18.5 -0.488281 18.5 -0.6875 C 18.5 -0.789062 18.453125 -0.894531 18.359375 -1 C 18.273438 -1.113281 18.140625 -1.289062 17.953125 -1.53125 L 6.53125 -14.515625 L 6.53125 -1.171875 C 6.53125 -0.929688 6.582031 -0.738281 6.6875 -0.59375 C 6.800781 -0.457031 7.015625 -0.390625 7.328125 -0.390625 L 7.328125 0 L 3.40625 0 L 3.40625 -0.390625 C 3.707031 -0.390625 3.910156 -0.457031 4.015625 -0.59375 C 4.128906 -0.738281 4.1875 -0.929688 4.1875 -1.171875 L 4.1875 -16.015625 C 4.1875 -16.253906 4.128906 -16.441406 4.015625 -16.578125 C 3.910156 -16.722656 3.707031 -16.796875 3.40625 -16.796875 L 3.40625 -17.1875 Z M 8.921875 -17.1875 "/></g></g></g></svg>