<?xml version="1.0" encoding="utf-8"?>
<!-- Generator: Adobe Illustrator 25.4.1, SVG Export Plug-In . SVG Version: 6.00 Build 0)  -->
<svg version="1.1" id="Layer_1" xmlns="http://www.w3.org/2000/svg" xmlns:xlink="http://www.w3.org/1999/xlink" x="0px" y="0px"
	 viewBox="0 0 553.95 63.25" style="enable-background:new 0 0 553.95 63.25;" xml:space="preserve">
<style type="text/css">
	.st0{fill:#000000;}
	.st1{fill:#000000;}
	.st2{fill:#000000;}
	.st3{fill-rule:evenodd;clip-rule:evenodd;fill:#000000;}
	.st4{fill:#000000;}
	.st5{fill-rule:evenodd;clip-rule:evenodd;fill:#000000;}
	.st6{fill:#000000;}
	.st7{fill:#000000;}
	.st8{fill:#000000;}
	.st9{fill:#000000;}
	.st10{fill-rule:evenodd;clip-rule:evenodd;fill:#000000;}
	.st11{fill-rule:evenodd;clip-rule:evenodd;fill:none;}
	.st12{fill-rule:evenodd;clip-rule:evenodd;fill:#000000;}
	.st13{fill-rule:evenodd;clip-rule:evenodd;}
	.st14{fill:#000000;}
	.st15{fill:#000000;}
</style>
<g>
	<g>
		<path class="st15" d="M49.62,12.43h10.08v7.96H49.62V12.43z M49.62,23.39h10.08v11.79c0,4.59,4.37,8.32,9.75,8.32
			c2.52,0,4.94-0.84,6.75-2.33v8.93c-2.17,0.48-4.44,0.72-6.75,0.72c-10.93,0-19.83-5.33-19.83-11.87V23.39z M37.3,20.39v29.57
			H25.11V20.39H11.59v-7.96h35.03v7.96H37.3z M89.27,46.31v3.66h-4.54C86.52,48.92,88.06,47.67,89.27,46.31 M79.19,16.1v-3.67h4.55
			C81.94,13.49,80.38,14.74,79.19,16.1 M89.27,13.15v25.8c0,4.27-3.85,8.2-10.08,10.32V23.47C79.19,19.19,83.04,15.27,89.27,13.15
			 M118.84,27.24v22.73h-10.08V27.24c0-4.59-4.37-8.32-9.74-8.32c-2.52,0-4.94,0.84-6.76,2.32v-8.93c2.19-0.48,4.46-0.71,6.76-0.71
			c5.28,0,10.25,1.25,14.01,3.52l0.77,0.46l0.77-0.47c3.75-2.26,8.73-3.52,14.01-3.52c5.33,0,10.48,1.31,14.21,3.62
			c-2.48,2.26-4.44,4.98-5.71,7.93c-1.72-2.6-4.98-4.24-8.5-4.24C123.21,18.92,118.84,22.65,118.84,27.24 M148.41,23.47v24.99
			c-6.31-3.71-10.07-9.97-10.07-16.83c0-5.49,2.51-10.78,6.9-14.57C147.32,18.97,148.41,21.18,148.41,23.47 M138.33,42.55
			c1.7,2.89,4.05,5.43,6.9,7.41h-6.9V42.55z M151.4,38.96c2.26,2.37,5.44,3.72,8.87,3.72c6.54,0,11.87-4.96,11.87-11.05
			c0-6.09-5.32-11.05-11.87-11.05c-3.44,0-6.62,1.34-8.87,3.72v-0.82c0-2.94-1.3-5.77-3.78-8.19c3.71-2.4,8.07-3.68,12.65-3.68
			c12.1,0,21.94,8.98,21.94,20.02c0,11.04-9.84,20.03-21.94,20.03c-3.08,0-6.07-0.58-8.87-1.72V38.96z M169.14,31.63
			c0,4.44-3.98,8.06-8.87,8.06c-4.89,0-8.87-3.62-8.87-8.06c0-4.44,3.98-8.05,8.87-8.05C165.16,23.57,169.14,27.18,169.14,31.63
			 M160.27,8.6c-5.5,0-10.71,1.63-15.05,4.69c-4.31-2.98-10.35-4.69-16.63-4.69c-5.45,0-10.69,1.24-14.78,3.5
			c-4.1-2.26-9.35-3.5-14.78-3.5c-2.57,0-5.09,0.28-7.49,0.82L76.19,9.44v25.74c0,2.94-3.03,5.33-6.75,5.33
			c-3.72,0-6.76-2.39-6.76-5.33V9.44H8.6v13.95h13.52v29.58h18.18V23.39h6.33v15.56c0,8.2,10.24,14.86,22.82,14.86
			c2.58,0,5.11-0.28,7.53-0.83l15.29-0.01V27.23c0-2.93,3.03-5.32,6.76-5.32c3.72,0,6.75,2.39,6.75,5.33v25.73h16.07V27.24
			c0-2.94,3.03-5.33,6.75-5.33c3.73,0,6.76,2.39,6.76,5.33v25.73L150.99,53c2.96,1.1,6.08,1.65,9.28,1.65
			c13.75,0,24.94-10.33,24.94-23.02S174.02,8.6,160.27,8.6 M544.19,15.01l-2.05,2.05l-0.05-0.05c-0.62-0.62-1.3-1.19-2.04-1.66
			c-0.04-0.02-0.07-0.05-0.11-0.07c-0.66-0.43-1.49-0.82-2.46-1.17c-0.98-0.35-2.2-0.53-3.63-0.53c-1.44,0-2.72,0.21-3.8,0.61
			c-1.08,0.4-2,0.97-2.75,1.68c-0.73,0.69-1.29,1.52-1.67,2.45c-0.38,0.93-0.58,1.92-0.58,2.93c0,1.34,0.28,2.45,0.84,3.31
			c0.56,0.86,1.32,1.62,2.25,2.23c0.94,0.62,2.01,1.14,3.2,1.57c1.15,0.41,2.36,0.82,3.71,1.26c1.24,0.41,2.5,0.88,3.73,1.39
			c1.22,0.51,2.32,1.15,3.27,1.92c0.95,0.76,1.73,1.72,2.33,2.86c0.59,1.14,0.89,2.55,0.89,4.21c0,1.69-0.3,3.31-0.89,4.83
			c-0.59,1.52-1.45,2.85-2.56,3.95c-1.12,1.12-2.5,2.01-4.1,2.64c-1.61,0.64-3.47,0.97-5.53,0.97c-2.68,0-5.01-0.48-6.93-1.43
			c-1.82-0.89-3.45-2.11-4.84-3.62l-0.33-0.35l2.02-2.02l0.2,0.21c0.22,0.22,0.45,0.43,0.69,0.64l0.61,0.52
			c0.43,0.37,0.88,0.73,1.36,1.09c0.51,0.37,1.13,0.73,1.83,1.07c0.71,0.33,1.52,0.61,2.39,0.82c0.88,0.22,1.91,0.34,3.07,0.34
			c1.58,0,2.99-0.24,4.21-0.71c1.22-0.47,2.27-1.13,3.13-1.95c0.84-0.82,1.49-1.8,1.93-2.92c0.45-1.13,0.68-2.35,0.68-3.63
			c0-1.38-0.28-2.54-0.84-3.44c-0.56-0.89-1.32-1.65-2.25-2.25c-0.91-0.6-1.99-1.12-3.2-1.54c-1.1-0.38-2.31-0.78-3.71-1.22
			c-1.28-0.4-2.53-0.85-3.73-1.34c-1.21-0.5-2.32-1.15-3.28-1.91c-0.97-0.79-1.75-1.77-2.33-2.94c-0.59-1.15-0.89-2.63-0.89-4.38
			c0-1.37,0.27-2.71,0.79-3.97c0.52-1.28,1.29-2.41,2.29-3.37c0.99-0.97,2.24-1.76,3.7-2.34c1.47-0.58,3.16-0.88,5.04-0.88
			c2.1,0,4.01,0.34,5.68,1.01c1.58,0.64,3.04,1.59,4.34,2.84L544.19,15.01z M226.07,15.01l-2.05,2.05l-0.05-0.05
			c-0.62-0.62-1.3-1.19-2.03-1.66c-0.04-0.02-0.07-0.05-0.11-0.07c-0.66-0.43-1.49-0.82-2.46-1.17c-0.98-0.35-2.2-0.53-3.63-0.53
			c-1.44,0-2.72,0.21-3.8,0.61c-1.08,0.4-2,0.97-2.75,1.68c-0.73,0.69-1.29,1.52-1.67,2.45c-0.38,0.93-0.58,1.92-0.58,2.93
			c0,1.34,0.28,2.45,0.84,3.31c0.56,0.86,1.32,1.62,2.25,2.23c0.94,0.62,2.01,1.14,3.2,1.57c1.15,0.41,2.36,0.82,3.71,1.26
			c1.24,0.41,2.5,0.88,3.73,1.39c1.22,0.51,2.32,1.15,3.28,1.92c0.95,0.76,1.73,1.72,2.33,2.86c0.59,1.14,0.89,2.55,0.89,4.21
			c0,1.69-0.3,3.31-0.89,4.83c-0.59,1.52-1.45,2.85-2.56,3.95c-1.12,1.12-2.5,2.01-4.1,2.64c-1.61,0.64-3.47,0.97-5.53,0.97
			c-2.67,0-5.01-0.48-6.93-1.43c-1.82-0.89-3.45-2.11-4.84-3.62L202,46.97l2.02-2.02l0.2,0.21c0.22,0.22,0.45,0.43,0.69,0.64
			l0.61,0.52c0.43,0.37,0.88,0.73,1.36,1.09c0.51,0.37,1.13,0.73,1.83,1.07c0.71,0.33,1.52,0.61,2.39,0.82
			c0.88,0.22,1.91,0.34,3.07,0.34c1.58,0,2.99-0.24,4.21-0.71c1.22-0.47,2.27-1.13,3.13-1.95c0.84-0.82,1.49-1.8,1.93-2.92
			c0.45-1.13,0.68-2.35,0.68-3.63c0-1.38-0.28-2.54-0.84-3.44c-0.56-0.89-1.32-1.65-2.25-2.25c-0.91-0.6-1.98-1.12-3.19-1.54
			c-1.1-0.38-2.32-0.78-3.72-1.22c-1.27-0.4-2.53-0.85-3.73-1.34c-1.21-0.5-2.32-1.15-3.27-1.91c-0.97-0.79-1.75-1.77-2.33-2.94
			c-0.59-1.15-0.89-2.63-0.89-4.38c0-1.37,0.26-2.71,0.78-3.97c0.52-1.28,1.29-2.41,2.29-3.37c0.99-0.97,2.24-1.76,3.71-2.34
			c1.46-0.58,3.16-0.88,5.03-0.88c2.1,0,4.01,0.34,5.69,1.01c1.58,0.64,3.03,1.59,4.34,2.84L226.07,15.01z M332.7,11.29h3.23v25.08
			c0,2.23-0.36,4.34-1.06,6.28c-0.71,1.94-1.74,3.65-3.07,5.1c-1.32,1.44-2.96,2.59-4.87,3.41c-1.91,0.82-4.07,1.24-6.43,1.24
			c-2.35,0-4.52-0.42-6.42-1.24c-1.91-0.82-3.54-1.97-4.87-3.41c-1.33-1.45-2.36-3.16-3.07-5.09c-0.71-1.95-1.07-4.07-1.07-6.28
			V11.29h3.26v25.06c0,1.85,0.28,3.6,0.83,5.2c0.56,1.6,1.36,3.01,2.39,4.18c1.02,1.16,2.3,2.1,3.82,2.79
			c1.51,0.66,3.24,1.01,5.13,1.01c1.91,0,3.64-0.34,5.14-1c1.5-0.67,2.8-1.6,3.84-2.77c1.04-1.17,1.85-2.58,2.4-4.18
			c0.55-1.59,0.82-3.34,0.82-5.2V11.29z M249.14,11.29h31.66v2.8h-14.16v37.84h-3.26V14.09h-14.24V11.29z M396.28,31.59
			c0,2.79-0.39,5.32-1.16,7.49c-0.76,2.16-1.86,4.02-3.27,5.53c-1.4,1.49-3.1,2.65-5.07,3.43c-1.96,0.79-4.17,1.19-6.55,1.19H368.6
			V13.97h11.63c2.38,0,4.59,0.4,6.55,1.19c1.96,0.78,3.67,1.93,5.07,3.43c1.4,1.49,2.5,3.35,3.27,5.53
			C395.89,26.3,396.28,28.81,396.28,31.59 M394.25,16.75c-1.71-1.76-3.78-3.12-6.15-4.05c-2.38-0.94-5.03-1.41-7.88-1.41h-14.89
			v40.63h14.89c2.86,0,5.51-0.48,7.88-1.41c2.37-0.93,4.44-2.29,6.15-4.05c1.7-1.76,3.03-3.92,3.97-6.41c0.93-2.5,1.4-5.35,1.4-8.46
			c0-3.09-0.47-5.93-1.4-8.44C397.29,20.68,395.95,18.52,394.25,16.75 M426.97,11.29h3.26v40.63h-3.26V11.29z M494.38,31.59
			c0,9.89-7.84,17.94-17.48,17.94c-9.64,0-17.48-8.05-17.48-17.94c0-9.89,7.84-17.93,17.48-17.93
			C486.54,13.66,494.38,21.71,494.38,31.59 M476.9,10.84c-11.44,0-20.76,9.31-20.76,20.76c0,11.44,9.31,20.76,20.76,20.76
			c11.44,0,20.76-9.31,20.76-20.76C497.66,20.15,488.35,10.84,476.9,10.84"/>
	</g>
</g>
</svg>
