<svg width="112" height="112" viewBox="0 0 112 112" fill="none" xmlns="http://www.w3.org/2000/svg">
<path fill-rule="evenodd" clip-rule="evenodd" d="M20.3181 53.2282C19.4406 51.7657 18.7621 50.8601 18.3525 50.558C17.9773 50.2813 17.4499 50.1345 16.75 50.1345H16V46.4902H30.636V50.1345H29.886C28.8287 50.1345 28.511 50.3048 28.511 50.5242C28.511 50.7743 28.7332 51.3215 29.1953 52.0879L32.8363 58.1352L36.1436 52.6231C36.4873 52.0647 36.6505 51.5596 36.6505 51.1038C36.6505 50.4471 36.1905 50.1345 34.8699 50.1345H34.1199V46.4902H44.6026V50.1345H43.8526C43.2097 50.1345 42.6408 50.3689 42.1135 50.8604C41.5133 51.4198 40.5933 52.686 39.3908 54.6274C39.3908 54.6274 34.5381 62.4045 34.5381 62.472C34.5381 64.3427 34.5381 68.084 34.5381 68.084C34.5381 69.1186 34.7017 69.7912 34.9644 70.0956C35.1922 70.3594 35.8401 70.5407 36.9176 70.5407H37.3233H38.0733V74.1849H22.5294V70.5407H23.1052H23.2794H23.7043C24.8132 70.5407 25.469 70.3551 25.6821 70.093C25.9437 69.7714 26.1031 69.0996 26.1031 68.084V62.6943L20.3181 53.2282Z" fill="white"/>
<path fill-rule="evenodd" clip-rule="evenodd" d="M55.6505 66.7317C55.6505 68.4547 55.9452 69.4983 56.4178 69.8712C56.9794 70.3143 57.7138 70.5407 58.6481 70.5407H59.3981V74.1849H48.0654V70.5407H48.8154C49.5108 70.5407 50.0952 70.3778 50.5868 70.0551C51.0692 69.7385 51.3497 69.4029 51.461 69.0478C51.6007 68.6018 51.6778 67.8275 51.6778 66.751V53.3832C51.6778 51.1211 50.7531 50.1345 48.6802 50.1345H47.9302V46.4902H57.8629L58.0865 46.74L71.1306 61.3226V53.673C71.1306 51.2024 70.2311 50.1345 68.2682 50.1345H67.5182V46.4902H78.4259V50.1345H77.6759C77.1616 50.1345 76.6849 50.2743 76.2305 50.5602C75.7932 50.8354 75.5131 51.1664 75.3663 51.5655C75.1961 52.0281 75.1033 52.762 75.1033 53.7503V74.6099H71.5431L71.3193 74.3573L55.6479 56.6713L55.6505 66.7317Z" fill="white"/>
<path fill-rule="evenodd" clip-rule="evenodd" d="M82.8565 44.4976H82.5672L82.5567 44.2085C82.5202 43.1982 82.6486 42.2562 82.9426 41.3841C83.2377 40.5089 83.6817 39.7419 84.2738 39.0855C84.8691 38.4256 85.6165 37.9123 86.5125 37.5463C87.4057 37.1815 88.4272 37 89.5754 37C90.4523 37 91.2897 37.1265 92.0866 37.3797C92.887 37.634 93.5934 37.9998 94.2042 38.4773C94.8203 38.959 95.3111 39.5533 95.6747 40.2578C96.0411 40.9677 96.2239 41.7623 96.2239 42.6377C96.2239 43.542 96.065 44.3258 95.7441 44.9867C95.4291 45.6356 95.0117 46.2125 94.4929 46.7161C93.9835 47.2106 93.4067 47.6584 92.7628 48.0595C92.1354 48.4503 91.5037 48.837 90.8675 49.2196C90.2404 49.5968 89.6307 50.0021 89.0383 50.4355C88.4609 50.858 87.9333 51.4289 87.9333 51.4289H96.3298V55.0024H82.1333V54.7024C82.1333 53.6732 82.2947 52.7727 82.6198 52.0022C82.9418 51.2395 83.3793 50.5563 83.9316 49.9541C84.4766 49.3598 85.1157 48.8127 85.8485 48.3126C86.5655 47.8232 87.3221 47.3258 88.1174 46.8211C88.5265 46.5588 88.962 46.2927 89.424 46.0225C89.8672 45.7634 90.2714 45.4772 90.6367 45.1641C90.9932 44.8585 91.2908 44.5158 91.5303 44.1353C91.7552 43.778 91.8677 43.3704 91.8677 42.9058C91.8677 42.1589 91.6408 41.5954 91.1879 41.1922C90.7251 40.7803 90.1307 40.5735 89.3902 40.5735C88.8969 40.5735 88.4887 40.6774 88.1598 40.8817C87.8211 41.0922 87.5508 41.3666 87.3461 41.7075C87.1344 42.0602 86.9834 42.4512 86.8932 42.882C86.8004 43.3251 86.754 43.7635 86.754 44.1976V44.4976H86.454H82.8565Z" fill="white"/>
<rect x="3.5" y="3.5" width="105" height="105" stroke="white" stroke-width="5"/>
</svg>
