<svg width="171" height="81" viewBox="0 0 171 81" fill="none" xmlns="http://www.w3.org/2000/svg">
<path d="M93.2451 79.8372C91.6025 79.8372 90.6985 79.2652 90.6985 76.9452V69.5172H89.3145V77.0199C89.3145 78.7372 89.8865 80.8452 93.2451 80.8452C96.6051 80.8452 97.1771 78.7372 97.1771 77.0199V69.5172H95.7932V76.9452C95.7932 79.2652 94.8878 79.8372 93.2451 79.8372ZM100.657 80.6639V72.1385L106.4 80.6639H107.452V69.5172H106.385V78.0879L100.522 69.5172H99.5891V80.6639H100.657ZM110.09 69.5465V80.6639H111.49V69.5465H110.09ZM117.593 77.7425L114.73 69.5172H113.224V69.6372L117.292 80.7999H117.593L121.645 69.6079V69.5172H120.606L117.593 77.7425ZM124.522 75.2399H128.53V74.2479H124.522V70.5092H129.525V69.5172H123.153V80.6639H129.872V79.6719H124.522V75.2399ZM132.764 75.7079C133.593 75.7079 134.09 75.7825 134.588 75.7825C134.949 76.6572 136.02 78.6159 138.038 80.6639H140.086V80.5439C138.761 79.5345 136.622 76.9132 136.23 75.6919C138.249 75.2865 139.212 74.0212 139.212 72.6052V72.3332C139.212 70.7212 137.904 69.1852 134.844 69.3359C133.88 69.3812 132.689 69.5319 131.936 69.5172H131.38V80.6639H132.764V75.7079ZM132.764 70.4945C133.096 70.4945 134 70.4039 134.602 70.3732C136.622 70.2692 137.799 71.0972 137.799 72.5599V72.5745C137.799 74.0665 136.577 74.8052 134.512 74.7146C133.924 74.6852 133.261 74.6545 132.764 74.6399V70.4945ZM144.577 80.8452C146.565 80.8452 148.284 79.8532 148.299 77.6225C148.313 76.4012 147.334 74.9999 144.652 74.3372C142.362 73.7639 141.97 72.8452 142.166 71.8359C142.346 70.9012 143.221 70.3439 144.23 70.3439C145.013 70.3439 146.174 70.4945 146.822 72.1519H146.972L148.162 71.4585C147.108 69.6825 145.45 69.3359 144.305 69.3359C142.166 69.3359 140.976 70.7812 140.794 71.9865C140.554 73.5532 141.593 74.9545 143.838 75.5572C145.857 76.0999 146.942 76.7932 146.822 78.1052C146.686 79.5065 145.36 79.8372 144.562 79.8372C143.778 79.8372 142.408 79.6412 141.805 78.0439H141.654L140.464 78.7372C141.774 80.7705 143.432 80.8452 144.577 80.8452ZM150.302 69.5465V80.6639H151.702V69.5465H150.302ZM156.752 70.5092V80.6639H158.136V70.5092H161.45V69.5172H153.437V70.5092H156.752ZM165.656 75.7239V80.6639H167.04V75.6185L170.656 69.6372V69.5172H169.525L166.498 74.5332L163.712 69.5172H162.16V69.6372L165.656 75.7239Z" fill="white"/>
<path d="M92.5371 65.6973C94.5264 65.6973 96.2438 64.7053 96.2585 62.4746C96.2745 61.2533 95.2945 59.8519 92.6132 59.1893C90.3225 58.6159 89.9305 57.6973 90.1265 56.6879C90.3078 55.7533 91.1812 55.1959 92.1905 55.1959C92.9745 55.1959 94.1345 55.3466 94.7825 57.0039H94.9331L96.1238 56.3106C95.0692 54.5346 93.4118 54.1879 92.2665 54.1879C90.1265 54.1879 88.9371 55.6333 88.7558 56.8386C88.5145 58.4053 89.5545 59.8066 91.7998 60.4093C93.8185 60.9519 94.9025 61.6453 94.7825 62.9559C94.6465 64.3586 93.3211 64.6893 92.5225 64.6893C91.7385 64.6893 90.3678 64.4933 89.7652 62.8959H89.6145L88.4238 63.5893C89.7345 65.6226 91.3918 65.6973 92.5371 65.6973ZM100.448 55.3613V65.5159H101.833V55.3613H105.148V54.3693H97.1331V55.3613H100.448ZM111.566 65.5159H113.088V65.3959L109.02 54.2639H108.718L104.666 65.4266V65.5159H105.705L106.865 62.3519H110.466L111.566 65.5159ZM108.718 57.3226L110.12 61.3599H107.228L108.718 57.3226ZM115.756 55.3613V65.5159H117.14V55.3613H120.454V54.3693H112.441V55.3613H115.756ZM123.333 60.0919H127.34V59.0999H123.333V55.3613H128.334V54.3693H121.964V65.5159H128.681V64.5239H123.333V60.0919Z" fill="white"/>
<path d="M91.9053 45.4266V50.3679H93.2907V45.3212L96.9066 39.3412V39.2212H95.7759L92.7479 44.2372L89.9627 39.2212H88.4106V39.3412L91.9053 45.4266ZM99.4973 44.9439H103.505V43.9519H99.4973V40.2132H104.5V39.2212H98.128V50.3679H104.847V49.3759H99.4973V44.9439ZM107.739 45.4119C108.568 45.4119 109.065 45.4866 109.563 45.4866C109.924 46.3599 110.995 48.3186 113.013 50.3679H115.061V50.2479C113.736 49.2386 111.597 46.6172 111.205 45.3959C113.224 44.9906 114.188 43.7252 114.188 42.3079V42.0372C114.188 40.4239 112.879 38.8892 109.819 39.0399C108.855 39.0852 107.664 39.2359 106.912 39.2212H106.355V50.3679H107.739V45.4119ZM107.739 40.1986C108.071 40.1986 108.975 40.1079 109.577 40.0772C111.597 39.9719 112.773 40.8012 112.773 42.2639V42.2786C112.773 43.7706 111.552 44.5092 109.487 44.4186C108.9 44.3892 108.236 44.3586 107.739 44.3439V40.1986ZM117.697 44.9439H121.705V43.9519H117.697V40.2132H122.7V39.2212H116.328V50.3679H123.047V49.3759H117.697V44.9439ZM128.124 47.4452L125.261 39.2212H123.755V39.3412L127.823 50.5039H128.124L132.177 39.3106V39.2212H131.137L128.124 47.4452ZM138.867 50.3679H140.389V50.2479L136.321 39.1159H136.02L131.967 50.2772V50.3679H133.007L134.167 47.2039H137.768L138.867 50.3679ZM136.02 42.1732L137.421 46.2119H134.528L136.02 42.1732ZM142.964 50.3679V41.8426L148.707 50.3679H149.76V39.2212H148.692V47.7919L142.829 39.2212H141.896V50.3679H142.964Z" fill="white"/>
<path d="M79.5416 39.9335C79.4363 18.2882 61.7403 0.677544 40.0936 0.677544C18.3403 0.677544 0.641602 18.3749 0.641602 40.1295C0.641602 61.7749 18.2523 79.4709 39.899 79.5762L79.2122 79.5815H79.5456V79.2482L79.5416 39.9362V39.9335Z" stroke="white" stroke-width="0.666667"/>
<path d="M71.4865 40.0335C71.4865 22.6415 57.3891 8.54283 39.9971 8.54283C22.6065 8.54283 8.50781 22.6415 8.50781 40.0335C8.50781 57.4241 22.6065 71.5215 39.9971 71.5215C57.3891 71.5215 71.4865 57.4241 71.4865 40.0335ZM70.8665 40.0335C70.8665 57.0815 57.0465 70.9015 39.9971 70.9015C22.9491 70.9015 9.12917 57.0815 9.12917 40.0335C9.12917 22.9841 22.9491 9.16417 39.9971 9.16417C57.0465 9.16417 70.8665 22.9841 70.8665 40.0335ZM69.4691 37.9655C69.4971 37.9615 69.5104 37.9535 69.5091 37.9415L69.3492 36.6802C69.3438 36.6708 69.3304 36.6682 69.3091 36.6708C69.2758 36.6748 69.2598 36.6828 69.2611 36.6948C69.2798 36.8415 69.2731 36.9455 69.2424 37.0095C69.2104 37.0735 69.1385 37.1122 69.0238 37.1268L67.8731 37.2735C67.8651 37.3002 67.8438 37.3388 67.8091 37.3882C67.7771 37.4375 67.7198 37.4882 67.6385 37.5428C67.5571 37.5975 67.4505 37.6335 67.3171 37.6508C67.2478 37.6588 67.1784 37.6615 67.1064 37.6588C67.0358 37.6548 66.9625 37.6442 66.8891 37.6295C66.7278 37.5988 66.5918 37.5082 66.4771 37.3588C66.3625 37.2082 66.2931 37.0322 66.2665 36.8255C66.1985 36.2922 66.4625 35.9882 67.0598 35.9135L68.8398 35.6868C68.9544 35.6722 69.0358 35.6908 69.0825 35.7442C69.1292 35.8028 69.1598 35.9002 69.1784 36.0402C69.1811 36.0522 69.1985 36.0562 69.2305 36.0522C69.2545 36.0495 69.2678 36.0428 69.2665 36.0335L69.1064 34.7722C69.1011 34.7628 69.0878 34.7602 69.0611 34.7628C69.0305 34.7668 69.0172 34.7735 69.0185 34.7828C69.0372 34.9268 69.0305 35.0308 68.9998 35.0935C68.9691 35.1562 68.8958 35.1948 68.7798 35.2095L66.9424 35.4428C66.8771 35.4508 66.8131 35.4668 66.7505 35.4868C66.6878 35.5082 66.6265 35.5335 66.5665 35.5655C66.4465 35.6335 66.3451 35.7255 66.2585 35.8402C66.1718 35.9548 66.1105 36.0975 66.0745 36.2682C66.0385 36.4388 66.0332 36.6282 66.0598 36.8375C66.0745 36.9508 66.1104 37.0668 66.1678 37.1855C66.2238 37.3028 66.2718 37.3868 66.3091 37.4388C66.3304 37.6015 66.3252 37.7588 66.2958 37.9122C66.2665 38.0655 66.1931 38.1682 66.0731 38.2242L66.4798 38.7482C66.5945 38.5628 66.6265 38.2655 66.5745 37.8535L66.5465 37.6362C66.6011 37.6895 66.6758 37.7322 66.7731 37.7628C66.8691 37.7935 66.9611 37.8135 67.0478 37.8215C67.0984 37.8268 67.1385 37.8295 67.1718 37.8295C67.2038 37.8308 67.2318 37.8295 67.2558 37.8268L69.0825 37.5935C69.2011 37.5788 69.2812 37.6002 69.3265 37.6562C69.3718 37.7122 69.4038 37.8108 69.4212 37.9522C69.4238 37.9641 69.4398 37.9695 69.4691 37.9655ZM68.5665 33.7895C68.6385 33.6775 68.6851 33.5402 68.7064 33.3762C68.7291 33.2135 68.7171 33.0322 68.6704 32.8308C68.6251 32.6308 68.5558 32.4642 68.4652 32.3268C68.3718 32.1895 68.2691 32.0842 68.1505 32.0108C68.0318 31.9375 67.9091 31.8922 67.7811 31.8735C67.6531 31.8548 67.5238 31.8615 67.3918 31.8922L65.6318 32.2975C65.5158 32.3255 65.4265 32.3135 65.3665 32.2642C65.3051 32.2135 65.2598 32.1215 65.2292 31.9882C65.2238 31.9788 65.2091 31.9775 65.1838 31.9841C65.1545 31.9908 65.1411 31.9988 65.1424 32.0082L65.4292 33.2468C65.4305 33.2562 65.4451 33.2575 65.4718 33.2522C65.5025 33.2442 65.5171 33.2348 65.5131 33.2228C65.4891 33.1162 65.4932 33.0201 65.5265 32.9348C65.5585 32.8481 65.6305 32.7921 65.7411 32.7668L67.4411 32.3735C67.6958 32.3148 67.8985 32.3148 68.0491 32.3708C68.2011 32.4268 68.3078 32.5055 68.3691 32.6015C68.4291 32.6988 68.4692 32.7895 68.4905 32.8775C68.5078 32.9548 68.5105 33.0495 68.4971 33.1615C68.4838 33.2735 68.4198 33.3895 68.3091 33.5095C68.1971 33.6282 68.0158 33.7175 67.7652 33.7748L67.6131 33.8108C67.4958 33.8375 67.4118 33.8322 67.3585 33.7962C67.3051 33.7602 67.2678 33.6868 67.2424 33.5775C67.2371 33.5695 67.2171 33.5695 67.1798 33.5775C67.1531 33.5842 67.1398 33.5908 67.1411 33.6015L67.3918 34.6868C67.3971 34.6948 67.4158 34.6962 67.4478 34.6882C67.4798 34.6815 67.4945 34.6722 67.4932 34.6628C67.4838 34.6268 67.4798 34.5922 67.4784 34.5575C67.4771 34.5228 67.4758 34.4935 67.4771 34.4708C67.4851 34.4188 67.5078 34.3788 67.5438 34.3495C67.5785 34.3215 67.6385 34.2975 67.7212 34.2788L67.9305 34.2295C68.0598 34.2002 68.1811 34.1468 68.2918 34.0722C68.4038 33.9962 68.4945 33.9015 68.5665 33.7895ZM67.9278 30.4308C67.9545 30.4202 67.9665 30.4095 67.9625 30.3975L67.4958 29.2148C67.4892 29.2068 67.4758 29.2068 67.4545 29.2148C67.4238 29.2282 67.4104 29.2388 67.4144 29.2508C67.4691 29.3881 67.4878 29.4908 67.4731 29.5615C67.4584 29.6295 67.3985 29.6855 67.2905 29.7282L66.2118 30.1535C66.2104 30.1815 66.1984 30.2242 66.1784 30.2802C66.1584 30.3362 66.1158 30.4002 66.0505 30.4722C65.9851 30.5455 65.8905 30.6068 65.7665 30.6562C65.7011 30.6815 65.6345 30.7002 65.5638 30.7148C65.4945 30.7282 65.4211 30.7375 65.3451 30.7415C65.1824 30.7522 65.0278 30.6975 64.8798 30.5802C64.7318 30.4628 64.6198 30.3081 64.5438 30.1161C64.3465 29.6161 64.5278 29.2561 65.0878 29.0348L66.7585 28.3775C66.8651 28.3348 66.9478 28.3335 67.0078 28.3735C67.0665 28.4188 67.1211 28.5055 67.1731 28.6362C67.1784 28.6468 67.1958 28.6468 67.2251 28.6362C67.2491 28.6255 67.2598 28.6162 67.2558 28.6082L66.7891 27.4255C66.7838 27.4175 66.7678 27.4188 66.7451 27.4268C66.7158 27.4388 66.7051 27.4495 66.7078 27.4575C66.7611 27.5922 66.7811 27.6948 66.7665 27.7628C66.7518 27.8308 66.6904 27.8868 66.5811 27.9295L64.8585 28.6095C64.7971 28.6335 64.7385 28.6628 64.6838 28.6988C64.6278 28.7335 64.5745 28.7762 64.5238 28.8202C64.4252 28.9162 64.3492 29.0295 64.2932 29.1628C64.2385 29.2948 64.2145 29.4495 64.2212 29.6215C64.2278 29.7962 64.2691 29.9815 64.3478 30.1775C64.3891 30.2842 64.4531 30.3882 64.5371 30.4882C64.6211 30.5882 64.6891 30.6575 64.7371 30.6988C64.7971 30.8508 64.8318 31.0055 64.8411 31.1615C64.8505 31.3162 64.8038 31.4348 64.7025 31.5175L65.2251 31.9255C65.2918 31.7188 65.2478 31.4228 65.0958 31.0362L65.0158 30.8308C65.0812 30.8695 65.1651 30.8935 65.2665 30.8988C65.3678 30.9055 65.4611 30.9015 65.5465 30.8882C65.5971 30.8802 65.6371 30.8721 65.6691 30.8655C65.7011 30.8588 65.7278 30.8508 65.7491 30.8415L67.4638 30.1655C67.5745 30.1228 67.6571 30.1228 67.7145 30.1668C67.7718 30.2095 67.8278 30.2975 67.8798 30.4295C67.8851 30.4402 67.9025 30.4415 67.9278 30.4308ZM66.4091 26.7628C66.4331 26.7482 66.4424 26.7348 66.4344 26.7228L65.8025 25.6215L65.7278 25.6695C65.8011 25.7962 65.8358 25.8961 65.8305 25.9668C65.8265 26.0375 65.7745 26.1015 65.6745 26.1588L64.1064 27.0602C63.8811 27.1895 63.6865 27.2481 63.5225 27.2362C63.3585 27.2242 63.2358 27.1802 63.1531 27.1095C63.0718 27.0375 63.0091 26.9655 62.9691 26.8935C62.8851 26.7482 62.8545 26.5775 62.8771 26.3828C62.8985 26.1881 63.0705 25.9975 63.3905 25.8135L64.9572 24.9122C65.0572 24.8548 65.1398 24.8415 65.2038 24.8722C65.2678 24.9082 65.3358 24.9868 65.4051 25.1082C65.4131 25.1175 65.4305 25.1161 65.4585 25.1002C65.4798 25.0882 65.4891 25.0761 65.4838 25.0681L64.8505 23.9668C64.8425 23.9601 64.8291 23.9628 64.8051 23.9762C64.7798 23.9908 64.7691 24.0028 64.7745 24.0108C64.8465 24.1362 64.8811 24.2335 64.8771 24.3042C64.8718 24.3735 64.8198 24.4375 64.7185 24.4962L63.1038 25.4228C62.9518 25.5108 62.8278 25.6308 62.7292 25.7841C62.6332 25.9388 62.5865 26.1188 62.5905 26.3255C62.5958 26.5308 62.6665 26.7508 62.7998 26.9841C62.9358 27.2201 63.0905 27.3895 63.2691 27.4948C63.4465 27.5975 63.6251 27.6455 63.8091 27.6388C63.9918 27.6322 64.1598 27.5842 64.3118 27.4962L65.9091 26.5775C66.0131 26.5188 66.0958 26.5055 66.1598 26.5388C66.2238 26.5722 66.2905 26.6481 66.3585 26.7655C66.3691 26.7775 66.3851 26.7762 66.4091 26.7628ZM63.6545 22.3722C63.6772 22.3548 63.6865 22.3415 63.6798 22.3335L62.9865 21.3588C62.9785 21.3495 62.9638 21.3521 62.9411 21.3682C62.9158 21.3855 62.9078 21.4002 62.9158 21.4108C62.9918 21.5175 63.0252 21.6068 63.0158 21.6762C63.0065 21.7468 62.9545 21.8162 62.8558 21.8868L60.5531 23.5242L61.1905 24.4202C61.2692 24.5295 61.3251 24.6442 61.3585 24.7588C61.3931 24.8748 61.4078 24.9802 61.4051 25.0748C61.4025 25.1708 61.3878 25.2468 61.3611 25.3028L61.9558 25.5535C61.9705 25.3322 61.8345 25.0188 61.5465 24.6161L60.9758 23.8135L63.1344 22.2775C63.2278 22.2122 63.3132 22.1908 63.3932 22.2148C63.4732 22.2388 63.5438 22.2935 63.6051 22.3815C63.6158 22.3908 63.6332 22.3882 63.6545 22.3722ZM62.3344 20.6762C62.3558 20.6575 62.3611 20.6428 62.3531 20.6335L61.4758 19.7135C61.4664 19.7082 61.4531 19.7135 61.4371 19.7282C61.4131 19.7522 61.4064 19.7682 61.4145 19.7775C61.5158 19.8842 61.5732 19.9722 61.5852 20.0415C61.5985 20.1122 61.5625 20.1855 61.4798 20.2655L60.6398 21.0655C60.6478 21.0921 60.6531 21.1362 60.6558 21.1962C60.6585 21.2548 60.6438 21.3308 60.6105 21.4228C60.5771 21.5148 60.5131 21.6068 60.4158 21.7001C60.3652 21.7481 60.3105 21.7908 60.2518 21.8308C60.1918 21.8695 60.1278 21.9042 60.0585 21.9375C59.9105 22.0068 59.7465 22.0162 59.5665 21.9628C59.3851 21.9108 59.2238 21.8095 59.0811 21.6588C58.7091 21.2695 58.7424 20.8682 59.1784 20.4522L60.4771 19.2148C60.5611 19.1348 60.6371 19.1028 60.7064 19.1175C60.7771 19.1375 60.8611 19.1975 60.9585 19.2988C60.9678 19.3068 60.9851 19.3002 61.0078 19.2788C61.0251 19.2602 61.0318 19.2482 61.0251 19.2415L60.1492 18.3215C60.1398 18.3162 60.1264 18.3228 60.1064 18.3402C60.0851 18.3615 60.0772 18.3748 60.0852 18.3828C60.1852 18.4868 60.2411 18.5735 60.2531 18.6428C60.2651 18.7108 60.2304 18.7855 60.1451 18.8668L58.8038 20.1455C58.7571 20.1908 58.7144 20.2402 58.6758 20.2935C58.6371 20.3482 58.6038 20.4055 58.5745 20.4668C58.5185 20.5921 58.4905 20.7268 58.4891 20.8695C58.4878 21.0135 58.5238 21.1655 58.5958 21.3228C58.6665 21.4828 58.7758 21.6388 58.9212 21.7908C59.0012 21.8735 59.0984 21.9455 59.2145 22.0068C59.3291 22.0668 59.4184 22.1068 59.4784 22.1268C59.5918 22.2455 59.6825 22.3748 59.7491 22.5148C59.8158 22.6575 59.8185 22.7828 59.7545 22.8988L60.3918 23.0802C60.3758 22.8628 60.2251 22.6042 59.9385 22.3042L59.7865 22.1442C59.8625 22.1562 59.9478 22.1455 60.0438 22.1135C60.1411 22.0815 60.2251 22.0428 60.2998 21.9975C60.3438 21.9708 60.3785 21.9495 60.4051 21.9295C60.4318 21.9122 60.4531 21.8948 60.4704 21.8775L61.8038 20.6068C61.8891 20.5242 61.9678 20.4935 62.0371 20.5122C62.1064 20.5308 62.1905 20.5908 62.2891 20.6948C62.2985 20.7015 62.3131 20.6975 62.3344 20.6762ZM59.4251 18.3788L60.0718 18.4495C60.0251 18.2388 59.8358 18.0015 59.4998 17.7375L58.5238 16.9708L58.4731 17.0428C58.5824 17.1282 58.6452 17.2095 58.6652 17.2895C58.6852 17.3668 58.6585 17.4522 58.5865 17.5442L57.4905 18.9388C57.3292 19.1442 57.1705 19.2708 57.0131 19.3215C56.8571 19.3708 56.7278 19.3775 56.6251 19.3415C56.5211 19.3055 56.4371 19.2615 56.3731 19.2108C56.2411 19.1068 56.1478 18.9602 56.0958 18.7708C56.0438 18.5815 56.1318 18.3415 56.3611 18.0508L57.4572 16.6562C57.5278 16.5668 57.6038 16.5215 57.6865 16.5228C57.7691 16.5228 57.8531 16.5562 57.9371 16.6215C57.9504 16.6282 57.9651 16.6202 57.9811 16.6002C57.9998 16.5775 58.0038 16.5615 57.9945 16.5548L57.0558 15.8162C57.0451 15.8108 57.0305 15.8162 57.0131 15.8388C56.9945 15.8628 56.9904 15.8775 57.0011 15.8855C57.1038 15.9668 57.1624 16.0428 57.1731 16.1122C57.1838 16.1828 57.1531 16.2642 57.0784 16.3588L55.9492 17.7962C55.8412 17.9335 55.7704 18.0922 55.7371 18.2708C55.7038 18.4508 55.7278 18.6348 55.8091 18.8242C55.8904 19.0135 56.0385 19.1922 56.2505 19.3588C56.4611 19.5242 56.6691 19.6215 56.8758 19.6508C57.0824 19.6788 57.2691 19.6562 57.4385 19.5788C57.6051 19.5028 57.7438 19.3948 57.8545 19.2535L58.9318 17.8828L59.1438 17.6148C59.1718 17.6428 59.2131 17.6908 59.2665 17.7602C59.3198 17.8295 59.3664 17.9202 59.4064 18.0308C59.4464 18.1428 59.4531 18.2588 59.4251 18.3788ZM56.2678 15.2948C56.2811 15.2708 56.2838 15.2548 56.2731 15.2482L55.1704 14.6148C55.1611 14.6122 55.1505 14.6202 55.1385 14.6402C55.1211 14.6695 55.1198 14.6868 55.1305 14.6935C55.2571 14.7668 55.3371 14.8348 55.3691 14.8988C55.4011 14.9615 55.3878 15.0428 55.3305 15.1442L54.7531 16.1482C54.7691 16.1722 54.7865 16.2122 54.8051 16.2682C54.8251 16.3242 54.8318 16.4015 54.8251 16.4988C54.8198 16.5961 54.7838 16.7028 54.7171 16.8202C54.6825 16.8802 54.6425 16.9362 54.5971 16.9922C54.5505 17.0468 54.4984 17.0988 54.4424 17.1495C54.3211 17.2588 54.1665 17.3122 53.9771 17.3135C53.7891 17.3135 53.6051 17.2628 53.4251 17.1588C52.9598 16.8922 52.8771 16.4975 53.1771 15.9762L54.0718 14.4202C54.1291 14.3202 54.1931 14.2668 54.2638 14.2615C54.3385 14.2588 54.4358 14.2935 54.5572 14.3642C54.5692 14.3682 54.5825 14.3575 54.5985 14.3295C54.6118 14.3082 54.6131 14.2948 54.6051 14.2895L53.5038 13.6562C53.4931 13.6535 53.4825 13.6642 53.4691 13.6868C53.4545 13.7122 53.4505 13.7281 53.4598 13.7321C53.5852 13.8041 53.6638 13.8722 53.6945 13.9348C53.7265 13.9962 53.7132 14.0788 53.6545 14.1802L52.7305 15.7855C52.6985 15.8428 52.6718 15.9028 52.6505 15.9655C52.6291 16.0281 52.6131 16.0922 52.6025 16.1602C52.5838 16.2962 52.5958 16.4322 52.6358 16.5708C52.6745 16.7095 52.7518 16.8428 52.8652 16.9748C52.9785 17.1068 53.1278 17.2255 53.3105 17.3308C53.4091 17.3882 53.5238 17.4295 53.6531 17.4548C53.7798 17.4802 53.8771 17.4935 53.9398 17.4948C54.0824 17.5762 54.2051 17.6748 54.3105 17.7908C54.4131 17.9082 54.4518 18.0282 54.4238 18.1575L55.0865 18.1495C55.0091 17.9468 54.7918 17.7415 54.4305 17.5348L54.2411 17.4242C54.3158 17.4148 54.3944 17.3802 54.4784 17.3215C54.5611 17.2628 54.6332 17.2028 54.6905 17.1388C54.7252 17.1002 54.7518 17.0695 54.7731 17.0442C54.7931 17.0188 54.8091 16.9962 54.8198 16.9748L55.7398 15.3775C55.7984 15.2762 55.8638 15.2242 55.9358 15.2215C56.0078 15.2188 56.1052 15.2535 56.2292 15.3255C56.2398 15.3295 56.2531 15.3202 56.2678 15.2948ZM52.1531 13.0308L52.3838 12.9028L52.3478 12.8495C52.2104 12.8948 52.0625 12.9495 51.8998 13.0135L51.5251 13.1562L51.7118 13.6615L51.7292 13.7282C51.7345 13.7428 51.7371 13.7562 51.7371 13.7695L51.7344 13.8002C51.7211 13.8201 51.6945 13.8388 51.6531 13.8615L49.7398 14.3788L51.2838 16.2242C51.2945 16.2388 51.3038 16.2642 51.3158 16.3042C51.3278 16.3428 51.3292 16.3815 51.3185 16.4188C51.3078 16.4682 51.3012 16.5002 51.2958 16.5135C51.2918 16.5295 51.2811 16.5535 51.2665 16.5868L51.2238 16.7175C51.2198 16.7348 51.2278 16.7482 51.2451 16.7562L51.2878 16.7762L51.7118 15.9161L50.4038 14.3468L52.3091 13.8468L52.1198 13.2362L52.0945 13.1722C52.0811 13.1308 52.0785 13.1028 52.0852 13.0868C52.0972 13.0668 52.1198 13.0482 52.1531 13.0308ZM48.2238 13.3055C48.2332 13.3042 48.2411 13.2908 48.2478 13.2642C48.2545 13.2362 48.2531 13.2215 48.2424 13.2188L47.1731 12.9722C47.1624 12.9722 47.1545 12.9828 47.1492 13.0055C47.1425 13.0375 47.1438 13.0562 47.1572 13.0588C47.2145 13.0722 47.2611 13.0895 47.2971 13.1095C47.3345 13.1282 47.3611 13.1495 47.3798 13.1722C47.4158 13.2162 47.4198 13.2962 47.3932 13.4122L47.3344 13.6668C47.2824 13.8935 47.1958 14.0535 47.0771 14.1508C46.9585 14.2481 46.8398 14.2988 46.7251 14.3068C46.6091 14.3148 46.5091 14.3095 46.4251 14.2895C46.3518 14.2735 46.2664 14.2322 46.1704 14.1668C46.0744 14.1015 45.9971 13.9922 45.9385 13.8388C45.8811 13.6842 45.8811 13.4815 45.9385 13.2308L46.3371 11.5095L46.0398 11.4415C45.9238 11.4135 45.8078 11.3495 45.6932 11.2482C45.5798 11.1455 45.4918 11.0375 45.4292 10.9215C45.3665 10.8055 45.3425 10.7148 45.3572 10.6495L44.8064 10.9402C44.8771 11.0868 44.9984 11.2055 45.1678 11.2988C45.2598 11.3468 45.3371 11.3868 45.4011 11.4161C45.4638 11.4455 45.5211 11.4695 45.5758 11.4855L45.8305 11.5442L45.4531 13.1788C45.4131 13.3482 45.4172 13.5215 45.4652 13.6948C45.5118 13.8695 45.6131 14.0255 45.7665 14.1642C45.9198 14.3028 46.1265 14.4015 46.3905 14.4628C46.5892 14.5082 46.7745 14.5215 46.9438 14.5015C47.1118 14.4802 47.2571 14.4348 47.3745 14.3655C47.4931 14.2962 47.5905 14.2082 47.6652 14.1015C47.7412 13.9962 47.7932 13.8815 47.8212 13.7575L47.8745 13.5268C47.8931 13.4468 47.9158 13.3882 47.9438 13.3535C47.9705 13.3188 48.0024 13.2988 48.0424 13.2922C48.0904 13.2842 48.1518 13.2882 48.2238 13.3055ZM43.4825 13.4722L43.2638 13.4535C43.3265 13.4122 43.3838 13.3468 43.4331 13.2588C43.4838 13.1708 43.5211 13.0855 43.5465 13.0015C43.5611 12.9522 43.5718 12.9135 43.5798 12.8815C43.5865 12.8495 43.5905 12.8215 43.5932 12.7988L43.7331 10.9615C43.7411 10.8428 43.7784 10.7682 43.8424 10.7348C43.9064 10.7028 44.0092 10.6922 44.1518 10.7015C44.1638 10.7015 44.1718 10.6882 44.1745 10.6588C44.1758 10.6308 44.1705 10.6148 44.1585 10.6148L42.8905 10.5175C42.8798 10.5201 42.8745 10.5322 42.8718 10.5548C42.8705 10.5895 42.8758 10.6055 42.8878 10.6068C43.0345 10.6175 43.1358 10.6442 43.1918 10.6882C43.2478 10.7322 43.2718 10.8108 43.2625 10.9255L43.1745 12.0828C43.1998 12.0961 43.2318 12.1242 43.2745 12.1682C43.3158 12.2095 43.3558 12.2761 43.3918 12.3668C43.4291 12.4575 43.4425 12.5695 43.4331 12.7015C43.4278 12.7722 43.4158 12.8402 43.3985 12.9095C43.3798 12.9788 43.3558 13.0482 43.3265 13.1188C43.2638 13.2695 43.1478 13.3855 42.9784 13.4682C42.8091 13.5495 42.6211 13.5828 42.4132 13.5668C41.8785 13.5255 41.6331 13.2055 41.6784 12.6055L41.8144 10.8162C41.8238 10.7001 41.8585 10.6255 41.9212 10.5895C41.9865 10.5575 42.0892 10.5455 42.2292 10.5562C42.2412 10.5562 42.2492 10.5402 42.2518 10.5082C42.2532 10.4828 42.2491 10.4695 42.2398 10.4682L40.9731 10.3722C40.9624 10.3748 40.9572 10.3882 40.9545 10.4148C40.9518 10.4442 40.9558 10.4588 40.9665 10.4602C41.1105 10.4708 41.2105 10.4975 41.2665 10.5402C41.3211 10.5828 41.3438 10.6628 41.3358 10.7802L41.1945 12.6268C41.1905 12.6922 41.1918 12.7575 41.1985 12.8228C41.2078 12.8895 41.2211 12.9548 41.2398 13.0202C41.2824 13.1495 41.3505 13.2682 41.4465 13.3762C41.5411 13.4842 41.6692 13.5722 41.8292 13.6415C41.9878 13.7122 42.1745 13.7548 42.3838 13.7708C42.4985 13.7802 42.6185 13.7668 42.7451 13.7348C42.8718 13.7028 42.9651 13.6722 43.0225 13.6468C43.1865 13.6602 43.3398 13.6962 43.4838 13.7562C43.6278 13.8148 43.7144 13.9082 43.7451 14.0362L44.3398 13.7442C44.1824 13.5935 43.8972 13.5028 43.4825 13.4722ZM40.3918 13.5908C40.4025 13.5908 40.4065 13.5761 40.4051 13.5495C40.4051 13.5175 40.3972 13.5028 40.3852 13.5028C40.2732 13.5055 40.1772 13.4815 40.0985 13.4308C40.0185 13.3815 39.9771 13.3002 39.9745 13.1882L39.9371 11.7535C39.9344 11.6388 39.9678 11.5535 40.0331 11.5001C40.0998 11.4455 40.1878 11.4175 40.2932 11.4148C40.3025 11.4108 40.3064 11.3948 40.3064 11.3628C40.3064 11.3535 40.3051 11.3455 40.3025 11.3402C40.2985 11.3335 40.2972 11.3295 40.2958 11.3268L39.0958 11.3562C39.0852 11.3575 39.0798 11.3708 39.0798 11.3975C39.0812 11.4295 39.0865 11.4455 39.0971 11.4455C39.2265 11.4415 39.3198 11.4628 39.3771 11.5068C39.4345 11.5508 39.4638 11.6375 39.4678 11.7655L39.4798 12.2748C39.4838 12.4122 39.4105 12.5188 39.2611 12.5935C39.1131 12.6695 38.9465 12.7095 38.7652 12.7148L38.5518 12.6815C38.4932 12.6668 38.4238 12.6295 38.3451 12.5735C38.2651 12.5188 38.1958 12.4295 38.1371 12.3082C38.1038 12.2415 38.0811 12.1695 38.0665 12.0935C38.0518 12.0175 38.0438 11.9268 38.0411 11.8228L38.0158 10.8242C38.0105 10.6095 38.1265 10.4975 38.3652 10.4922C38.3745 10.4882 38.3798 10.4722 38.3784 10.4415C38.3784 10.4282 38.3771 10.4175 38.3745 10.4122C38.3718 10.4068 38.3691 10.4028 38.3678 10.4042L37.1665 10.4335C37.1571 10.4375 37.1518 10.4508 37.1531 10.4775C37.1531 10.5082 37.1584 10.5228 37.1678 10.5215C37.3024 10.5188 37.3971 10.5402 37.4505 10.5868C37.5038 10.6308 37.5318 10.7148 37.5344 10.8375L37.5611 11.8988C37.5665 12.0761 37.6105 12.2455 37.6932 12.4028C37.7772 12.5615 37.9065 12.6868 38.0811 12.7815C38.2558 12.8748 38.4758 12.9188 38.7465 12.9108C38.8958 12.9082 39.0238 12.8855 39.1265 12.8442C39.2305 12.8015 39.3145 12.7562 39.3811 12.7082L39.4891 12.6321L39.5038 13.2001C39.5064 13.3201 39.4785 13.4055 39.4171 13.4548C39.3558 13.5055 39.2558 13.5322 39.1185 13.5348C39.1065 13.5362 39.0998 13.5508 39.1011 13.5788C39.1011 13.6095 39.1092 13.6228 39.1212 13.6228L40.3918 13.5908ZM37.2185 13.5295C37.0278 13.4228 36.7291 13.4068 36.3198 13.4802L36.1038 13.5175C36.1544 13.4615 36.1931 13.3842 36.2198 13.2855C36.2465 13.1882 36.2612 13.0962 36.2652 13.0082C36.2665 12.9575 36.2678 12.9175 36.2665 12.8842C36.2651 12.8521 36.2625 12.8242 36.2585 12.8002L35.9358 10.9868C35.9145 10.8695 35.9318 10.7882 35.9852 10.7415C36.0385 10.6935 36.1358 10.6562 36.2758 10.6308C36.2878 10.6282 36.2918 10.6122 36.2865 10.5842C36.2825 10.5562 36.2731 10.5428 36.2611 10.5442L35.0091 10.7682C34.9998 10.7735 34.9971 10.7855 35.0011 10.8082C35.0078 10.8415 35.0158 10.8562 35.0292 10.8548C35.1732 10.8282 35.2785 10.8295 35.3438 10.8575C35.4091 10.8855 35.4518 10.9562 35.4718 11.0695L35.6758 12.2108C35.7024 12.2188 35.7412 12.2388 35.7932 12.2695C35.8438 12.3002 35.8985 12.3548 35.9572 12.4321C36.0158 12.5108 36.0571 12.6162 36.0798 12.7482C36.0918 12.8162 36.0985 12.8855 36.0985 12.9575C36.0972 13.0295 36.0918 13.1028 36.0811 13.1775C36.0585 13.3388 35.9745 13.4802 35.8305 13.6028C35.6865 13.7242 35.5131 13.8028 35.3091 13.8388C34.7798 13.9335 34.4625 13.6842 34.3572 13.0922L34.0424 11.3255C34.0211 11.2122 34.0372 11.1295 34.0878 11.0802C34.1438 11.0308 34.2398 10.9948 34.3784 10.9708C34.3904 10.9668 34.3932 10.9495 34.3878 10.9175C34.3838 10.8935 34.3771 10.8815 34.3665 10.8828L33.1158 11.1055C33.1065 11.1108 33.1051 11.1255 33.1091 11.1508C33.1144 11.1801 33.1212 11.1948 33.1318 11.1935C33.2745 11.1668 33.3785 11.1682 33.4411 11.1962C33.5051 11.2242 33.5478 11.2948 33.5691 11.4095L33.8945 13.2335C33.9051 13.2975 33.9238 13.3615 33.9478 13.4228C33.9718 13.4842 34.0011 13.5442 34.0358 13.6028C34.1091 13.7188 34.2065 13.8162 34.3251 13.8962C34.4438 13.9775 34.5891 14.0308 34.7611 14.0588C34.9331 14.0868 35.1238 14.0815 35.3318 14.0442C35.4438 14.0242 35.5571 13.9815 35.6731 13.9202C35.7878 13.8575 35.8692 13.8041 35.9185 13.7655C36.0798 13.7361 36.2385 13.7322 36.3918 13.7548C36.5465 13.7775 36.6532 13.8455 36.7158 13.9615L37.2185 13.5295ZM32.9145 14.3028C32.9851 14.1948 33.0345 14.0842 33.0598 13.9682C33.0852 13.8508 33.0825 13.7428 33.0545 13.6415C32.9905 13.4188 32.8651 13.2562 32.6771 13.1548C32.4905 13.0522 32.2305 12.9642 31.8985 12.8908C31.5665 12.8162 31.3238 12.7508 31.1745 12.6922C31.0238 12.6335 30.9292 12.5322 30.8878 12.3895C30.8492 12.2508 30.8731 12.1202 30.9611 12.0001C31.0491 11.8788 31.1558 11.8001 31.2758 11.7655C31.4264 11.7228 31.5678 11.7228 31.6985 11.7642C31.8278 11.8068 31.9398 11.8655 32.0331 11.9415C32.0878 11.9868 32.1318 12.0268 32.1665 12.0628C32.1998 12.0988 32.2358 12.1415 32.2731 12.1882L32.4038 12.3588L32.5118 12.3282L32.1198 11.3588L32.0625 11.3735L32.0292 11.3842C32.0358 11.4202 32.0291 11.4575 32.0105 11.4975C31.9931 11.5362 31.9625 11.5615 31.9198 11.5735C31.8718 11.5882 31.7905 11.5908 31.6771 11.5855C31.5638 11.5802 31.4772 11.5775 31.4185 11.5802C31.3758 11.5788 31.3371 11.5815 31.3025 11.5908C31.2665 11.6002 31.2291 11.6108 31.1891 11.6228C31.0185 11.6708 30.8772 11.7495 30.7652 11.8588C30.6545 11.9668 30.5825 12.0908 30.5465 12.2282C30.5105 12.3655 30.5118 12.5002 30.5492 12.6308C30.6078 12.8402 30.7238 12.9908 30.8918 13.0815C31.0611 13.1708 31.3025 13.2508 31.6171 13.3202C31.9305 13.3922 32.1678 13.4642 32.3278 13.5415C32.4878 13.6175 32.5945 13.7481 32.6465 13.9321C32.6918 14.0908 32.6651 14.2335 32.5678 14.3602C32.4704 14.4868 32.3345 14.5762 32.1611 14.6255C31.9558 14.6842 31.7745 14.6495 31.6212 14.5242C31.4678 14.3975 31.3411 14.2442 31.2438 14.0642L30.8158 14.3948C30.8438 14.4442 30.9064 14.5148 31.0038 14.6068C31.0998 14.7002 31.2558 14.7735 31.4691 14.8308C31.6825 14.8868 31.9478 14.8695 32.2638 14.7802C32.3958 14.7428 32.5198 14.6802 32.6344 14.5935C32.7491 14.5068 32.8425 14.4095 32.9145 14.3028ZM29.8451 14.1495C29.8758 14.1175 29.9238 14.0855 29.9932 14.0548C29.9998 14.0482 29.9985 14.0322 29.9865 14.0055C29.9731 13.9748 29.9612 13.9615 29.9518 13.9655L29.0185 14.3882C29.0105 14.3948 29.0118 14.4082 29.0212 14.4308C29.0372 14.4655 29.0518 14.4802 29.0625 14.4762C29.1145 14.4508 29.1598 14.4362 29.1958 14.4308C29.2318 14.4242 29.2625 14.4255 29.2865 14.4348C29.3318 14.4535 29.3785 14.5188 29.4278 14.6282L29.4344 14.6415C29.5358 14.8668 29.5731 15.0562 29.5451 15.2108C29.5184 15.3668 29.4651 15.4815 29.3838 15.5575C29.3038 15.6335 29.2238 15.6895 29.1438 15.7255C29.0598 15.7628 28.9625 15.7868 28.8492 15.7962C28.7372 15.8068 28.6118 15.7695 28.4758 15.6842C28.3398 15.6002 28.2171 15.4388 28.1105 15.2015L27.6811 14.2548L28.6025 13.8388C28.7251 13.7828 28.8451 13.7508 28.9665 13.7402C29.0851 13.7295 29.1945 13.7362 29.2918 13.7602C29.3891 13.7842 29.4611 13.8121 29.5064 13.8495L29.8678 13.3148C29.7824 13.2895 29.6878 13.2868 29.5825 13.3068C29.4758 13.3242 29.4064 13.3388 29.3731 13.3468C29.3144 13.3615 29.2571 13.3802 29.2011 13.4055C29.1971 13.4068 29.1265 13.4348 28.9878 13.4882C28.9612 13.4988 28.9211 13.5162 28.8704 13.5388L27.6158 14.1068L27.3745 13.5762C27.3278 13.4722 27.3238 13.3828 27.3625 13.3095C27.4012 13.2348 27.4691 13.1761 27.5665 13.1321C27.5771 13.1241 27.5785 13.1082 27.5665 13.0828C27.5545 13.0575 27.5438 13.0455 27.5331 13.0508L26.4438 13.5428C26.4331 13.5495 26.4331 13.5642 26.4451 13.5895C26.4571 13.6175 26.4691 13.6282 26.4811 13.6228C26.5998 13.5695 26.6945 13.5535 26.7611 13.5762C26.8291 13.5975 26.8864 13.6628 26.9371 13.7735L27.6891 15.4388C27.7625 15.5975 27.8692 15.7335 28.0131 15.8468C28.1572 15.9575 28.3304 16.0215 28.5371 16.0375C28.7424 16.0522 28.9678 16.0042 29.2145 15.8935C29.3998 15.8082 29.5518 15.7082 29.6678 15.5895C29.7851 15.4722 29.8678 15.3482 29.9145 15.2202C29.9625 15.0908 29.9825 14.9655 29.9771 14.8442C29.9745 14.7802 29.9652 14.7175 29.9518 14.6588C29.9372 14.6002 29.9172 14.5428 29.8932 14.4895L29.8665 14.4308C29.8318 14.3548 29.8118 14.2948 29.8078 14.2522C29.8051 14.2082 29.8184 14.1748 29.8451 14.1495ZM26.9678 16.4082L26.0998 15.0562C25.9705 14.8535 25.8211 14.7068 25.6531 14.6161C25.4838 14.5242 25.3105 14.4788 25.1318 14.4788C24.9545 14.4788 24.7758 14.5135 24.5998 14.5815C24.5065 14.6148 24.4185 14.6508 24.3358 14.6935C24.2518 14.7348 24.1665 14.7842 24.0798 14.8402C23.8065 15.0162 23.6038 15.2215 23.4718 15.4562C23.3385 15.6922 23.2758 15.9295 23.2838 16.1682C23.2905 16.4055 23.3571 16.6228 23.4838 16.8202C23.6571 17.0908 23.8998 17.2628 24.2105 17.3335L24.1545 16.6855C23.9998 16.6362 23.8665 16.5255 23.7545 16.3521C23.6252 16.1508 23.5758 15.9321 23.6038 15.7001C23.6318 15.4668 23.7625 15.2775 23.9918 15.1295L25.1878 16.9975L25.6038 16.7362L24.3998 14.8588C24.4758 14.8108 24.5812 14.7722 24.7158 14.7415C24.8505 14.7122 25.0038 14.7321 25.1745 14.7988C25.3451 14.8668 25.5052 15.0188 25.6545 15.2522L26.5652 16.6722C26.6185 16.7548 26.6225 16.8402 26.5798 16.9308C26.5371 17.0215 26.4652 17.0988 26.3652 17.1628C26.3558 17.1708 26.3585 17.1868 26.3745 17.2108C26.3891 17.2348 26.4011 17.2442 26.4091 17.2388L27.5371 16.5161C27.5451 16.5108 27.5412 16.4948 27.5238 16.4682C27.5105 16.4468 27.4985 16.4362 27.4905 16.4415C27.4412 16.4735 27.3905 16.4962 27.3411 16.5108C27.2905 16.5268 27.2412 16.5348 27.1932 16.5348C27.0945 16.5322 27.0198 16.4895 26.9678 16.4082ZM21.6665 19.7628L22.4718 18.9935C22.4771 18.9842 22.4692 18.9695 22.4465 18.9455C22.4238 18.9215 22.4091 18.9122 22.4011 18.9188C22.3744 18.9455 22.3465 18.9668 22.3171 18.9855C22.2878 19.0042 22.2638 19.0202 22.2438 19.0308C22.1945 19.0495 22.1491 19.0522 22.1064 19.0348C22.0624 19.0188 22.0118 18.9802 21.9531 18.9188L21.7745 18.7308C21.7225 18.6748 21.6691 18.6282 21.6171 18.5895C21.5651 18.5522 21.5092 18.5175 21.4492 18.4882C21.3318 18.4282 21.2065 18.3975 21.0745 18.3962C20.9425 18.3935 20.8038 18.4242 20.6572 18.4895C20.5132 18.5548 20.3625 18.6588 20.2105 18.8055C20.1078 18.9028 20.0331 19.0015 19.9865 19.0988C19.9411 19.1975 19.9092 19.2882 19.8932 19.3695L19.8678 19.4975C19.8664 19.4975 19.8625 19.4975 19.8598 19.4975C19.8558 19.4975 19.8532 19.4962 19.8518 19.4935L19.4558 19.0788C19.3771 18.9962 19.3438 18.9135 19.3558 18.8321C19.3678 18.7495 19.4118 18.6722 19.4891 18.5975C19.4971 18.5855 19.4931 18.5695 19.4745 18.5508C19.4545 18.5295 19.4398 18.5228 19.4318 18.5308L18.5665 19.3562C18.5585 19.3655 18.5638 19.3801 18.5825 19.4002C18.6038 19.4228 18.6185 19.4282 18.6278 19.4188C18.7225 19.3295 18.8064 19.2828 18.8758 19.2815C18.9478 19.2802 19.0251 19.3228 19.1078 19.4108L20.7718 21.1562C20.8545 21.2428 20.8904 21.3255 20.8784 21.4028C20.8678 21.4802 20.8118 21.5668 20.7118 21.6615C20.7078 21.6708 20.7132 21.6842 20.7318 21.7028C20.7518 21.7255 20.7651 21.7322 20.7731 21.7268L21.6932 20.8482C21.6998 20.8415 21.6931 20.8282 21.6745 20.8095C21.6531 20.7855 21.6372 20.7802 21.6292 20.7882C21.5505 20.8628 21.4651 20.9095 21.3745 20.9242C21.2838 20.9402 21.1985 20.9068 21.1198 20.8242L20.1011 19.7562C20.0184 19.6695 20.0012 19.5442 20.0518 19.3842C20.1012 19.2242 20.1945 19.0775 20.3331 18.9468C20.3598 18.9268 20.3944 18.9042 20.4371 18.8762C20.4784 18.8495 20.5052 18.8348 20.5158 18.8282C20.5665 18.7988 20.6398 18.7762 20.7358 18.7615C20.8305 18.7455 20.9398 18.7615 21.0665 18.8095C21.1905 18.8575 21.3225 18.9535 21.4598 19.0975L21.6064 19.2508C21.6891 19.3375 21.7278 19.4122 21.7225 19.4762C21.7198 19.5402 21.6758 19.6108 21.5958 19.6882C21.5905 19.6975 21.6011 19.7148 21.6251 19.7415C21.6451 19.7615 21.6598 19.7695 21.6665 19.7628ZM18.9025 23.1655C18.7398 23.1441 18.5611 23.0495 18.3665 22.8802L17.0305 21.7242L16.8318 21.9535C16.7532 22.0442 16.6425 22.1162 16.4985 22.1695C16.3558 22.2228 16.2185 22.2495 16.0865 22.2508C15.9545 22.2522 15.8638 22.2295 15.8132 22.1868L15.8118 22.8095C15.9745 22.8148 16.1358 22.7628 16.2971 22.6575C16.3838 22.5988 16.4545 22.5495 16.5105 22.5068C16.5665 22.4642 16.6131 22.4241 16.6531 22.3842L16.8238 22.1882L18.0932 23.2855C18.2252 23.4002 18.3785 23.4775 18.5545 23.5161C18.7305 23.5561 18.9158 23.5402 19.1091 23.4708C19.3038 23.3988 19.4892 23.2628 19.6652 23.0588C19.7998 22.9042 19.8971 22.7468 19.9585 22.5868C20.0198 22.4282 20.0465 22.2788 20.0411 22.1428C20.0345 22.0055 20.0038 21.8788 19.9438 21.7615C19.8851 21.6455 19.8078 21.5468 19.7132 21.4628L19.5331 21.3082C19.4705 21.2548 19.4305 21.2068 19.4132 21.1668C19.3945 21.1268 19.3918 21.0882 19.4051 21.0508C19.4198 21.0042 19.4531 20.9508 19.4998 20.8962C19.5038 20.8868 19.4958 20.8735 19.4758 20.8562C19.4544 20.8375 19.4398 20.8308 19.4331 20.8388L18.7145 21.6695C18.7091 21.6788 18.7158 21.6908 18.7318 21.7042C18.7585 21.7268 18.7758 21.7335 18.7838 21.7242C18.8225 21.6788 18.8585 21.6455 18.8945 21.6228C18.9278 21.6002 18.9598 21.5855 18.9878 21.5802C19.0438 21.5682 19.1158 21.6028 19.2051 21.6802L19.4038 21.8508C19.5798 22.0042 19.6811 22.1548 19.7118 22.3055C19.7411 22.4548 19.7318 22.5842 19.6852 22.6895C19.6372 22.7948 19.5865 22.8815 19.5292 22.9468C19.4812 23.0028 19.4038 23.0588 19.3025 23.1148C19.1998 23.1682 19.0665 23.1868 18.9025 23.1655ZM15.3091 23.6335C15.3104 23.5615 15.3505 23.4655 15.4265 23.3455C15.4318 23.3348 15.4238 23.3202 15.3998 23.3055C15.3758 23.2895 15.3598 23.2868 15.3531 23.2975L14.6665 24.3681C14.6638 24.3788 14.6718 24.3895 14.6905 24.4015C14.7185 24.4202 14.7358 24.4228 14.7424 24.4122C14.8224 24.2882 14.8945 24.2122 14.9598 24.1842C15.0252 24.1548 15.1051 24.1721 15.2025 24.2335L16.1785 24.8602C16.2025 24.8442 16.2438 24.8295 16.3011 24.8122C16.3571 24.7962 16.4345 24.7935 16.5318 24.8042C16.6292 24.8135 16.7345 24.8548 16.8465 24.9268C16.9052 24.9642 16.9598 25.0082 17.0132 25.0562C17.0652 25.1055 17.1145 25.1588 17.1625 25.2188C17.2665 25.3442 17.3131 25.5015 17.3051 25.6908C17.2958 25.8788 17.2358 26.0602 17.1238 26.2348C16.8345 26.6868 16.4358 26.7508 15.9292 26.4255L14.4185 25.4562C14.3212 25.3948 14.2718 25.3282 14.2704 25.2562C14.2718 25.1828 14.3105 25.0868 14.3865 24.9682C14.3918 24.9575 14.3812 24.9428 14.3545 24.9255C14.3332 24.9122 14.3198 24.9095 14.3145 24.9175L13.6278 25.9868C13.6265 25.9975 13.6345 26.0082 13.6572 26.0228C13.6825 26.0388 13.6971 26.0428 13.7025 26.0348C13.7811 25.9135 13.8518 25.8375 13.9158 25.8095C13.9798 25.7815 14.0611 25.7988 14.1585 25.8615L15.7185 26.8615C15.7732 26.8962 15.8318 26.9255 15.8932 26.9508C15.9545 26.9748 16.0198 26.9935 16.0865 27.0082C16.2211 27.0335 16.3571 27.0282 16.4971 26.9948C16.6371 26.9628 16.7758 26.8922 16.9132 26.7841C17.0505 26.6775 17.1758 26.5348 17.2905 26.3575C17.3518 26.2602 17.3985 26.1482 17.4305 26.0215C17.4625 25.8948 17.4798 25.8002 17.4838 25.7362C17.5718 25.5988 17.6772 25.4802 17.7985 25.3815C17.9198 25.2828 18.0425 25.2522 18.1691 25.2855L18.1945 24.6228C17.9865 24.6908 17.7718 24.8988 17.5478 25.2482L17.4278 25.4335C17.4211 25.3575 17.3918 25.2762 17.3371 25.1908C17.2824 25.1042 17.2251 25.0308 17.1638 24.9695C17.1278 24.9322 17.0984 24.9055 17.0731 24.8828C17.0491 24.8615 17.0278 24.8441 17.0078 24.8321L15.4558 23.8375C15.3571 23.7735 15.3078 23.7055 15.3091 23.6335ZM13.3745 27.5988C13.1771 27.5108 13.1278 27.3575 13.2265 27.1402C13.2278 27.1295 13.2145 27.1175 13.1878 27.1055C13.1745 27.1002 13.1652 27.0962 13.1598 27.0962C13.1532 27.0962 13.1491 27.0975 13.1478 27.0988L12.6545 28.1922C12.6518 28.2028 12.6611 28.2135 12.6865 28.2255C12.7145 28.2375 12.7304 28.2388 12.7344 28.2282C12.7891 28.1082 12.8491 28.0335 12.9145 28.0055C12.9798 27.9775 13.0678 27.9882 13.1758 28.0375L14.5305 28.6495C14.6558 28.7068 14.7198 28.8175 14.7238 28.9841C14.7278 29.1521 14.6918 29.3175 14.6171 29.4828L14.4945 29.6602C14.4545 29.7055 14.3931 29.7521 14.3078 29.7988C14.2238 29.8455 14.1131 29.8695 13.9771 29.8695C13.9038 29.8695 13.8291 29.8588 13.7531 29.8388C13.6785 29.8188 13.5932 29.7868 13.4985 29.7442L13.3731 29.6882C13.1758 29.5988 13.1265 29.4455 13.2251 29.2282C13.2265 29.2175 13.2118 29.2055 13.1838 29.1935C13.1758 29.1895 13.1678 29.1868 13.1625 29.1868C13.1545 29.1868 13.1505 29.1868 13.1465 29.1868L12.6518 30.2828C12.6478 30.2908 12.6585 30.3015 12.6825 30.3122C12.7118 30.3255 12.7278 30.3282 12.7318 30.3188C12.7878 30.1948 12.8478 30.1188 12.9105 30.0908C12.9731 30.0628 13.0611 30.0748 13.1758 30.1255L13.3598 30.2095C13.5212 30.2828 13.6918 30.3162 13.8704 30.3095C14.0491 30.3028 14.2198 30.2415 14.3798 30.1268C14.5398 30.0122 14.6758 29.8308 14.7865 29.5868C14.8478 29.4495 14.8825 29.3255 14.8905 29.2148C14.8972 29.1042 14.8945 29.0082 14.8784 28.9268L14.8572 28.7975L15.7518 29.2015L15.8611 28.9588C15.9038 28.8655 15.9558 28.7802 16.0158 28.7028C16.0892 28.6161 16.1504 28.5522 16.2038 28.5095C16.2651 28.4615 16.3265 28.4242 16.3891 28.3975C16.4505 28.3708 16.5052 28.3548 16.5492 28.3535L16.4665 27.7122C16.2691 27.8108 16.0678 28.0841 15.8665 28.5321L15.7932 28.6935L13.3745 27.5988ZM12.6771 31.0868C12.6238 31.1788 12.5891 31.2415 12.5745 31.2722C12.5465 31.3268 12.5251 31.3828 12.5078 31.4415C12.5065 31.4455 12.4824 31.5175 12.4344 31.6575C12.4251 31.6842 12.4118 31.7268 12.3958 31.7815L12.0198 33.1055L11.4598 32.9468C11.3505 32.9148 11.2798 32.8615 11.2478 32.7841C11.2158 32.7068 11.2145 32.6175 11.2438 32.5148C11.2451 32.5002 11.2331 32.4895 11.2064 32.4815C11.1798 32.4748 11.1638 32.4762 11.1611 32.4868L10.8344 33.6362C10.8318 33.6482 10.8438 33.6588 10.8704 33.6668C10.8998 33.6748 10.9158 33.6722 10.9185 33.6602C10.9545 33.5335 11.0025 33.4508 11.0638 33.4161C11.1238 33.3775 11.2118 33.3762 11.3265 33.4082L13.0865 33.9082C13.2545 33.9562 13.4265 33.9602 13.6051 33.9242C13.7838 33.8855 13.9452 33.7948 14.0905 33.6455C14.2345 33.5002 14.3425 33.2962 14.4171 33.0362C14.4718 32.8388 14.4931 32.6602 14.4785 32.4935C14.4638 32.3295 14.4225 32.1868 14.3545 32.0668C14.2865 31.9482 14.2038 31.8508 14.1091 31.7775C14.0571 31.7375 14.0038 31.7042 13.9492 31.6762C13.8945 31.6495 13.8385 31.6282 13.7825 31.6122L13.7198 31.5948C13.6398 31.5708 13.5825 31.5482 13.5451 31.5242C13.5105 31.4988 13.4945 31.4668 13.4918 31.4295C13.4865 31.3868 13.4945 31.3282 13.5145 31.2562C13.5145 31.2455 13.4998 31.2362 13.4718 31.2282C13.4398 31.2188 13.4225 31.2188 13.4198 31.2282L13.1398 32.2148C13.1411 32.2255 13.1518 32.2335 13.1758 32.2402C13.2118 32.2508 13.2318 32.2495 13.2358 32.2375C13.2518 32.1815 13.2692 32.1388 13.2878 32.1068C13.3065 32.0748 13.3265 32.0535 13.3492 32.0402C13.3932 32.0175 13.4732 32.0242 13.5878 32.0562L13.6025 32.0615C13.8398 32.1282 14.0091 32.2228 14.1105 32.3428C14.2105 32.4642 14.2638 32.5788 14.2704 32.6895C14.2758 32.8002 14.2664 32.8975 14.2424 32.9815C14.2184 33.0695 14.1731 33.1602 14.1078 33.2535C14.0425 33.3455 13.9331 33.4175 13.7811 33.4655C13.6278 33.5148 13.4264 33.5055 13.1758 33.4335L12.1758 33.1495L12.4518 32.1775C12.4892 32.0482 12.5425 31.9362 12.6118 31.8375C12.6811 31.7388 12.7558 31.6601 12.8371 31.6015C12.9184 31.5415 12.9865 31.5055 13.0438 31.4935L12.8691 30.8735C12.7945 30.9228 12.7305 30.9935 12.6771 31.0868ZM10.9078 34.9361C10.8011 35.0162 10.7105 35.1295 10.6331 35.2748C10.5558 35.4202 10.5038 35.5948 10.4785 35.8001C10.4518 36.0028 10.4585 36.1828 10.4971 36.3428C10.5358 36.5042 10.5972 36.6388 10.6825 36.7495C10.7678 36.8588 10.8678 36.9442 10.9811 37.0055C11.0945 37.0668 11.2198 37.1055 11.3545 37.1228L13.1438 37.3508C13.2638 37.3655 13.3425 37.4068 13.3825 37.4748C13.4225 37.5415 13.4332 37.6442 13.4158 37.7802C13.4185 37.7908 13.4305 37.7975 13.4572 37.8001C13.4865 37.8041 13.5024 37.8015 13.5038 37.7922L13.6638 36.5308C13.6651 36.5215 13.6518 36.5148 13.6251 36.5108C13.5931 36.5068 13.5771 36.5122 13.5758 36.5242C13.5624 36.6322 13.5251 36.7215 13.4638 36.7895C13.4038 36.8602 13.3171 36.8882 13.2051 36.8735L11.4745 36.6535C11.2158 36.6202 11.0251 36.5508 10.9025 36.4455C10.7798 36.3388 10.7065 36.2308 10.6825 36.1188C10.6585 36.0068 10.6518 35.9068 10.6638 35.8175C10.6731 35.7402 10.7038 35.6495 10.7558 35.5482C10.8065 35.4482 10.9065 35.3615 11.0518 35.2882C11.1985 35.2148 11.3998 35.1948 11.6545 35.2268L11.8091 35.2468C11.9278 35.2615 12.0064 35.2962 12.0424 35.3482C12.0798 35.4002 12.0905 35.4815 12.0771 35.5922C12.0785 35.6028 12.0971 35.6095 12.1344 35.6148C12.1624 35.6175 12.1785 35.6148 12.1785 35.6055L12.3198 34.5001C12.3171 34.4908 12.3011 34.4828 12.2691 34.4788C12.2358 34.4748 12.2185 34.4775 12.2171 34.4868C12.2131 34.5242 12.2051 34.5588 12.1945 34.5922C12.1838 34.6242 12.1745 34.6522 12.1652 34.6735C12.1398 34.7188 12.1051 34.7495 12.0611 34.7628C12.0185 34.7788 11.9531 34.7802 11.8704 34.7695L11.6558 34.7428C11.5251 34.7268 11.3932 34.7335 11.2625 34.7655C11.1318 34.7988 11.0145 34.8562 10.9078 34.9361ZM10.5918 40.2855C10.4785 40.2828 10.3972 40.2482 10.3465 40.1815C10.2972 40.1148 10.2745 40.0282 10.2771 39.9215C10.2745 39.9068 10.2598 39.8988 10.2318 39.8988C10.2038 39.8975 10.1892 39.9028 10.1878 39.9148L10.1585 41.1095C10.1598 41.1215 10.1731 41.1295 10.2011 41.1295C10.2318 41.1308 10.2465 41.1242 10.2465 41.1122C10.2505 40.9802 10.2758 40.8895 10.3251 40.8388C10.3745 40.7868 10.4598 40.7628 10.5798 40.7668L12.4064 40.8122C12.5824 40.8175 12.7505 40.7801 12.9145 40.6988C13.0771 40.6175 13.2105 40.4882 13.3145 40.3095C13.4171 40.1322 13.4718 39.9068 13.4785 39.6375C13.4838 39.4335 13.4584 39.2535 13.4038 39.0962C13.3478 38.9402 13.2731 38.8122 13.1771 38.7135C13.0811 38.6148 12.9785 38.5415 12.8665 38.4935C12.8078 38.4695 12.7478 38.4495 12.6878 38.4361C12.6292 38.4242 12.5691 38.4175 12.5105 38.4148L12.4451 38.4135C12.3625 38.4122 12.2998 38.4028 12.2585 38.3895C12.2198 38.3722 12.1945 38.3455 12.1838 38.3108C12.1678 38.2708 12.1598 38.2122 12.1625 38.1362C12.1598 38.1268 12.1438 38.1215 12.1145 38.1202C12.0811 38.1188 12.0651 38.1241 12.0638 38.1348L12.0385 39.1588C12.0411 39.1695 12.0545 39.1735 12.0785 39.1748C12.1171 39.1762 12.1358 39.1695 12.1371 39.1575C12.1384 39.1002 12.1438 39.0535 12.1545 39.0175C12.1638 38.9828 12.1785 38.9562 12.1971 38.9388C12.2345 38.9055 12.3131 38.8908 12.4331 38.8948H12.4478C12.6945 38.9015 12.8824 38.9495 13.0091 39.0428C13.1371 39.1335 13.2171 39.2322 13.2505 39.3388C13.2838 39.4442 13.2998 39.5402 13.2971 39.6282C13.2945 39.7202 13.2745 39.8175 13.2331 39.9242C13.1931 40.0295 13.1051 40.1255 12.9704 40.2122C12.8344 40.2975 12.6371 40.3375 12.3771 40.3308L11.3371 40.3042L11.3625 39.2935C11.3665 39.1602 11.3891 39.0375 11.4331 38.9242C11.4758 38.8122 11.5278 38.7175 11.5918 38.6402C11.6558 38.5615 11.7132 38.5108 11.7652 38.4841L11.4424 37.9282C11.3824 37.9935 11.3384 38.0775 11.3091 38.1815C11.2798 38.2842 11.2625 38.3521 11.2558 38.3868C11.2425 38.4468 11.2345 38.5068 11.2331 38.5668C11.2331 38.5721 11.2278 38.6482 11.2158 38.7948C11.2132 38.8228 11.2118 38.8668 11.2105 38.9242L11.1745 40.3015L10.5918 40.2855ZM12.0865 50.2068L12.0051 50.2402L12.5091 51.5282L12.5905 51.4962L12.5531 51.3975C12.5038 51.2748 12.5011 51.1735 12.5411 51.0922C12.5705 51.0322 12.6785 50.9668 12.8638 50.8935L13.6238 50.5962L15.0572 50.8762C15.2412 50.9108 15.3758 50.9455 15.4625 50.9802C15.5492 51.0162 15.6238 51.0642 15.6852 51.1228C15.7465 51.1842 15.7864 51.2335 15.8011 51.2735L15.8238 51.3321L15.8652 51.3148C15.8652 51.3148 15.8651 51.3135 15.8638 51.3122L15.8132 51.2095L15.8625 51.1855L15.4932 50.2442L15.4118 50.2762C15.4411 50.3535 15.4558 50.4188 15.4531 50.4668C15.4505 50.5175 15.4358 50.5602 15.4105 50.5935C15.3851 50.6268 15.3531 50.6521 15.3145 50.6681C15.2451 50.6948 15.1238 50.6908 14.9505 50.6548L13.7865 50.4282L14.5145 49.4148C14.6171 49.2695 14.6971 49.1868 14.7505 49.1655C14.8171 49.1388 14.8785 49.1482 14.9331 49.1948C14.9878 49.2402 15.0291 49.2988 15.0558 49.3681L15.0825 49.4361L15.1652 49.4028L14.6585 48.1108L14.5758 48.1428C14.5971 48.1962 14.6065 48.2428 14.6051 48.2815C14.5945 48.4122 14.5785 48.5015 14.5558 48.5495C14.5265 48.6068 14.4598 48.7095 14.3558 48.8588L13.4132 50.1841L12.6958 50.4642C12.6132 50.4975 12.5425 50.5188 12.4825 50.5321C12.4238 50.5455 12.3798 50.5482 12.3505 50.5415C12.2531 50.5175 12.1785 50.4415 12.1292 50.3148L12.0865 50.2068ZM15.9064 51.2988L15.8652 51.3148C15.9238 51.4335 15.9385 51.5322 15.9078 51.6135C15.8851 51.6722 15.7812 51.7468 15.5958 51.8402L13.7091 52.7855C13.5678 52.8575 13.4691 52.8948 13.4145 52.9015C13.3585 52.9081 13.3105 52.8935 13.2665 52.8602C13.2025 52.8162 13.1545 52.7588 13.1185 52.6895L13.0678 52.5868L12.9878 52.6255L14.1105 54.8642L14.9638 54.7495L14.9212 54.6642C14.6945 54.6602 14.5145 54.6375 14.3852 54.5935C14.2798 54.5562 14.1985 54.5068 14.1385 54.4455C14.0811 54.3842 14.0105 54.2708 13.9292 54.1068L13.6825 53.6161C13.6412 53.5348 13.6238 53.4762 13.6251 53.4388C13.6278 53.4002 13.6398 53.3695 13.6598 53.3468C13.6812 53.3215 13.7571 53.2775 13.8865 53.2122L14.8424 52.7335L15.1611 53.3695C15.2211 53.4908 15.2518 53.5868 15.2531 53.6602C15.2545 53.7335 15.2358 53.7962 15.1985 53.8468C15.1705 53.8855 15.0891 53.9508 14.9558 54.0428L14.9958 54.1215L16.0078 53.6148L15.9691 53.5348C15.8878 53.5761 15.8131 53.6002 15.7438 53.6068C15.6745 53.6135 15.6132 53.6068 15.5598 53.5855C15.4825 53.5548 15.4025 53.4562 15.3198 53.2908L14.9998 52.6548L16.1492 52.0788L16.5478 52.8735C16.6211 53.0188 16.6598 53.1255 16.6665 53.1922C16.6705 53.2802 16.6531 53.3561 16.6171 53.4175C16.5811 53.4815 16.4918 53.5668 16.3518 53.6748L16.3932 53.7588L17.0132 53.4082L15.8918 51.1708L15.8625 51.1855L15.9064 51.2988ZM14.4598 55.2122L14.3865 55.2588L15.1318 56.4295L15.2064 56.3828L15.1385 56.2762C15.0731 56.1735 15.0545 56.0788 15.0811 55.9895C15.0985 55.9242 15.1931 55.8388 15.3665 55.7282L16.1638 55.2201C16.1758 55.2388 16.1852 55.2522 16.1905 55.2602L16.2038 55.2828L16.2398 55.3388L16.3478 55.5068L15.6558 57.2535L16.1212 57.9841L16.1958 57.9375C16.1185 57.7735 16.0785 57.6295 16.0798 57.5028C16.0798 57.3695 16.1305 57.1828 16.2292 56.9402L16.6518 55.8722C16.8532 56.0708 17.0491 56.1868 17.2411 56.2161C17.4345 56.2481 17.6145 56.2095 17.7825 56.1028C17.9412 56.0028 18.0465 55.8668 18.0985 55.6975C18.1518 55.5295 18.1558 55.3628 18.1105 55.2001C18.0665 55.0375 17.9491 54.8082 17.7611 54.5135L17.1251 53.5148L17.0505 53.5615L17.1158 53.6655C17.1825 53.7681 17.2024 53.8655 17.1758 53.9548C17.1584 54.0188 17.0638 54.1068 16.8905 54.2161L15.1212 55.3428C14.9625 55.4442 14.8558 55.4935 14.7971 55.4908C14.6905 55.4882 14.5998 55.4295 14.5265 55.3148L14.4598 55.2122ZM16.2918 55.1388L17.4318 54.4122C17.5412 54.5295 17.6224 54.6268 17.6731 54.7068C17.7864 54.8855 17.8238 55.0615 17.7838 55.2375C17.7438 55.4135 17.6385 55.5548 17.4691 55.6628C17.2945 55.7735 17.1078 55.7988 16.9091 55.7375C16.7091 55.6762 16.5265 55.5162 16.3611 55.2548L16.3305 55.2082L16.2918 55.1388ZM16.2665 57.9455L16.1998 58.0028L17.8305 59.9028L18.6305 59.5855L18.5678 59.5122C18.3478 59.5628 18.1678 59.5842 18.0305 59.5735C17.9198 59.5628 17.8292 59.5348 17.7572 59.4895C17.6852 59.4442 17.5904 59.3522 17.4704 59.2122L17.1118 58.7948C17.0531 58.7282 17.0211 58.6748 17.0145 58.6375C17.0078 58.6002 17.0118 58.5682 17.0265 58.5402C17.0412 58.5108 17.1025 58.4495 17.2132 58.3548L18.0238 57.6588L18.4891 58.1988C18.5758 58.3015 18.6278 58.3868 18.6478 58.4575C18.6665 58.5295 18.6638 58.5935 18.6398 58.6508C18.6211 58.6975 18.5585 58.7815 18.4518 58.9015L18.5091 58.9695L19.3691 58.2308L19.3118 58.1642C19.2424 58.2228 19.1758 58.2642 19.1105 58.2868C19.0451 58.3108 18.9838 58.3188 18.9265 58.3108C18.8438 58.3002 18.7425 58.2241 18.6225 58.0841L18.1585 57.5442L19.1331 56.7068L19.7132 57.3815C19.8185 57.5055 19.8838 57.5975 19.9064 57.6615C19.9304 57.7468 19.9318 57.8242 19.9118 57.8922C19.8931 57.9628 19.8278 58.0668 19.7171 58.2068L19.7771 58.2775L20.2945 57.7868L18.6638 55.8882L18.5971 55.9455L18.6718 56.0335C18.7585 56.1335 18.7971 56.2282 18.7865 56.3135C18.7785 56.3762 18.6958 56.4735 18.5385 56.6095L16.9371 57.9841C16.8171 58.0881 16.7318 58.1481 16.6798 58.1681C16.6278 58.1868 16.5771 58.1855 16.5251 58.1642C16.4531 58.1362 16.3931 58.0935 16.3411 58.0335L16.2665 57.9455ZM20.3558 58.6428L19.2971 61.5055L19.3611 61.5668L22.0918 60.3562C22.2531 60.2828 22.3905 60.2495 22.5025 60.2521C22.5825 60.2548 22.6704 60.2868 22.7678 60.3535L22.8292 60.2882L22.1051 59.5962L22.0438 59.6602L22.0678 59.6935C22.1371 59.7868 22.1731 59.8628 22.1771 59.9228C22.1798 59.9842 22.1651 60.0322 22.1344 60.0642C22.0851 60.1162 21.9692 60.1828 21.7852 60.2655L19.9305 61.0948L20.6505 59.1455C20.7145 58.9748 20.7745 58.8588 20.8305 58.8001C20.8705 58.7588 20.9198 58.7402 20.9784 58.7455C21.0371 58.7508 21.1238 58.7988 21.2411 58.8922L21.3025 58.8282L20.3438 57.9095L20.2838 57.9735C20.3505 58.0508 20.3945 58.1175 20.4145 58.1762C20.4278 58.2082 20.4358 58.2388 20.4411 58.2695C20.4465 58.2988 20.4464 58.3308 20.4424 58.3615C20.4371 58.4028 20.4078 58.4962 20.3558 58.6428ZM20.2185 62.2335L20.1652 62.3042L20.9771 62.9255L21.0318 62.8562C20.9705 62.8095 20.9238 62.7655 20.8918 62.7268C20.8611 62.6855 20.8398 62.6482 20.8318 62.6135C20.8185 62.5535 20.8265 62.5041 20.8558 62.4655C20.8931 62.4175 20.9718 62.3602 21.0945 62.2935L21.5745 62.0175L22.5771 62.7855L22.4545 63.2735C22.4105 63.4308 22.3665 63.5388 22.3238 63.5948C22.2918 63.6375 22.2465 63.6588 22.1865 63.6602C22.1545 63.6602 22.1171 63.6521 22.0771 63.6348C22.0358 63.6188 21.9904 63.5908 21.9398 63.5521L21.8865 63.6228L22.9038 64.4015L22.9585 64.3321C22.9078 64.2921 22.8664 64.2495 22.8371 64.2028C22.8078 64.1561 22.7878 64.1082 22.7758 64.0562C22.7571 63.9602 22.7785 63.7975 22.8385 63.5695L23.5825 60.7375L23.5158 60.6868L20.9838 62.1135C20.7585 62.2402 20.5918 62.3095 20.4852 62.3202C20.4278 62.3242 20.3398 62.2948 20.2185 62.2335ZM21.7411 61.9228L22.9932 61.2242L22.6305 62.6042L21.7411 61.9228ZM23.0558 64.4748L23.0118 64.5508L23.9932 65.1175L24.0385 65.0415L23.9385 64.9828C23.8278 64.9201 23.7638 64.8442 23.7451 64.7562C23.7331 64.6908 23.7771 64.5708 23.8758 64.3988L24.8745 62.6695L25.4238 66.0055L25.4958 66.0468L26.8665 63.6748C26.9105 63.5975 26.9518 63.5362 26.9905 63.4882C27.0278 63.4415 27.0598 63.4121 27.0865 63.3988C27.1785 63.3561 27.2851 63.3695 27.4025 63.4375L27.5025 63.4948L27.5465 63.4188L26.5652 62.8521L26.5212 62.9282L26.6185 62.9841C26.7305 63.0495 26.7944 63.1255 26.8118 63.2122C26.8265 63.2775 26.7825 63.3961 26.6825 63.5695L25.7465 65.1908L25.2424 62.0908L24.4838 61.6495L24.4385 61.7268C24.5211 61.7735 24.5771 61.8148 24.6105 61.8495C24.6771 61.9268 24.7238 61.9935 24.7478 62.0482C24.7745 62.1015 24.7985 62.1988 24.8225 62.3375L23.6932 64.2948C23.6478 64.3708 23.6064 64.4348 23.5678 64.4802C23.5304 64.5282 23.4985 64.5575 23.4718 64.5708C23.3811 64.6135 23.2745 64.6002 23.1545 64.5308L23.0558 64.4748ZM27.7665 66.0042L27.3531 67.0375L27.4344 67.0695C27.4731 67.0055 27.5065 66.9668 27.5358 66.9535C27.5705 66.9415 27.6038 66.9428 27.6385 66.9562C27.6758 66.9708 27.7585 67.0321 27.8852 67.1361C28.0118 67.2415 28.0971 67.3055 28.1398 67.3295C28.2131 67.3735 28.2931 67.4135 28.3784 67.4482C28.6571 67.5602 28.9185 67.5668 29.1625 67.4722C29.4065 67.3762 29.5731 67.2162 29.6638 66.9895C29.7118 66.8695 29.7292 66.7442 29.7158 66.6108C29.7038 66.4775 29.6611 66.3495 29.5918 66.2282C29.5211 66.1082 29.3772 65.9161 29.1572 65.6521C28.8838 65.3268 28.7251 65.0908 28.6798 64.9455C28.6478 64.8428 28.6492 64.7468 28.6852 64.6562C28.7332 64.5362 28.8265 64.4495 28.9652 64.3948C29.1038 64.3415 29.2491 64.3455 29.4025 64.4068C29.5398 64.4615 29.6572 64.5495 29.7572 64.6722C29.8572 64.7935 29.9171 64.9255 29.9371 65.0695C29.9478 65.1441 29.9491 65.2255 29.9424 65.3161C29.9344 65.4041 29.9172 65.5002 29.8905 65.6055L29.9731 65.6375L30.3891 64.5962L30.3078 64.5628C30.2638 64.6282 30.2251 64.6668 30.1918 64.6802C30.1571 64.6922 30.1211 64.6908 30.0838 64.6748C30.0678 64.6695 30.0452 64.6535 30.0185 64.6308C29.9905 64.6068 29.9611 64.5801 29.9305 64.5495C29.7865 64.4001 29.6318 64.2922 29.4691 64.2282C29.2118 64.1242 28.9704 64.1188 28.7398 64.2095C28.5118 64.3002 28.3544 64.4521 28.2678 64.6681C28.2184 64.7921 28.2012 64.9175 28.2158 65.0428C28.2305 65.1708 28.2745 65.2975 28.3492 65.4268C28.3878 65.4948 28.4411 65.5762 28.5118 65.6722C28.5838 65.7682 28.6665 65.8748 28.7611 65.9948C28.9638 66.2455 29.0838 66.4028 29.1212 66.4668C29.1825 66.5681 29.2171 66.6655 29.2278 66.7562C29.2371 66.8495 29.2278 66.9308 29.1985 67.0028C29.1452 67.1348 29.0451 67.2281 28.8971 67.2828C28.7478 67.3388 28.5824 67.3295 28.4011 67.2562C28.2384 67.1908 28.1051 67.0975 27.9998 66.9735C27.8945 66.8495 27.8318 66.7201 27.8105 66.5868C27.7985 66.5175 27.7958 66.4375 27.8025 66.3455C27.8105 66.2548 27.8252 66.1508 27.8492 66.0361L27.7665 66.0042ZM30.3985 68.0321L30.3691 68.1161L31.6771 68.5535L31.7051 68.4695L31.5985 68.4335C31.4798 68.3948 31.4012 68.3335 31.3652 68.2508C31.3398 68.1881 31.3598 68.0628 31.4225 67.8748L32.2091 65.5242L32.6438 65.6695C32.7678 65.7108 32.8638 65.7655 32.9292 65.8348C32.9958 65.9041 33.0372 65.9895 33.0545 66.0895C33.0665 66.1548 33.0585 66.2521 33.0318 66.3841L33.1185 66.4135L33.3251 65.6802L30.8091 64.8375L30.5318 65.5468L30.6171 65.5762C30.6785 65.4388 30.7491 65.3402 30.8278 65.2802C30.9145 65.2162 30.9998 65.1841 31.0852 65.1828C31.1492 65.1815 31.2558 65.2042 31.4025 65.2535L31.7718 65.3775L30.9852 67.7282C30.9572 67.8135 30.9291 67.8828 30.9011 67.9361C30.8731 67.9895 30.8478 68.0255 30.8238 68.0428C30.7425 68.1042 30.6358 68.1121 30.5064 68.0681L30.3985 68.0321ZM32.1424 68.5681L32.1225 68.6535L33.1185 68.8868L33.1385 68.8001C33.0638 68.7828 33.0038 68.7615 32.9585 68.7388C32.9131 68.7148 32.8785 68.6895 32.8558 68.6602C32.8198 68.6122 32.8078 68.5628 32.8185 68.5161C32.8318 68.4575 32.8798 68.3722 32.9638 68.2602L33.2878 67.8122L34.5185 68.0988L34.6064 68.5935C34.6318 68.7548 34.6372 68.8708 34.6212 68.9402C34.6092 68.9908 34.5758 69.0308 34.5225 69.0562C34.4931 69.0695 34.4558 69.0788 34.4118 69.0788C34.3691 69.0802 34.3158 69.0735 34.2531 69.0588L34.2331 69.1455L35.4825 69.4361L35.5025 69.3495C35.4398 69.3361 35.3851 69.3121 35.3385 69.2828C35.2931 69.2521 35.2545 69.2162 35.2225 69.1735C35.1665 69.0935 35.1184 68.9375 35.0784 68.7055L34.5891 65.8175L34.5078 65.7988L32.7891 68.1428C32.6358 68.3508 32.5131 68.4815 32.4198 68.5361C32.3691 68.5628 32.2771 68.5735 32.1424 68.5681ZM33.4011 67.6575L34.2531 66.5042L34.4918 67.9108L33.4011 67.6575ZM35.4611 66.8348L35.5518 66.8455C35.5838 66.7002 35.6332 66.5895 35.6985 66.5135C35.7705 66.4335 35.8478 66.3855 35.9305 66.3668C35.9931 66.3521 36.1025 66.3548 36.2558 66.3722L36.6438 66.4202L36.3438 68.8802C36.3331 68.9708 36.3198 69.0441 36.3025 69.1015C36.2865 69.1601 36.2678 69.2002 36.2492 69.2228C36.1798 69.2975 36.0785 69.3268 35.9438 69.3095L35.8292 69.2962L35.8185 69.3841L37.1865 69.5508L37.1971 69.4628L37.0865 69.4495C36.9611 69.4335 36.8732 69.3895 36.8212 69.3148C36.7838 69.2602 36.7784 69.1335 36.8011 68.9361L37.1011 66.4762L37.5558 66.5308C37.6851 66.5468 37.7904 66.5828 37.8678 66.6361C37.9478 66.6908 38.0051 66.7655 38.0411 66.8615C38.0665 66.9228 38.0784 67.0188 38.0784 67.1535L38.1691 67.1642L38.2251 66.4042L35.5918 66.0841L35.4611 66.8348ZM38.3398 69.5268L38.3371 69.6161L40.8398 69.6922L41.1451 68.8868L41.0492 68.8841C40.9385 69.0815 40.8318 69.2282 40.7318 69.3228C40.6492 69.3975 40.5678 69.4455 40.4852 69.4681C40.4038 69.4908 40.2705 69.4988 40.0878 69.4922L39.5371 69.4762C39.4478 69.4735 39.3878 69.4615 39.3558 69.4415C39.3238 69.4215 39.3025 69.3961 39.2905 69.3668C39.2798 69.3361 39.2771 69.2495 39.2811 69.1042L39.3145 68.0348L40.0251 68.0575C40.1598 68.0615 40.2585 68.0815 40.3238 68.1148C40.3892 68.1482 40.4358 68.1948 40.4625 68.2508C40.4825 68.2948 40.5025 68.3975 40.5198 68.5588L40.6078 68.5615L40.6424 67.4282L40.5545 67.4255C40.5518 67.5162 40.5371 67.5935 40.5105 67.6575C40.4838 67.7215 40.4478 67.7722 40.4038 67.8095C40.3398 67.8628 40.2158 67.8868 40.0305 67.8815L39.3198 67.8588L39.3585 66.5748L40.2478 66.6015C40.4105 66.6068 40.5225 66.6228 40.5838 66.6482C40.6638 66.6868 40.7225 66.7375 40.7585 66.8001C40.7985 66.8615 40.8318 66.9802 40.8598 67.1548L40.9531 67.1575L40.9398 66.4455L38.4371 66.3695L38.4344 66.4575L38.5505 66.4602C38.6838 66.4655 38.7771 66.5001 38.8358 66.5655C38.8758 66.6135 38.8918 66.7402 38.8865 66.9482L38.8212 69.0575C38.8158 69.2162 38.8025 69.3202 38.7825 69.3708C38.7612 69.4228 38.7264 69.4588 38.6758 69.4815C38.6078 69.5175 38.5345 69.5335 38.4558 69.5308L38.3398 69.5268ZM43.4838 66.1442L42.0905 66.3122L42.1011 66.4001L42.2225 66.3855C42.3465 66.3708 42.4385 66.3908 42.4998 66.4455C42.5611 66.5015 42.6038 66.6282 42.6278 66.8268L42.7825 68.0882C42.8292 68.4748 42.8865 68.7362 42.9545 68.8735C43.0598 69.0708 43.2078 69.2188 43.4038 69.3188C43.5984 69.4188 43.8732 69.4468 44.2265 69.4028C44.5492 69.3641 44.7985 69.2681 44.9718 69.1161C45.1438 68.9641 45.2531 68.7962 45.2945 68.6135C45.3371 68.4295 45.3371 68.1748 45.2971 67.8495L45.1385 66.5402C45.1158 66.3602 45.1185 66.2428 45.1465 66.1922C45.2011 66.0762 45.2918 66.0122 45.4185 65.9962L45.5398 65.9815L45.5292 65.8948L44.3891 66.0335L44.3998 66.1202L44.5212 66.1068C44.6425 66.0908 44.7398 66.1148 44.8091 66.1775C44.8598 66.2228 44.8971 66.3455 44.9225 66.5482L45.0798 67.8535C45.1225 68.1975 45.1211 68.4455 45.0771 68.5975C45.0331 68.7495 44.9331 68.8802 44.7785 68.9908C44.6224 69.1015 44.4398 69.1708 44.2305 69.1962C44.1505 69.2055 44.0731 69.2068 43.9998 69.2001C43.9265 69.1921 43.8598 69.1788 43.8025 69.1588C43.6798 69.1135 43.5838 69.0495 43.5145 68.9695C43.4438 68.8868 43.3864 68.7655 43.3424 68.6042C43.3184 68.5175 43.3025 68.4428 43.2891 68.3762C43.2758 68.3108 43.2652 68.2428 43.2572 68.1762L43.0865 66.7708C43.0638 66.5922 43.0691 66.4722 43.1025 66.4068C43.1465 66.3162 43.2358 66.2615 43.3718 66.2455L43.4945 66.2308L43.4838 66.1442ZM45.5292 65.8948L45.5305 65.8975C45.6211 65.8722 45.6905 65.8615 45.7385 65.8615C45.8411 65.8682 45.9198 65.8815 45.9758 65.9015C46.0331 65.9215 46.1185 65.9708 46.2358 66.0508L46.8451 68.2268C46.8704 68.3108 46.8851 68.3855 46.8918 68.4455C46.8998 68.5055 46.8985 68.5495 46.8891 68.5775C46.8558 68.6722 46.7718 68.7388 46.6385 68.7762L46.5305 68.8082L46.5545 68.8922L47.6451 68.5868L47.6212 68.5015L47.5105 68.5321C47.3878 68.5668 47.2891 68.5602 47.2118 68.5108C47.1571 68.4748 47.1025 68.3601 47.0492 68.1695L46.5091 66.2455L49.2784 68.1841L49.3598 68.1615L48.6212 65.5242C48.5972 65.4388 48.5811 65.3655 48.5745 65.3042C48.5665 65.2442 48.5678 65.2002 48.5771 65.1722C48.6118 65.0775 48.6945 65.0108 48.8251 64.9748L48.9358 64.9428L48.9118 64.8575L47.8212 65.1642L47.8451 65.2495L47.9545 65.2188C48.0785 65.1828 48.1785 65.1908 48.2518 65.2388C48.3092 65.2748 48.3638 65.3895 48.4171 65.5815L48.9225 67.3841L46.3531 65.5788L45.5064 65.8122L45.5292 65.8948ZM49.3492 64.6975C49.4198 64.6682 49.4945 64.6588 49.5745 64.6681C49.6331 64.6775 49.6771 64.6975 49.7051 64.7282C49.7425 64.7695 49.7932 64.8668 49.8545 65.0188L50.6278 66.9695C50.6998 67.1508 50.7278 67.2721 50.7105 67.3335C50.6811 67.4295 50.6051 67.5015 50.4811 67.5508L50.3745 67.5935L50.4064 67.6748L51.7011 67.1615L51.6691 67.0788L51.5598 67.1228C51.4878 67.1522 51.4131 67.1615 51.3371 67.1495C51.2758 67.1401 51.2331 67.1202 51.2051 67.0908C51.1665 67.0495 51.1171 66.9521 51.0558 66.7988L50.2825 64.8482C50.2105 64.6695 50.1838 64.5481 50.2025 64.4841C50.2305 64.3881 50.3051 64.3161 50.4278 64.2681L50.4305 64.2668L50.3985 64.2028L50.5064 64.1482L50.5038 64.1428L49.2091 64.6562L49.2411 64.7388L49.3492 64.6975ZM50.5358 64.2255L50.4305 64.2668L50.4385 64.2815C50.5345 64.2455 50.6118 64.2268 50.6731 64.2268C50.7078 64.2242 50.7398 64.2268 50.7691 64.2321C50.7998 64.2375 50.8292 64.2482 50.8572 64.2615C50.8945 64.2802 50.9732 64.3388 51.0932 64.4375L53.4358 66.3962L53.5145 66.3562L53.2891 63.3775C53.2745 63.2002 53.2891 63.0602 53.3305 62.9548C53.3585 62.8815 53.4198 62.8095 53.5131 62.7402L53.5078 62.7282L53.4478 62.7708L53.3971 62.7001L52.5784 63.1095L52.6185 63.1895L52.6585 63.1775C52.7678 63.1442 52.8518 63.1361 52.9105 63.1521C52.9691 63.1695 53.0092 63.1988 53.0292 63.2402C53.0612 63.3028 53.0851 63.4335 53.1011 63.6348L53.2598 65.6615L51.6652 64.3295C51.5265 64.2108 51.4371 64.1162 51.4011 64.0428C51.3758 63.9922 51.3745 63.9401 51.3985 63.8855C51.4238 63.8335 51.4985 63.7668 51.6251 63.6868L51.5852 63.6082L50.5064 64.1482L50.5358 64.2255ZM53.4745 62.6615L53.5078 62.7282L53.5411 62.7028C53.6505 62.6268 53.7465 62.5975 53.8318 62.6148C53.8932 62.6282 53.9824 62.7202 54.1038 62.8895L55.3251 64.6108C55.4171 64.7388 55.4705 64.8308 55.4838 64.8841C55.4985 64.9375 55.4918 64.9881 55.4652 65.0361C55.4318 65.1055 55.3825 65.1628 55.3198 65.2082L55.2251 65.2748L55.2771 65.3468L57.3185 63.8962L57.0745 63.0708L56.9971 63.1268C57.0278 63.3522 57.0318 63.5321 57.0091 63.6681C56.9878 63.7775 56.9518 63.8655 56.8998 63.9321C56.8478 64.0001 56.7465 64.0868 56.5985 64.1922L56.1492 64.5108C56.0758 64.5628 56.0212 64.5895 55.9825 64.5935C55.9452 64.5962 55.9131 64.5895 55.8865 64.5722C55.8585 64.5562 55.8038 64.4881 55.7198 64.3695L55.1011 63.4975L55.6811 63.0855C55.7905 63.0068 55.8825 62.9628 55.9545 62.9508C56.0265 62.9388 56.0905 62.9482 56.1465 62.9762C56.1891 62.9988 56.2678 63.0682 56.3784 63.1868L56.4505 63.1348L55.7945 62.2108L55.7225 62.2628C55.7745 62.3362 55.8092 62.4068 55.8265 62.4735C55.8438 62.5415 55.8465 62.6028 55.8331 62.6588C55.8145 62.7402 55.7305 62.8348 55.5798 62.9415L54.9985 63.3535L54.2545 62.3055L54.9798 61.7908C55.1131 61.6962 55.2118 61.6415 55.2758 61.6242C55.3638 61.6082 55.4411 61.6135 55.5064 61.6402C55.5758 61.6655 55.6745 61.7402 55.8025 61.8628L55.8784 61.8095L55.4385 61.2495L53.3958 62.6988L53.3971 62.7001L53.4745 62.6615ZM57.7572 63.4882L57.6638 63.5668L57.7212 63.6348L58.7798 62.7375L58.7225 62.6708L58.6265 62.7521C58.5345 62.8308 58.4411 62.8628 58.3505 62.8468C58.2838 62.8388 58.1851 62.7561 58.0531 62.5988L57.4411 61.8788C57.4585 61.8642 57.4704 61.8535 57.4784 61.8468L57.4985 61.8308L57.5492 61.7868L57.7011 61.6588L59.5251 62.1068L60.1865 61.5468L60.1292 61.4788C59.9772 61.5775 59.8398 61.6362 59.7145 61.6535C59.5838 61.6708 59.3904 61.6468 59.1371 61.5815L58.0212 61.3068C58.1918 61.0802 58.2785 60.8708 58.2825 60.6748C58.2878 60.4802 58.2251 60.3068 58.0971 60.1548C57.9758 60.0122 57.8278 59.9268 57.6531 59.8962C57.4785 59.8668 57.3131 59.8855 57.1585 59.9521C57.0025 60.0188 56.7918 60.1655 56.5251 60.3922L55.6212 61.1575L55.6784 61.2242L55.7718 61.1455C55.8651 61.0655 55.9585 61.0335 56.0518 61.0468C56.1172 61.0562 56.2158 61.1388 56.3492 61.2948L57.7051 62.8948C57.8265 63.0375 57.8891 63.1388 57.8945 63.1975C57.9078 63.3028 57.8612 63.4002 57.7572 63.4882ZM57.4064 61.7148L57.3438 61.7628L56.4704 60.7321C56.5704 60.6081 56.6558 60.5135 56.7278 60.4521C56.8891 60.3161 57.0598 60.2562 57.2385 60.2708C57.4185 60.2868 57.5731 60.3708 57.7025 60.5255C57.8371 60.6828 57.8878 60.8655 57.8531 61.0708C57.8198 61.2762 57.6852 61.4788 57.4492 61.6788L57.4064 61.7148ZM59.6265 60.6015L60.4318 61.3708L60.4918 61.3082C60.4465 61.2482 60.4238 61.2015 60.4212 61.1708C60.4238 61.1335 60.4372 61.1028 60.4625 61.0762C60.4892 61.0468 60.5758 60.9935 60.7212 60.9148C60.8665 60.8362 60.9572 60.7815 60.9958 60.7508C61.0638 60.7001 61.1318 60.6402 61.1945 60.5735C61.4025 60.3575 61.5065 60.1175 61.5105 59.8562C61.5118 59.5935 61.4265 59.3788 61.2505 59.2108C61.1571 59.1215 61.0465 59.0575 60.9185 59.0202C60.7892 58.9815 60.6558 58.9735 60.5185 58.9922C60.3798 59.0122 60.1478 59.0748 59.8212 59.1802C59.4172 59.3108 59.1385 59.3708 58.9865 59.3588C58.8785 59.3508 58.7905 59.3135 58.7198 59.2468C58.6265 59.1562 58.5812 59.0375 58.5825 58.8895C58.5852 58.7402 58.6425 58.6068 58.7572 58.4868C58.8598 58.3802 58.9851 58.3042 59.1358 58.2575C59.2851 58.2108 59.4305 58.2028 59.5718 58.2388C59.6451 58.2575 59.7211 58.2855 59.8011 58.3268C59.8798 58.3668 59.9638 58.4202 60.0505 58.4815L60.1118 58.4188L59.3011 57.6428L59.2398 57.7055C59.2851 57.7722 59.3051 57.8215 59.3051 57.8575C59.3025 57.8948 59.2891 57.9268 59.2611 57.9562C59.2491 57.9682 59.2265 57.9828 59.1945 58.0001C59.1625 58.0175 59.1278 58.0335 59.0865 58.0495C58.8945 58.1295 58.7372 58.2322 58.6158 58.3588C58.4238 58.5588 58.3278 58.7815 58.3265 59.0282C58.3252 59.2735 58.4078 59.4775 58.5745 59.6361C58.6718 59.7295 58.7811 59.7922 58.9038 59.8255C59.0278 59.8602 59.1624 59.8668 59.3091 59.8455C59.3864 59.8362 59.4825 59.8148 59.5985 59.7855C59.7132 59.7561 59.8438 59.7188 59.9905 59.6762C60.2985 59.5815 60.4892 59.5295 60.5625 59.5175C60.6798 59.4988 60.7824 59.5028 60.8704 59.5282C60.9598 59.5535 61.0318 59.5922 61.0891 59.6468C61.1918 59.7455 61.2398 59.8722 61.2358 60.0308C61.2318 60.1895 61.1611 60.3388 61.0251 60.4815C60.9051 60.6082 60.7678 60.6962 60.6131 60.7468C60.4585 60.7988 60.3145 60.8095 60.1838 60.7788C60.1158 60.7655 60.0398 60.7362 59.9572 60.6962C59.8758 60.6548 59.7865 60.6015 59.6878 60.5375L59.6265 60.6015ZM65.1891 40.0335C65.1891 26.1201 53.9105 14.8415 39.9971 14.8415C26.0851 14.8415 14.8064 26.1201 14.8064 40.0335C14.8064 53.9455 26.0851 65.2242 39.9971 65.2242C53.9105 65.2242 65.1891 53.9455 65.1891 40.0335ZM64.6932 40.0335C64.6932 53.6721 53.6358 64.7282 39.9971 64.7282C26.3585 64.7282 15.3025 53.6721 15.3025 40.0335C15.3025 26.3948 26.3585 15.3375 39.9971 15.3375C53.6358 15.3375 64.6932 26.3948 64.6932 40.0335ZM52.8945 27.9748L59.2411 30.5375L53.5105 26.7202L50.5465 25.9895L48.9278 24.3735L45.8865 23.7015L44.7158 24.9908L45.9371 24.4775L48.6758 26.9908L51.0798 27.5068L52.9198 28.9442L52.8945 27.9748ZM38.6145 29.1948L45.1438 24.6788L45.9371 23.7028L37.9598 28.3668L33.4572 25.8562L29.0945 29.1948L32.8784 27.2415L34.2118 28.3748L34.3251 27.7442L38.6145 29.1948ZM29.3158 19.3095C27.5985 20.1962 26.0131 21.2922 24.5771 22.5602C24.4451 23.7975 24.3438 25.6068 24.5811 27.3988C25.0638 31.0615 25.2531 32.3708 23.8118 35.1988C22.0758 38.6028 20.7731 40.8375 22.4064 43.6562H22.9331C22.9331 43.6562 21.7464 41.7295 22.5678 39.2988C23.3878 36.8668 27.2465 34.2828 27.7158 30.2988C28.1425 26.6668 26.3705 24.0495 29.3158 19.3095ZM24.2292 31.2948C24.2118 28.7242 23.4665 25.8988 23.7171 23.3415C22.5451 24.4855 21.4891 25.7468 20.5785 27.1148C20.8264 28.2308 21.1438 29.5908 21.4171 30.5628C22.0038 32.6428 21.9158 35.4548 21.2118 37.2415C20.5091 39.0282 19.4251 41.2828 21.2118 43.6562H22.0318C22.0318 43.6562 20.8904 42.3388 21.2704 40.2868C21.8011 37.4322 24.2518 34.4655 24.2292 31.2948ZM21.2118 33.6975C21.2118 31.9895 20.5798 29.7188 20.0185 28.0362C19.0572 29.6322 18.2638 31.3388 17.7038 33.1521C18.4718 34.0295 19.3078 35.3908 19.3078 37.1748C19.3078 39.0802 19.1251 38.9255 19.1251 40.4628C19.1251 42.4508 20.0732 43.4095 20.3625 43.6562H20.8091C20.8091 43.6562 19.7424 42.8935 19.8424 40.4055C19.9304 38.2375 21.2118 37.8708 21.2118 33.6975ZM25.8625 44.6922H17.4411V46.2935H25.8625V44.6922ZM18.2518 47.3282H18.1731C18.7411 48.6642 19.8398 49.2868 19.8398 49.2868H19.9171H23.4465H23.5238C23.5238 49.2868 24.6225 48.6642 25.1905 47.3282H25.1118H18.2518ZM22.5118 50.3122H20.8278V53.3161C21.3451 54.0628 21.9131 54.7682 22.5118 55.4482V50.3122ZM23.1704 56.1628C25.3544 58.4415 27.9851 60.2895 30.9385 61.5348C31.6585 61.2695 32.6571 60.9455 33.8171 60.6962C38.3718 59.7135 39.7011 62.1388 39.7011 62.1388C39.7011 62.1388 39.7011 61.6322 39.7011 58.3642C39.7011 55.0975 36.2278 55.1602 36.2278 55.1602C33.6905 55.1602 33.6585 55.8588 29.6305 56.2708C27.3798 56.5015 24.9184 56.3455 23.1704 56.1628ZM36.1078 57.6681L36.1171 57.5388L36.1344 57.4175L36.1652 57.3028L36.2078 57.1962L36.2611 57.0935L36.3238 57.0001L36.3985 56.9122L36.4865 56.8321L36.5838 56.7588L36.6932 56.6988L36.8131 56.6455L36.9451 56.6042L37.0891 56.5722L37.2451 56.5482L37.4118 56.5375L37.5905 56.5361L37.8011 56.5388L37.9545 56.6855L38.0784 56.8321L38.1704 56.9775L38.2305 57.1255L38.2704 57.2735L38.2971 57.4215L38.3118 57.5668L38.3158 57.7122L38.3038 57.9202L38.2745 58.1242L38.2292 58.3215L38.1665 58.5161L38.0932 58.6922L38.0105 58.8562L37.9292 58.9802L37.8212 59.1188L37.7091 59.2415L37.5572 59.3868L37.1331 59.7535L36.3038 59.9242L36.5838 59.6415L36.8305 59.3535L37.0411 59.0602L37.2158 58.7628L37.0331 58.7442L36.8478 58.6935L36.6611 58.6122L36.4758 58.4988L36.3865 58.4308L36.3118 58.3521L36.2465 58.2628L36.1945 58.1615L36.1558 58.0535L36.1278 57.9348L36.1118 57.8055L36.1078 57.6681ZM34.9718 57.5681L34.6358 57.7388L34.4038 57.8455L34.5185 57.1895L35.0625 56.9828L35.5198 56.7935L36.0572 56.5815L36.0492 56.6455L35.9545 57.0775L35.8185 57.7482L35.7145 58.3015L35.7051 58.3855L35.6958 58.4548L35.6891 58.5135L35.6652 58.7082L35.6492 58.7975L35.6238 58.8748L35.5932 59.0468L35.5198 59.2295L35.4905 59.3015L35.4531 59.3615L35.4064 59.4095L35.3518 59.4455L35.2611 59.4775L35.1064 59.5055L34.6064 59.5615L34.6545 59.4695L34.6945 59.3562L34.7385 59.1748L34.7531 59.0602L34.8518 58.4215L34.9531 57.7282L34.9718 57.5681ZM36.9731 57.4975L36.9598 57.6268L36.9652 57.7361L36.9825 57.8428L37.0118 57.9468L37.0545 58.0482L37.1078 58.1455L37.1758 58.2402L37.2545 58.3321L37.3478 58.4202L37.4158 58.1428L37.4398 57.9242L37.4371 57.7975L37.4238 57.6748L37.4011 57.5615L37.3652 57.4508L37.3212 57.3482L37.2665 57.2521L37.2011 57.1615L37.1251 57.0788L37.0558 57.2228L36.9998 57.3615L36.9731 57.4975ZM32.3518 62.0535C32.9798 62.2708 33.6211 62.4588 34.2718 62.6228C37.5465 61.1588 39.3651 62.7775 39.7011 63.1282V62.6828C37.8131 60.3841 34.4412 61.2148 32.3518 62.0535ZM36.2091 63.0268C37.2611 63.1988 38.3332 63.3055 39.4265 63.3321C38.8292 62.8375 37.8131 62.4682 36.2091 63.0268ZM38.9131 46.9522H41.6958V54.3828C42.3105 54.0761 42.9131 53.9241 43.3344 53.8508V46.9522H46.1171V54.0455C46.6478 54.1615 47.1811 54.3015 47.7558 54.4428V46.9522H50.5385V54.9588C51.2465 55.0402 52.0331 55.0908 52.9371 55.0908C54.2691 55.0908 55.3652 55.0095 56.3292 54.8841L56.3278 38.0695H51.7438V34.5708L40.8545 31.8455H40.3518H39.8492L28.9598 34.4922V38.0681H24.3492V43.6775H26.9025V47.8521H26.2251C25.4025 49.0988 24.3758 49.7042 24.3492 49.7202V50.7815V54.9482C25.1798 55.0362 26.1025 55.0908 27.1878 55.0908C28.3038 55.0908 29.2438 55.0135 30.0704 54.8975V46.9522H32.8531V54.3215C33.4171 54.1802 33.9505 54.0481 34.4918 53.9495V46.9522H37.2745V53.9575C37.7665 54.0828 38.3585 54.2948 38.9131 54.6602V46.9522ZM51.5932 39.7428H52.6918L52.6891 44.7001H51.5945L51.5932 39.7428ZM29.0171 39.7428L29.0145 44.7001H27.9198L27.9171 39.7428H29.0171ZM31.1691 39.7428L31.1665 44.7001H30.0718L30.0704 39.7428H31.1691ZM33.3212 37.7375H32.0451L32.0424 35.1495L33.3212 35.1415V37.7375ZM33.3212 39.7428L33.3185 44.7001H32.2238L32.2225 39.7428H33.3212ZM34.3745 39.7428H35.4731L35.4718 44.7001H34.3771L34.3745 39.7428ZM37.6251 37.7348H34.3758V35.1495L37.6251 35.1442V37.7348ZM37.6251 39.7428L37.6238 44.7001H36.5292L36.5278 39.7428H37.6251ZM49.4411 39.7428H50.5385L50.5371 44.7001H49.4424L49.4411 39.7428ZM47.2891 39.7428H48.3878L48.3852 44.7001H47.2905L47.2891 39.7428ZM47.2891 35.1495L48.5665 35.1415L48.5678 37.7375H47.2918L47.2891 35.1495ZM45.1371 39.7428H46.2344L46.2331 44.7001H45.1371V39.7428ZM42.9838 39.7428H44.0825L44.0798 44.7001H42.9852L42.9838 39.7428ZM42.9838 35.1442H46.2344V37.7348H42.9838V35.1442ZM40.8318 39.7428H41.9305L41.9278 44.7001H40.8331L40.8318 39.7428ZM40.3051 37.7375H38.6798V35.1428H41.9292V37.7375H40.3051ZM38.6811 44.7001L38.6798 39.7428H39.7771L39.7758 44.7001H38.6811ZM40.2171 58.3642C40.2171 61.6322 40.2171 62.1388 40.2171 62.1388C40.2171 62.1388 41.5464 59.7135 46.1011 60.6962C47.2824 60.9495 48.2958 61.2815 49.0185 61.5495C51.9905 60.3015 54.6371 58.4468 56.8331 56.1548C55.0811 56.3402 52.5745 56.5055 50.2891 56.2708C46.2598 55.8588 46.2292 55.1602 43.6905 55.1602C43.6905 55.1602 40.2171 55.0975 40.2171 58.3642ZM43.1918 57.6681L43.1998 57.5388L43.2171 57.4175L43.2492 57.3028L43.2905 57.1962L43.3438 57.0935L43.4078 57.0001L43.4825 56.9122L43.5704 56.8321L43.6678 56.7588L43.7758 56.6988L43.8971 56.6455L44.0292 56.6042L44.1731 56.5722L44.3278 56.5482L44.4958 56.5375L44.6731 56.5361L44.8838 56.5388L45.0385 56.6855L45.1611 56.8321L45.2545 56.9775L45.3144 57.1255L45.3531 57.2735L45.3811 57.4215L45.3945 57.5668L45.3985 57.7122L45.3878 57.9202L45.3585 58.1242L45.3118 58.3215L45.2492 58.5161L45.1758 58.6922L45.0932 58.8562L45.0131 58.9802L44.9038 59.1188L44.7918 59.2415L44.6398 59.3868L44.2171 59.7535L43.3865 59.9242L43.6678 59.6415L43.9132 59.3535L44.1238 59.0602L44.2998 58.7628L44.1158 58.7442L43.9318 58.6935L43.7451 58.6122L43.5585 58.4988L43.4691 58.4308L43.3945 58.3521L43.3292 58.2628L43.2785 58.1615L43.2385 58.0535L43.2118 57.9348L43.1958 57.8055L43.1918 57.6681ZM42.0558 57.5681L41.7185 57.7388L41.4865 57.8455L41.6011 57.1895L42.1465 56.9828L42.6038 56.7935L43.1398 56.5815L43.1318 56.6455L43.0385 57.0775L42.9025 57.7482L42.7985 58.3015L42.7878 58.3855L42.7785 58.4548L42.7718 58.5135L42.7478 58.7082L42.7318 58.7975L42.7078 58.8748L42.6771 59.0468L42.6038 59.2295L42.5745 59.3015L42.5371 59.3615L42.4905 59.4095L42.4344 59.4455L42.3438 59.4775L42.1891 59.5055L41.6891 59.5615L41.7385 59.4695L41.7785 59.3562L41.8225 59.1748L41.8371 59.0602L41.9358 58.4215L42.0358 57.7282L42.0558 57.5681ZM44.0558 57.4975L44.0424 57.6268L44.0478 57.7361L44.0665 57.8428L44.0958 57.9468L44.1371 58.0482L44.1905 58.1455L44.2585 58.2402L44.3385 58.3321L44.4305 58.4202L44.4985 58.1428L44.5225 57.9242L44.5198 57.7975L44.5078 57.6748L44.4838 57.5615L44.4478 57.4508L44.4051 57.3482L44.3492 57.2521L44.2852 57.1615L44.2091 57.0788L44.1385 57.2228L44.0838 57.3615L44.0558 57.4975ZM40.2171 62.6828V63.1282C40.5545 62.7775 42.3825 61.1495 45.6745 62.6361C46.3278 62.4721 46.9718 62.2855 47.6025 62.0681C45.5171 61.2255 42.1171 60.3695 40.2171 62.6828ZM40.4865 63.3361C41.5905 63.3135 42.6705 63.2055 43.7318 63.0348C42.1105 62.4628 41.0865 62.8375 40.4865 63.3361ZM60.3998 57.3695L61.9745 58.7562C62.1211 58.8842 62.2011 58.9788 62.2131 59.0415C62.2305 59.1415 62.1958 59.2402 62.1078 59.3402L62.0318 59.4268L62.0985 59.4855L63.0185 58.4388L62.9518 58.3802L62.8745 58.4681C62.8238 58.5281 62.7612 58.5695 62.6878 58.5935C62.6292 58.6135 62.5824 58.6148 62.5451 58.6015C62.4918 58.5815 62.4025 58.5175 62.2798 58.4095L60.7038 57.0228C60.5584 56.8948 60.4798 56.8001 60.4665 56.7348C60.4491 56.6361 60.4838 56.5375 60.5691 56.4402L60.6424 56.3575L60.5731 56.3028L59.6598 57.3388L59.7265 57.3975L59.8025 57.3108C59.8531 57.2535 59.9158 57.2108 59.9918 57.1828C60.0478 57.1655 60.0958 57.1628 60.1344 57.1775C60.1878 57.1975 60.2758 57.2615 60.3998 57.3695ZM60.6478 56.3521L60.6424 56.3575L61.1424 56.7575L61.1945 56.6841C61.0825 56.5855 61.0091 56.4882 60.9745 56.3948C60.9398 56.2935 60.9358 56.2028 60.9585 56.1202C60.9758 56.0588 61.0305 55.9642 61.1212 55.8388L61.3492 55.5215L63.3598 56.9722C63.4332 57.0242 63.4905 57.0722 63.5331 57.1148C63.5771 57.1562 63.6025 57.1921 63.6131 57.2188C63.6465 57.3148 63.6224 57.4202 63.5424 57.5295L63.4758 57.6228L63.5478 57.6735L64.3531 56.5562L64.2811 56.5042L64.2158 56.5948C64.1425 56.6975 64.0611 56.7535 63.9704 56.7628C63.9038 56.7682 63.7905 56.7122 63.6305 56.5975L61.6185 55.1482L61.8865 54.7762C61.9625 54.6708 62.0438 54.5962 62.1292 54.5535C62.2145 54.5108 62.3078 54.4962 62.4091 54.5095C62.4744 54.5175 62.5651 54.5535 62.6838 54.6175L62.7371 54.5442L62.1691 54.1762C62.1438 54.1988 62.1172 54.2255 62.0932 54.2668L62.0265 54.2282L60.5478 56.2828L60.5731 56.3028L60.5811 56.2935L60.6478 56.3521ZM62.0985 54.1295L62.1691 54.1762C62.1745 54.1722 62.1785 54.1628 62.1825 54.1588C62.2932 54.0868 62.3732 54.0428 62.4238 54.0308C62.4865 54.0175 62.6092 54.0055 62.7905 53.9935L64.4145 53.9028L65.0811 54.2868C65.1571 54.3322 65.2198 54.3735 65.2678 54.4122C65.3144 54.4495 65.3438 54.4815 65.3572 54.5082C65.3998 54.6002 65.3865 54.7068 65.3185 54.8242L65.2598 54.9242L65.3371 54.9681L66.0292 53.7708L65.9518 53.7268L65.8998 53.8161C65.8331 53.9308 65.7571 53.9975 65.6678 54.0175C65.6024 54.0308 65.4838 53.9882 65.3105 53.8882L64.6051 53.4802L63.9292 52.1855C63.8412 52.0215 63.7838 51.8948 63.7572 51.8042C63.7305 51.7148 63.7225 51.6268 63.7305 51.5402C63.7385 51.4548 63.7531 51.3935 63.7745 51.3562L63.8051 51.3028L63.7292 51.2575L63.1625 52.2388L63.2398 52.2828C63.2811 52.2108 63.3225 52.1615 63.3625 52.1321C63.4025 52.1028 63.4452 52.0882 63.4878 52.0868C63.5292 52.0855 63.5678 52.0948 63.6038 52.1161C63.6704 52.1535 63.7411 52.2495 63.8225 52.4068L64.3718 53.4575L63.1265 53.5228C62.9478 53.5335 62.8331 53.5228 62.7838 53.4935C62.7211 53.4575 62.6905 53.4041 62.6932 53.3321C62.6945 53.2601 62.7145 53.1922 62.7518 53.1282L62.7878 53.0655L62.7105 53.0215L62.0171 54.2228L62.0265 54.2282L62.0985 54.1295ZM66.4078 40.2282C66.3025 40.4055 66.2451 40.6281 66.2398 40.8988C66.2344 41.1028 66.2585 41.2868 66.3131 41.4482C66.3665 41.6108 66.4412 41.7415 66.5318 41.8442C66.6225 41.9468 66.7291 42.0242 66.8478 42.0762C66.9664 42.1295 67.0905 42.1575 67.2171 42.1602L67.4531 42.1668C67.5358 42.1681 67.5971 42.1788 67.6371 42.1988C67.6771 42.2175 67.7025 42.2455 67.7171 42.2828C67.7345 42.3295 67.7424 42.3908 67.7398 42.4628C67.7438 42.4735 67.7585 42.4775 67.7852 42.4788C67.8145 42.4788 67.8278 42.4748 67.8292 42.4655L67.8572 41.3668C67.8545 41.3575 67.8425 41.3521 67.8198 41.3508C67.7851 41.3495 67.7691 41.3561 67.7678 41.3681C67.7664 41.4282 67.7598 41.4775 67.7478 41.5161C67.7358 41.5561 67.7198 41.5868 67.7025 41.6095C67.6665 41.6535 67.5891 41.6735 67.4704 41.6708L67.2091 41.6642C66.9771 41.6588 66.8012 41.6068 66.6825 41.5095C66.5638 41.4122 66.4892 41.3082 66.4598 41.1962C66.4278 41.0842 66.4132 40.9842 66.4158 40.8975C66.4171 40.8228 66.4412 40.7322 66.4852 40.6242C66.5292 40.5175 66.6212 40.4188 66.7598 40.3321C66.8998 40.2455 67.0985 40.2042 67.3558 40.2108L69.1225 40.2548L69.1305 39.9508C69.1331 39.8308 69.1731 39.7042 69.2505 39.5722C69.3265 39.4402 69.4158 39.3322 69.5158 39.2482C69.6171 39.1628 69.7011 39.1215 69.7691 39.1228L69.3731 38.6415C69.2451 38.7402 69.1518 38.8828 69.0958 39.0681C69.0652 39.1681 69.0425 39.2522 69.0265 39.3188C69.0105 39.3868 68.9985 39.4482 68.9932 39.5055L68.9865 39.7655L67.3091 39.7228C67.1358 39.7188 66.9678 39.7562 66.8064 39.8388C66.6451 39.9202 66.5118 40.0495 66.4078 40.2282Z" fill="white"/>
</svg>
