<svg width="158" height="67" viewBox="0 0 158 67" fill="none" xmlns="http://www.w3.org/2000/svg">
<path d="M80.4747 56.4081L80.1292 55.3567C77.7447 55.8271 74.8661 57.9649 73.3584 62.0327L80.771 64.8499L81.1045 63.7011L74.5938 61.2537C76.2622 57.9157 78.8807 56.5438 80.4375 56.4825L80.4747 56.4081ZM85.5651 63.9615C84.2171 63.9615 83.4758 63.1213 83.4758 61.4649V55.3698H82.3409V61.5261C82.3409 62.9353 82.81 64.7886 85.5651 64.7886C86.6519 64.7886 87.3691 64.5052 87.8633 64.0731L90.2336 64.7766V63.7142L88.4558 63.2449C88.7149 62.7011 88.7882 62.083 88.7882 61.5261V55.3698H87.6533V61.4649C87.6533 63.1213 86.9121 63.9615 85.5651 63.9615ZM96.66 55.3698V61.5874C96.66 63.4921 95.9176 63.9615 94.5707 63.9615C93.2237 63.9615 92.4825 63.4921 92.4825 61.5874V55.3698H91.3476V61.6497C91.3476 63.0589 91.8156 64.7886 94.5707 64.7886C97.3258 64.7886 97.7948 63.0589 97.7948 61.6497V56.1838H100.056V55.3698H96.66ZM104.269 63.9615C102.921 63.9615 102.18 63.1213 102.18 61.4649V55.3698H101.045V61.5261C101.045 62.9353 101.514 64.7886 104.269 64.7886C105.356 64.7886 106.073 64.5052 106.568 64.0731L108.938 64.7766V63.7142L107.159 63.2449C107.418 62.7011 107.492 62.083 107.492 61.5261V55.3698H106.358V61.4649C106.358 63.1213 105.616 63.9615 104.269 63.9615ZM111.187 63.8258V55.3698H110.052V64.6398H113.053C114.548 64.6398 115.413 64.6398 115.425 65.9385H116.572C116.597 64.3685 115.659 63.8258 114.053 63.8258H111.187ZM119.798 63.9615C118.451 63.9615 117.709 63.4922 117.709 61.5885V55.3698H116.574V61.6497C116.574 63.0589 117.044 64.7886 119.798 64.7886C122.553 64.7886 123.022 63.0589 123.022 61.6497V55.3698H121.887V61.5885C121.887 63.4922 121.145 63.9615 119.798 63.9615V63.9615ZM128.224 63.9615C126.877 63.9615 126.134 63.1213 126.134 61.4649V55.3698H124.999V61.5261C124.999 62.9353 125.469 64.7886 128.224 64.7886C129.312 64.7886 130.028 64.5052 130.522 64.0731L132.893 64.7766V63.7142L131.114 63.2449C131.373 62.7011 131.447 62.083 131.447 61.5261V55.3698H130.312V61.4649C130.312 63.1213 129.571 63.9615 128.224 63.9615V63.9615ZM137.229 56.0481C138.577 56.0481 139.319 56.5175 139.319 58.4212V60.1279H140.453V58.3599C140.453 56.9507 139.984 55.221 137.229 55.221C134.475 55.221 134.006 56.9507 134.006 58.3599V64.6398H135.141V58.4212C135.141 56.5175 135.882 56.0481 137.229 56.0481V56.0481ZM144.914 63.9615C143.567 63.9615 142.826 63.1213 142.826 61.4649V55.3698H141.69V61.5261C141.69 62.9353 142.159 64.7886 144.914 64.7886C146.002 64.7886 146.718 64.5052 147.212 64.0731L149.584 64.7766V63.7142L147.805 63.2449C148.064 62.7011 148.138 62.083 148.138 61.5261V55.3698H147.002V61.4649C147.002 63.1213 146.261 63.9615 144.914 63.9615V63.9615ZM151.24 56.1838V61.6125C151.24 63.0217 151.709 64.7514 154.464 64.7514C157.219 64.7514 157.687 63.0217 157.687 61.6125V59.9682H156.552V61.5502C156.552 63.4549 155.811 63.9243 154.464 63.9243C153.117 63.9243 152.375 63.4549 152.375 61.5502V55.3698H148.979V56.1838H151.24" fill="white"/>
<path d="M79.677 41.9993C81.4079 42.2077 82.8216 42.8451 82.8216 45.0333V51.5696H84.065V44.8114C84.065 42.4565 82.2263 41.086 79.0143 41.086C75.8158 41.086 73.9893 42.4565 73.9893 44.8114V46.5154H75.2608V45.0333C75.2608 42.7887 76.6181 42.2212 78.4054 41.9993V48.565H79.677V41.9993ZM93.8933 45.3925V44.4792H87.5538V41.1829H86.2822V48.0796C86.2822 49.6597 86.8066 51.7363 89.8936 51.7363C92.9807 51.7363 93.5062 49.6597 93.5062 48.0796V46.9297H92.2346V48.0109C92.2346 50.1452 91.4028 50.8096 89.8936 50.8096C88.3844 50.8096 87.5538 50.1452 87.5538 48.0109V45.3925H93.8933ZM101.204 44.1727H102.614C102.614 44.1311 102.614 43.7988 102.614 43.7572C102.546 41.9711 101.024 41.0161 99.1265 41.0161C97.0219 41.0161 95.7908 42.3732 95.7222 43.6186C95.6119 45.7382 97.4372 46.2236 98.9746 46.8194C100.304 47.3318 101.591 47.7204 101.564 49.1338C101.536 50.546 99.8603 50.8378 99.0714 50.8096C97.8525 50.7679 96.7867 50.2138 96.7867 48.538V48.3309H95.4454V48.5515C95.4454 50.8782 97.1603 51.7363 99.0297 51.7363C101.536 51.7363 102.878 50.5178 102.904 48.8151C102.933 46.9027 100.982 46.2383 99.2931 45.6278C98.0191 45.1706 96.9668 44.6717 97.0636 43.4532C97.1469 42.4001 98.1159 41.9429 99.0714 41.9429C100.165 41.9429 101.204 42.5938 101.204 43.8136V44.1727ZM108.47 50.8096C106.96 50.8096 106.13 49.8681 106.13 48.0122V41.1829H104.858V48.0808C104.858 49.6597 105.384 51.7363 108.47 51.7363C109.689 51.7363 110.492 51.4176 111.046 50.9346L113.702 51.7228V50.5325L111.709 50.0066C111.999 49.3974 112.082 48.7048 112.082 48.0808V41.1829H110.811V48.0122C110.811 49.8681 109.98 50.8096 108.47 50.8096ZM120.085 51.5696H121.357V44.4792H120.085V45.0063C119.96 46.7654 119.102 47.2227 117.744 47.2227C116.235 47.2227 115.405 46.6956 115.405 44.5626V41.1829H114.133V44.6312C114.133 46.2113 114.658 48.1482 117.744 48.1482C118.798 48.1482 119.559 47.8307 120.085 47.4017V51.5696ZM127.185 50.8096C125.676 50.8096 124.846 49.8681 124.846 48.0122V41.1829H123.573V48.0808C123.573 49.6597 124.098 51.7363 127.185 51.7363C128.404 51.7363 129.207 51.4176 129.76 50.9346L132.417 51.7228V50.5325L130.424 50.0066C130.715 49.3974 130.798 48.7048 130.798 48.0808V41.1829H129.525V48.0122C129.525 49.8681 128.695 50.8096 127.185 50.8096ZM134.273 42.0949V48.1776C134.273 49.7566 134.799 51.6946 137.886 51.6946C140.973 51.6946 141.497 49.7566 141.497 48.1776V46.3352H140.226V48.1078C140.226 50.242 139.395 50.7679 137.886 50.7679C136.377 50.7679 135.545 50.242 135.545 48.1078V41.1829H131.74V42.0949H134.273Z" fill="white"/>
<path d="M81.6015 31.1872V30.2751H75.2608V26.9788H73.9893V33.8755C73.9893 35.4556 74.5148 37.5322 77.6018 37.5322C80.6888 37.5322 81.2131 35.4556 81.2131 33.8755V32.7256H79.9416V33.8068C79.9416 35.9411 79.111 36.6055 77.6018 36.6055C76.0926 36.6055 75.2608 35.9411 75.2608 33.8068V31.1872H81.6015ZM86.7649 27.7388C88.2754 27.7388 89.1059 28.2647 89.1059 30.3977V32.31H90.3775V30.3291C90.3775 28.7501 89.852 26.812 86.7649 26.812C83.6791 26.812 83.1536 28.7501 83.1536 30.3291V37.3655H84.4252V30.3977C84.4252 28.2647 85.2557 27.7388 86.7649 27.7388V27.7388ZM99.6521 31.1872V30.2751H93.3114V26.9788H92.0398V33.8755C92.0398 35.4556 92.5654 37.5322 95.6524 37.5322C98.7395 37.5322 99.2638 35.4556 99.2638 33.8755V32.7256H97.9922V33.8068C97.9922 35.9411 97.1616 36.6055 95.6524 36.6055C94.1432 36.6055 93.3114 35.9411 93.3114 33.8068V31.1872H99.6521ZM106.88 31.8271C106.755 33.5862 105.896 34.0434 104.539 34.0434C103.029 34.0434 102.199 33.5163 102.199 31.3833V29.6107H100.927V31.4532C100.927 33.0321 101.453 34.969 104.539 34.969C105.591 34.969 106.353 34.6514 106.88 34.2224V37.3655H110.685V36.4535H108.151V26.9788H106.88V31.8271ZM115.129 36.6055C113.62 36.6055 112.788 35.664 112.788 33.808V26.9788H111.516V33.8767C111.516 35.4556 112.042 37.5322 115.129 37.5322C116.347 37.5322 117.15 37.2135 117.704 36.7305L120.36 37.5187V36.3284L118.368 35.8025C118.658 35.1933 118.74 34.5007 118.74 33.8767V26.9788H117.469V33.808C117.469 35.664 116.638 36.6055 115.129 36.6055ZM122.217 27.8908V33.9735C122.217 35.5525 122.742 37.4906 125.829 37.4906C128.915 37.4906 129.441 35.5525 129.441 33.9735V32.1311H128.169V33.9037C128.169 36.0379 127.339 36.5638 125.829 36.5638C124.319 36.5638 123.488 36.0379 123.488 33.9037V26.9788H119.684V27.8908H122.217ZM132.93 30.052V27.0057H131.657V37.3655H132.93V32.4486C133.053 30.6894 133.912 30.2322 135.269 30.2322C136.779 30.2322 137.609 30.7581 137.609 32.8911V34.6649H138.882V32.8225C138.882 31.2435 138.356 29.3054 135.269 29.3054C134.217 29.3054 133.455 29.623 132.93 30.052" fill="white"/>
<path d="M65.6963 33.4669C65.6099 15.7059 51.0996 1.25554 33.3498 1.25554C15.5125 1.25554 1 15.777 1 33.6278C1 51.3888 15.4404 65.9092 33.1902 65.9956L65.4262 66H65.6995V65.7265L65.6963 33.4691V33.4669Z" stroke="white" stroke-width="0.666667"/>
<path d="M59.0913 33.5493C59.0913 19.2784 47.5318 7.70975 33.2707 7.70975C19.0108 7.70975 7.4502 19.2784 7.4502 33.5493C7.4502 47.8192 19.0108 59.3867 33.2707 59.3867C47.5318 59.3867 59.0913 47.8192 59.0913 33.5493ZM58.5829 33.5493C58.5829 47.538 47.2508 58.878 33.2707 58.878C19.2918 58.878 7.95969 47.538 7.95969 33.5493C7.95969 19.5595 19.2918 8.21958 33.2707 8.21958C47.2508 8.21958 58.5829 19.5595 58.5829 33.5493ZM57.4371 31.8524C57.4601 31.8491 57.471 31.8426 57.4699 31.8327L57.3388 30.7978C57.3344 30.7901 57.3245 30.7879 57.3059 30.7901C57.2786 30.7934 57.2655 30.7999 57.2666 30.8098C57.2819 30.9301 57.2764 31.0155 57.2513 31.068C57.225 31.1205 57.166 31.1522 57.072 31.1643L56.1284 31.2846C56.1219 31.3065 56.1044 31.3382 56.076 31.3787C56.0497 31.4192 56.0027 31.4608 55.936 31.5056C55.8693 31.5505 55.7819 31.58 55.6725 31.5942C55.6157 31.6008 55.5588 31.603 55.4998 31.6008C55.4418 31.5975 55.3817 31.5888 55.3216 31.5767C55.1893 31.5516 55.0778 31.4772 54.9838 31.3546C54.8897 31.231 54.8329 31.0866 54.811 30.917C54.7553 30.4794 54.9718 30.2299 55.4616 30.1687L56.9211 29.9827C57.0151 29.9706 57.0818 29.986 57.1201 30.0297C57.1584 30.0779 57.1835 30.1577 57.1988 30.2726C57.201 30.2825 57.2152 30.2857 57.2414 30.2824C57.2611 30.2803 57.272 30.2748 57.271 30.2671L57.1397 29.2322C57.1354 29.2245 57.1244 29.2223 57.1026 29.2245C57.0774 29.2278 57.0665 29.2332 57.0676 29.2409C57.0829 29.3591 57.0774 29.4444 57.0523 29.4958C57.0271 29.5472 56.967 29.579 56.8719 29.591L55.3653 29.7825C55.3117 29.789 55.2593 29.8022 55.2079 29.8186C55.1565 29.8361 55.1062 29.8569 55.057 29.8831C54.9586 29.9389 54.8755 30.0144 54.8045 30.1085C54.7334 30.2026 54.6831 30.3196 54.6536 30.4597C54.6241 30.5997 54.6197 30.7551 54.6416 30.9269C54.6536 31.0198 54.6831 31.115 54.7301 31.2124C54.7771 31.3087 54.8154 31.3776 54.846 31.4203C54.8635 31.5538 54.8591 31.6829 54.8351 31.8087C54.811 31.9345 54.7509 32.0187 54.6536 32.0647L54.986 32.4947C55.08 32.3426 55.1062 32.0986 55.0636 31.7605L55.0406 31.5822C55.0854 31.626 55.1466 31.661 55.2265 31.6861C55.3052 31.7113 55.3806 31.7277 55.4517 31.7343C55.4932 31.7387 55.526 31.7408 55.5534 31.7408C55.5796 31.7419 55.6026 31.7408 55.6222 31.7387L57.1201 31.5472C57.2174 31.5352 57.283 31.5527 57.3202 31.5986C57.3573 31.6446 57.3836 31.7255 57.3978 31.8415C57.4 31.8513 57.4131 31.8557 57.4371 31.8524ZM56.697 28.4258C56.756 28.3339 56.7942 28.2212 56.8117 28.0867C56.8303 27.9532 56.8205 27.8044 56.7822 27.6392C56.7451 27.4751 56.6882 27.3383 56.6139 27.2256C56.5374 27.113 56.4531 27.0265 56.3558 26.9664C56.2585 26.9062 56.158 26.869 56.053 26.8537C55.948 26.8383 55.842 26.8438 55.7338 26.869L54.2917 27.2016C54.1955 27.2246 54.1222 27.2147 54.073 27.1742C54.0227 27.1327 53.9856 27.0572 53.9605 26.9477C53.9561 26.9401 53.944 26.939 53.9232 26.9445C53.8992 26.9499 53.8883 26.9565 53.8893 26.9642L54.1244 27.9806C54.1255 27.9882 54.1375 27.9893 54.1594 27.9849C54.1846 27.9784 54.1966 27.9707 54.1944 27.9608C54.1736 27.8733 54.1769 27.7946 54.2043 27.7245C54.2305 27.6534 54.2895 27.6075 54.3803 27.5867L55.7742 27.2639C55.983 27.2158 56.1492 27.2158 56.2728 27.2617C56.3974 27.3077 56.4849 27.3722 56.5352 27.451C56.5844 27.5309 56.6183 27.6053 56.6347 27.6775C56.6489 27.7409 56.651 27.8186 56.6401 27.9105C56.6292 28.0024 56.5767 28.0976 56.4859 28.1961C56.3941 28.2934 56.2455 28.3667 56.0399 28.4138L55.9153 28.4433C55.8191 28.4652 55.7502 28.4608 55.7064 28.4313C55.6627 28.4018 55.6321 28.3416 55.6113 28.2519C55.6069 28.2453 55.5905 28.2453 55.561 28.2519C55.5381 28.2573 55.5271 28.2628 55.5282 28.2716L55.7338 29.1621C55.7381 29.1687 55.7534 29.1698 55.7797 29.1632C55.8059 29.1578 55.818 29.1501 55.8169 29.1424C55.8103 29.1129 55.8059 29.0845 55.8048 29.056C55.8037 29.0276 55.8027 29.0035 55.8037 28.9849C55.8103 28.9422 55.8289 28.9094 55.8584 28.8853C55.8868 28.8624 55.936 28.8427 56.0038 28.8274L56.1755 28.7869C56.2815 28.7628 56.381 28.719 56.4717 28.6578C56.5636 28.5954 56.6379 28.5177 56.697 28.4258ZM56.1744 25.6699C56.1952 25.6611 56.205 25.6524 56.2017 25.6425L55.8191 24.6721C55.8136 24.6655 55.8027 24.6655 55.7852 24.6721C55.76 24.683 55.7491 24.6918 55.7523 24.7016C55.7972 24.8143 55.8125 24.8986 55.8016 24.9566C55.7884 25.0124 55.7393 25.0583 55.6507 25.0933L54.7662 25.4423C54.7651 25.4653 54.7552 25.5003 54.7388 25.5463C54.7224 25.5922 54.6875 25.6447 54.6339 25.7038C54.5803 25.764 54.5027 25.8143 54.401 25.8548C54.3475 25.8756 54.2928 25.8909 54.2348 25.9029C54.178 25.9139 54.1178 25.9215 54.0555 25.9248C53.9221 25.9336 53.7953 25.8887 53.674 25.7924C53.5526 25.6961 53.4608 25.5692 53.3985 25.4117C53.2367 25.0014 53.3864 24.706 53.8456 24.5244L55.2144 23.985C55.3019 23.95 55.3697 23.9489 55.4189 23.9817C55.467 24.0189 55.5118 24.0901 55.5544 24.1973C55.5588 24.206 55.573 24.206 55.5971 24.1973C55.6168 24.1885 55.6255 24.1809 55.6222 24.1743L55.2407 23.2039C55.2352 23.1973 55.2232 23.1984 55.2035 23.205C55.1794 23.2148 55.1707 23.2236 55.1729 23.2301C55.2166 23.3406 55.233 23.4249 55.221 23.4807C55.209 23.5365 55.1587 23.5824 55.069 23.6174L53.6565 24.1754C53.6062 24.1951 53.5581 24.2191 53.5133 24.2487C53.4673 24.2771 53.4236 24.3121 53.3821 24.3483C53.3012 24.427 53.2389 24.52 53.1929 24.6294C53.1481 24.7377 53.1284 24.8647 53.1339 25.0058C53.1394 25.1491 53.1732 25.3012 53.2377 25.462C53.2716 25.5495 53.3241 25.6349 53.393 25.7169C53.4619 25.799 53.5176 25.8559 53.557 25.8898C53.6062 26.0145 53.6346 26.1414 53.6423 26.2694C53.6499 26.3963 53.6117 26.4937 53.5286 26.5615L53.9571 26.8963C54.0118 26.7267 53.9758 26.4839 53.8511 26.1666L53.7855 25.9981C53.8391 26.0298 53.9079 26.0495 53.991 26.0539C54.0741 26.0594 54.1507 26.0561 54.2206 26.0451C54.2622 26.0386 54.295 26.032 54.3212 26.0265C54.3475 26.0211 54.3693 26.0145 54.3868 26.0069L55.7928 25.4522C55.8835 25.4171 55.9513 25.4171 55.9983 25.4533C56.0464 25.4883 56.0913 25.5605 56.1339 25.6688C56.1394 25.6775 56.1525 25.6786 56.1744 25.6699ZM54.928 22.6601C54.9477 22.6481 54.9553 22.6371 54.9487 22.6273L54.4306 21.7236L54.3693 21.763C54.4295 21.8669 54.4579 21.949 54.4535 22.007C54.4502 22.0649 54.4076 22.1175 54.3256 22.1645L53.0398 22.9041C52.8551 23.0102 52.6955 23.0584 52.561 23.0485C52.4265 23.0387 52.3259 23.0026 52.2581 22.9446C52.1915 22.8855 52.1401 22.8264 52.1073 22.7673C52.0384 22.6481 52.0133 22.508 52.0318 22.3483C52.0493 22.1886 52.1904 22.0321 52.4528 21.8811L53.7374 21.1416C53.8194 21.0945 53.8872 21.0836 53.9396 21.1087C53.9921 21.1383 54.0479 21.2028 54.1047 21.3024C54.1113 21.31 54.1255 21.3089 54.1485 21.2958C54.166 21.286 54.1736 21.2761 54.1692 21.2696L53.6499 20.3659C53.6434 20.3604 53.6324 20.3626 53.6128 20.3735C53.592 20.3856 53.5832 20.3954 53.5876 20.402C53.6467 20.5048 53.6751 20.5847 53.6718 20.6427C53.6674 20.6996 53.6248 20.7521 53.5417 20.8002L52.2177 21.5606C52.093 21.6328 51.9914 21.7312 51.9116 21.8571C51.8318 21.984 51.7935 22.1317 51.7968 22.3013C51.8012 22.4698 51.8591 22.6503 51.9684 22.8417C52.0799 23.0354 52.2079 23.1743 52.3533 23.2608C52.4987 23.345 52.6452 23.3844 52.796 23.3789C52.9458 23.3734 53.0836 23.3341 53.2082 23.2619L54.5191 22.508C54.6033 22.4599 54.6711 22.449 54.7236 22.4763C54.7771 22.5037 54.8307 22.566 54.8864 22.6623C54.8952 22.6721 54.9083 22.6711 54.928 22.6601ZM52.6693 19.0574C52.6889 19.0431 52.6955 19.0322 52.69 19.0256L52.1215 18.2259C52.1149 18.2182 52.1029 18.2204 52.0843 18.2335C52.0636 18.2478 52.057 18.2598 52.0636 18.2685C52.1259 18.3561 52.1532 18.4294 52.1456 18.4863C52.1379 18.5443 52.0953 18.6011 52.0155 18.6591L50.1262 20.0026L50.6488 20.7378C50.7133 20.8276 50.7592 20.9216 50.7866 21.0157C50.815 21.1109 50.827 21.1974 50.8248 21.275C50.8227 21.3538 50.8106 21.4162 50.7887 21.4621L51.2764 21.6678C51.2884 21.4862 51.1769 21.2291 50.9407 20.8987L50.4728 20.2401L52.2428 18.9797C52.3194 18.9261 52.3894 18.9086 52.455 18.9283C52.5206 18.948 52.5785 18.9928 52.6288 19.065C52.6375 19.0727 52.6518 19.0705 52.6693 19.0574ZM51.5868 17.6657C51.6043 17.6504 51.6087 17.6384 51.6022 17.6307L50.8828 16.8758C50.8751 16.8714 50.8653 16.8758 50.851 16.8878C50.8314 16.9075 50.8259 16.9207 50.8325 16.9283C50.9156 17.0158 50.9626 17.0881 50.9735 17.1449C50.9834 17.2029 50.9539 17.2631 50.8861 17.3287L50.1973 17.9852C50.2038 18.0071 50.2082 18.0432 50.2104 18.0924C50.2126 18.1405 50.2006 18.2029 50.1732 18.2784C50.1459 18.3539 50.0934 18.4294 50.0136 18.506C49.9721 18.5453 49.9272 18.5804 49.8791 18.6132C49.8299 18.6449 49.7774 18.6733 49.7206 18.7007C49.5992 18.7576 49.4659 18.7653 49.3172 18.7215C49.1685 18.6788 49.0362 18.5957 48.9192 18.472C48.6142 18.1526 48.6415 17.8233 48.999 17.4819L50.0639 16.4666C50.1328 16.401 50.1951 16.3747 50.2519 16.3868C50.3099 16.4032 50.3788 16.4524 50.4586 16.5355C50.4662 16.5421 50.4804 16.5366 50.499 16.5191C50.5143 16.5038 50.5187 16.494 50.5132 16.4885L49.795 15.7336C49.7873 15.7292 49.7763 15.7347 49.7599 15.7489C49.7424 15.7664 49.7359 15.7774 49.7425 15.7839C49.8245 15.8693 49.8704 15.9404 49.8802 15.9973C49.89 16.0531 49.8616 16.1143 49.7916 16.1811L48.6918 17.2303C48.6535 17.2675 48.6185 17.308 48.5868 17.3517C48.5562 17.3966 48.5278 17.4436 48.5038 17.4939C48.4578 17.5968 48.4349 17.7073 48.4338 17.8244C48.4327 17.9425 48.4622 18.0672 48.5213 18.1963C48.5792 18.3276 48.6689 18.4556 48.788 18.5804C48.8536 18.6482 48.9334 18.7073 49.0285 18.7576C49.1225 18.8068 49.1958 18.8397 49.245 18.8561C49.3379 18.9534 49.4123 19.0596 49.467 19.1744C49.5216 19.2915 49.5238 19.3943 49.4713 19.4895L49.9939 19.6383C49.9808 19.46 49.8573 19.2477 49.6222 19.0016L49.4976 18.8703C49.5599 18.8801 49.6299 18.8714 49.7086 18.8451C49.7884 18.8189 49.8573 18.7871 49.9185 18.7499C49.9546 18.7281 49.983 18.7106 50.0049 18.6941C50.0267 18.6799 50.0442 18.6657 50.0584 18.6515L51.1517 17.6088C51.2217 17.541 51.2862 17.5158 51.343 17.5312C51.3999 17.5465 51.4688 17.5957 51.5497 17.681C51.5573 17.6865 51.5693 17.6832 51.5868 17.6657ZM49.2013 15.7806L49.7315 15.8386C49.6933 15.6658 49.538 15.471 49.2625 15.2544L48.4622 14.6253L48.4218 14.6844C48.5103 14.7544 48.5617 14.8212 48.5781 14.8868C48.5945 14.9503 48.5726 15.0203 48.5136 15.0958L47.6149 16.2402C47.4826 16.4086 47.3525 16.5126 47.2235 16.5541C47.0956 16.5946 46.9895 16.6001 46.9053 16.5706C46.8211 16.541 46.7512 16.5049 46.6987 16.4633C46.5904 16.378 46.514 16.2577 46.4713 16.1023C46.4287 15.9469 46.5008 15.75 46.6889 15.5115L47.5876 14.3671C47.6455 14.2938 47.7078 14.2566 47.7756 14.2577C47.8434 14.2577 47.9122 14.2851 47.9811 14.3387C47.9921 14.3441 48.0041 14.3376 48.0172 14.3212C48.0325 14.3026 48.0358 14.2894 48.0282 14.284L47.2585 13.6779C47.2497 13.6735 47.2377 13.6779 47.2235 13.6965C47.2082 13.7161 47.2049 13.7282 47.2136 13.7347C47.2978 13.8015 47.3459 13.8639 47.3547 13.9207C47.3634 13.9787 47.3383 14.0455 47.277 14.1231L46.351 15.3025C46.2625 15.4152 46.2045 15.5454 46.1772 15.692C46.1498 15.8397 46.1695 15.9907 46.2362 16.1461C46.3029 16.3014 46.4243 16.448 46.5981 16.5848C46.7709 16.7204 46.9425 16.8003 47.1109 16.8244C47.2803 16.8474 47.4334 16.8288 47.5723 16.7653C47.7089 16.7029 47.8237 16.6143 47.9134 16.4983L48.7968 15.3736L48.9706 15.1538C48.9936 15.1767 49.0274 15.2161 49.0712 15.273C49.1149 15.3299 49.1531 15.4043 49.1859 15.4951C49.2187 15.587 49.2242 15.6822 49.2013 15.7806ZM46.6123 13.2501C46.6232 13.2304 46.6254 13.2173 46.6167 13.2118L45.7125 12.6921C45.7049 12.6899 45.6961 12.6965 45.6863 12.7129C45.6721 12.737 45.671 12.7512 45.6797 12.7567C45.7836 12.8168 45.8492 12.8726 45.8754 12.9251C45.9017 12.9766 45.8908 13.0433 45.8437 13.1265L45.3703 13.9503C45.3834 13.97 45.3977 14.0028 45.413 14.0487C45.4294 14.0947 45.4349 14.1581 45.4305 14.238C45.4261 14.3179 45.3955 14.4054 45.3408 14.5017C45.3135 14.5509 45.2796 14.5969 45.2424 14.6428C45.2042 14.6877 45.1615 14.7303 45.1156 14.7719C45.0161 14.8616 44.8893 14.9054 44.734 14.9065C44.5799 14.9065 44.429 14.8649 44.2814 14.7796C43.8998 14.5608 43.8321 14.2369 44.0781 13.8091L44.8117 12.5324C44.8587 12.4503 44.9111 12.4066 44.9691 12.4022C45.0303 12.4 45.1102 12.4284 45.2096 12.4864C45.2195 12.4897 45.2304 12.481 45.2435 12.458C45.2545 12.4405 45.2555 12.4295 45.249 12.4252L44.3459 11.9055C44.3371 11.9033 44.3284 11.912 44.3175 11.9306C44.3055 11.9514 44.3022 11.9645 44.3099 11.9678C44.4126 12.0269 44.4771 12.0827 44.5023 12.1341C44.5285 12.1845 44.5176 12.2523 44.4695 12.3354L43.7118 13.6527C43.6856 13.6997 43.6637 13.749 43.6462 13.8004C43.6287 13.8518 43.6156 13.9043 43.6068 13.9601C43.5915 14.0717 43.6014 14.1833 43.6342 14.2971C43.6659 14.4109 43.7293 14.5203 43.8222 14.6286C43.9163 14.7369 44.0376 14.8343 44.1874 14.9207C44.2694 14.9678 44.3623 15.0017 44.4684 15.0225C44.5722 15.0432 44.652 15.0542 44.7034 15.0553C44.8204 15.122 44.921 15.203 45.0074 15.2982C45.0916 15.3944 45.1233 15.4929 45.1003 15.599L45.6437 15.5925C45.5802 15.4262 45.402 15.2577 45.1058 15.0881L44.9505 14.9973C45.0117 14.9896 45.0773 14.9612 45.1451 14.9131C45.2129 14.8649 45.2719 14.8157 45.32 14.7632C45.3474 14.7314 45.3692 14.7063 45.3867 14.6855C45.4031 14.6647 45.4163 14.6461 45.4261 14.6286L46.1794 13.3179C46.2275 13.2348 46.2811 13.1921 46.3401 13.1899C46.3991 13.1877 46.479 13.2162 46.5807 13.2752C46.5894 13.2785 46.6003 13.2709 46.6123 13.2501ZM43.2384 11.3924L43.4275 11.2873L43.398 11.2436C43.2854 11.2808 43.1641 11.3256 43.0307 11.3781L42.7234 11.4952L42.8765 11.9099L42.8918 11.9646C42.8962 11.9766 42.8973 11.9875 42.8973 11.9985L42.8951 12.0236C42.8841 12.04 42.8623 12.0554 42.8284 12.074L41.2595 12.4985L42.5256 14.0126C42.5343 14.0247 42.5431 14.0455 42.5518 14.0783C42.5617 14.11 42.5627 14.1417 42.554 14.1724C42.5453 14.2129 42.5398 14.2391 42.5365 14.2501C42.5321 14.2632 42.5234 14.2829 42.5113 14.3102L42.4764 14.4174C42.4731 14.4317 42.4796 14.4426 42.4938 14.4492L42.5299 14.4656L42.8765 13.7599L41.804 12.4722L43.3663 12.0619L43.2111 11.5608L43.1903 11.5083C43.1794 11.4744 43.1772 11.4514 43.1827 11.4383C43.1925 11.4219 43.2111 11.4066 43.2384 11.3924ZM40.0165 11.6177C40.0241 11.6166 40.0306 11.6057 40.0361 11.5838C40.0416 11.5609 40.0405 11.5488 40.0317 11.5466L39.1549 11.3442C39.1461 11.3442 39.1396 11.353 39.1352 11.3716C39.1298 11.3978 39.1309 11.4131 39.1418 11.4153C39.1888 11.4263 39.2271 11.4405 39.2566 11.4569C39.2872 11.4722 39.3091 11.4897 39.3244 11.5083C39.3539 11.5444 39.3572 11.6101 39.3353 11.7053L39.2872 11.9142C39.2445 12.1002 39.1735 12.2315 39.0762 12.3114C38.9789 12.3912 38.8816 12.4328 38.7876 12.4394C38.6924 12.4459 38.6104 12.4416 38.5416 12.4252C38.4814 12.412 38.4114 12.3781 38.3327 12.3245C38.254 12.2709 38.1906 12.1812 38.1425 12.0554C38.0955 11.9284 38.0955 11.7622 38.1425 11.5565L38.4694 10.144L38.2256 10.0882C38.1305 10.0653 38.0354 10.0128 37.9414 9.9296C37.8484 9.84536 37.7763 9.75673 37.7249 9.66155C37.6735 9.56637 37.6538 9.49197 37.6669 9.43836L37.2143 9.67687C37.2722 9.79721 37.3717 9.89458 37.5106 9.97117C37.586 10.0106 37.6494 10.0434 37.7019 10.0674C37.7533 10.0915 37.8014 10.1112 37.8451 10.1243L38.0539 10.1725L37.7445 11.5138C37.7128 11.6528 37.7151 11.795 37.7544 11.9372C37.7927 12.0805 37.8757 12.2085 38.0015 12.3223C38.1272 12.4361 38.2967 12.5171 38.5132 12.5674C38.6761 12.6046 38.828 12.6155 38.9669 12.5991C39.1057 12.5816 39.2238 12.5444 39.32 12.4875C39.4173 12.4306 39.4971 12.3584 39.5584 12.2709C39.6207 12.1845 39.6633 12.0904 39.6863 11.9886L39.73 11.7994C39.7453 11.7337 39.7639 11.6856 39.7868 11.6571C39.8087 11.6287 39.8349 11.6123 39.8677 11.6068C39.9071 11.6002 39.9574 11.6035 40.0165 11.6177ZM36.1287 11.7545L35.9493 11.7392C36.0007 11.7053 36.0477 11.6517 36.0882 11.5794C36.1297 11.5072 36.1604 11.4372 36.1811 11.3683C36.1943 11.3278 36.2019 11.2961 36.2085 11.2698C36.2139 11.2436 36.2172 11.2206 36.2194 11.202L36.3342 9.69438C36.3407 9.597 36.3713 9.53573 36.4238 9.50838C36.4763 9.48212 36.5605 9.47337 36.6775 9.48103C36.6873 9.48103 36.6939 9.47009 36.6961 9.44602C36.6972 9.42305 36.6928 9.40992 36.6829 9.40992L35.6432 9.33004C35.6345 9.33223 35.6301 9.34208 35.629 9.36068C35.6268 9.38913 35.6312 9.40226 35.641 9.40335C35.7613 9.4121 35.8444 9.43399 35.8903 9.47009C35.9362 9.50619 35.9559 9.57074 35.9483 9.66483L35.8761 10.6145C35.8969 10.6254 35.9231 10.6484 35.9581 10.6845C35.992 10.7184 36.0248 10.7731 36.0543 10.8475C36.0849 10.9219 36.0958 11.0138 36.0882 11.1221C36.0838 11.1801 36.074 11.2359 36.0598 11.2928C36.0445 11.3497 36.0248 11.4066 36.0007 11.4646C35.9494 11.5882 35.8542 11.6834 35.7154 11.7512C35.5765 11.8179 35.4224 11.8453 35.2518 11.8322C34.8134 11.7983 34.6122 11.5357 34.6494 11.0434L34.7609 9.57511C34.7686 9.47993 34.797 9.41867 34.8484 9.38913C34.902 9.36287 34.9862 9.35302 35.101 9.36178C35.1108 9.36178 35.1174 9.34865 35.1195 9.32239C35.1206 9.30161 35.1173 9.29066 35.1097 9.28956L34.071 9.21079C34.0623 9.21298 34.0579 9.22393 34.0558 9.24581C34.0536 9.26988 34.0568 9.28191 34.0656 9.28301C34.1837 9.29176 34.2657 9.31364 34.3116 9.34865C34.3564 9.38366 34.375 9.44931 34.3684 9.54559L34.2525 11.0609C34.2492 11.1145 34.2504 11.1681 34.2558 11.2217C34.2635 11.2764 34.2744 11.33 34.2897 11.3836C34.3247 11.4897 34.3805 11.5871 34.4592 11.6757C34.5368 11.7643 34.6418 11.8365 34.773 11.8934C34.9031 11.9514 35.0561 11.9864 35.2277 11.9996C35.3218 12.0072 35.4202 11.9963 35.524 11.97C35.629 11.9438 35.7044 11.9186 35.7514 11.8978C35.8859 11.9088 36.0116 11.9383 36.1297 11.9875C36.2478 12.0357 36.3189 12.1122 36.344 12.2173L36.8316 11.9777C36.7026 11.8541 36.4687 11.7797 36.1287 11.7545ZM33.5944 11.8519C33.6031 11.8519 33.6064 11.8398 33.6053 11.8179C33.6053 11.7917 33.5988 11.7797 33.5889 11.7797C33.4971 11.7818 33.4184 11.7622 33.3539 11.7206C33.2883 11.6801 33.2544 11.6134 33.2522 11.5215L33.2215 10.3442C33.2193 10.2502 33.2467 10.1801 33.3003 10.1364C33.3549 10.0915 33.4271 10.0685 33.5135 10.0664C33.5211 10.0631 33.5244 10.0499 33.5244 10.0237C33.5244 10.016 33.5233 10.0095 33.5211 10.0051C33.5189 9.99962 33.5168 9.99634 33.5157 9.99415L32.5317 10.0182C32.5229 10.0193 32.5186 10.0303 32.5186 10.0521C32.5197 10.0784 32.524 10.0915 32.5328 10.0915C32.6388 10.0882 32.7154 10.1057 32.7624 10.1418C32.8094 10.1779 32.8334 10.2491 32.8367 10.3541L32.8466 10.772C32.8498 10.8847 32.7897 10.9722 32.6672 11.0335C32.5459 11.0959 32.4103 11.1287 32.2606 11.1331L32.0856 11.1057C32.0375 11.0937 31.9806 11.063 31.9161 11.0171C31.8505 10.9722 31.7937 10.8989 31.7456 10.7994C31.7182 10.7447 31.6997 10.6856 31.6876 10.6232C31.6756 10.5609 31.6691 10.4865 31.6669 10.4011L31.6461 9.58169C31.6417 9.40554 31.7369 9.31364 31.9326 9.30926C31.9402 9.30598 31.9446 9.29285 31.9435 9.26769C31.9435 9.25675 31.9424 9.248 31.9402 9.24362C31.938 9.23925 31.9347 9.23705 31.9347 9.23705L30.9497 9.26112C30.942 9.2644 30.9376 9.27535 30.9387 9.29723C30.9387 9.32239 30.9431 9.33442 30.9507 9.33333C31.0612 9.33114 31.1388 9.34864 31.1825 9.38694C31.2263 9.42304 31.2492 9.49197 31.2514 9.59262L31.2733 10.4635C31.2776 10.609 31.3137 10.748 31.3826 10.8771C31.4515 11.0072 31.5564 11.1101 31.6997 11.1878C31.8429 11.2644 32.0244 11.3005 32.2452 11.2939C32.3688 11.2917 32.4727 11.2731 32.5568 11.2392C32.6421 11.2042 32.711 11.167 32.7656 11.1276L32.8542 11.0652L32.8662 11.5313C32.8684 11.6298 32.8454 11.6998 32.7951 11.7403C32.7449 11.7818 32.6629 11.8037 32.5503 11.8059C32.5404 11.807 32.5349 11.819 32.536 11.842C32.536 11.8672 32.5426 11.8781 32.5525 11.8781L33.5944 11.8519ZM30.9923 11.8015C30.836 11.714 30.591 11.7009 30.2554 11.7611L30.0783 11.7917C30.1198 11.7457 30.1515 11.6823 30.1734 11.6013C30.1953 11.5215 30.2073 11.446 30.2106 11.3738C30.2117 11.3322 30.2128 11.2994 30.2117 11.272C30.2106 11.2458 30.2084 11.2228 30.2051 11.2031L29.9405 9.71516C29.9231 9.61888 29.9373 9.55214 29.981 9.51385C30.0247 9.47447 30.1045 9.44384 30.2193 9.42305C30.2292 9.42086 30.2324 9.40772 30.2281 9.38475C30.2248 9.36177 30.2171 9.35084 30.2073 9.35193L29.1807 9.53573C29.173 9.5401 29.1708 9.54996 29.1741 9.56856C29.1796 9.59591 29.1862 9.60794 29.1971 9.60685C29.3152 9.58496 29.4016 9.58606 29.4551 9.60904C29.5087 9.63201 29.5437 9.68999 29.5601 9.78299L29.7273 10.7195C29.7492 10.7261 29.7809 10.7425 29.8236 10.7676C29.8651 10.7928 29.9099 10.8377 29.9581 10.9011C30.0062 10.9657 30.04 11.0521 30.0586 11.1604C30.0685 11.2162 30.074 11.2731 30.074 11.3322C30.074 11.3913 30.0684 11.4514 30.0597 11.5127C30.0411 11.6451 29.9722 11.7611 29.8542 11.8617C29.7361 11.9613 29.5939 12.0258 29.4267 12.0554C28.9926 12.133 28.7325 11.9285 28.6461 11.4427L28.388 9.99305C28.3705 9.90006 28.3837 9.83223 28.4252 9.79175C28.4712 9.75127 28.5498 9.72172 28.6635 9.70203C28.6734 9.69875 28.6756 9.68452 28.6712 9.65826C28.668 9.63857 28.6625 9.62872 28.6537 9.62982L27.6282 9.81253C27.6206 9.81691 27.6194 9.82894 27.6227 9.84973C27.6271 9.87379 27.6337 9.88584 27.6413 9.88474C27.7583 9.86286 27.8436 9.86396 27.896 9.88693C27.9474 9.90991 27.9824 9.96789 27.9999 10.062L28.2667 11.5587C28.2754 11.6112 28.2907 11.6637 28.3104 11.714C28.3301 11.7643 28.3542 11.8136 28.3826 11.8617C28.4427 11.9569 28.5225 12.0368 28.6198 12.1024C28.7171 12.1691 28.8363 12.2129 28.9773 12.2359C29.1184 12.2589 29.2747 12.2545 29.4453 12.2238C29.5371 12.2074 29.6311 12.1724 29.7251 12.1221C29.8192 12.0707 29.8859 12.0269 29.9263 11.9952C30.0586 11.9711 30.1887 11.9678 30.3144 11.9864C30.4413 12.005 30.5298 12.0608 30.5801 12.156L30.9923 11.8015ZM27.4631 12.4361C27.5221 12.3475 27.5615 12.2567 27.5823 12.1615C27.6031 12.0652 27.6009 11.9766 27.5779 11.8934C27.5255 11.7107 27.4238 11.5773 27.2685 11.4941C27.1155 11.4099 26.9023 11.3377 26.63 11.2775C26.3578 11.2162 26.1588 11.1626 26.0364 11.1145C25.9139 11.0663 25.8352 10.9832 25.8013 10.8661C25.7696 10.7523 25.7893 10.6451 25.8614 10.5466C25.9347 10.4471 26.021 10.3825 26.1194 10.3541C26.243 10.3191 26.3589 10.3191 26.466 10.353C26.5721 10.388 26.6639 10.4361 26.7404 10.4985C26.7853 10.5357 26.8213 10.5685 26.8498 10.5981C26.8771 10.6276 26.9066 10.6626 26.9372 10.7009L27.0444 10.841L27.1329 10.8158L26.8115 10.0204L26.7645 10.0324L26.7372 10.0412C26.7427 10.0707 26.7372 10.1014 26.7219 10.1342C26.7077 10.1659 26.6825 10.1867 26.6475 10.1965C26.6081 10.2086 26.5415 10.2108 26.4485 10.2064C26.3556 10.202 26.2845 10.1998 26.2364 10.202C26.2015 10.2009 26.1697 10.2031 26.1413 10.2108C26.1118 10.2184 26.0812 10.2272 26.0484 10.237C25.9084 10.2764 25.7925 10.341 25.7018 10.4307C25.61 10.5193 25.5509 10.621 25.5214 10.7337C25.4919 10.8464 25.493 10.9569 25.5236 11.0641C25.5728 11.2359 25.6668 11.3595 25.8046 11.4339C25.9434 11.5072 26.1413 11.5729 26.3993 11.6298C26.6562 11.6888 26.8509 11.7479 26.9821 11.8114C27.1133 11.8737 27.2007 11.981 27.2434 12.1319C27.2805 12.2621 27.2586 12.3792 27.1788 12.4831C27.099 12.5871 26.9875 12.6604 26.8454 12.7009C26.677 12.749 26.5284 12.7206 26.4026 12.6177C26.2769 12.5138 26.173 12.388 26.0932 12.2403L25.7423 12.5116C25.7652 12.5521 25.8166 12.6101 25.8964 12.6855C25.9751 12.7621 26.103 12.8223 26.278 12.8693C26.4529 12.9153 26.6705 12.9011 26.9296 12.8278C27.0378 12.7971 27.1395 12.7457 27.2335 12.6746C27.3275 12.6035 27.4041 12.5236 27.4631 12.4361ZM24.9463 12.3103C24.9715 12.284 25.0109 12.2578 25.0677 12.2326C25.0732 12.2271 25.0721 12.214 25.0622 12.1921C25.0513 12.167 25.0415 12.156 25.0338 12.1593L24.2685 12.5061C24.2619 12.5116 24.263 12.5225 24.2707 12.5411C24.2838 12.5696 24.2958 12.5816 24.3046 12.5783C24.3472 12.5575 24.3844 12.5455 24.415 12.5411C24.4434 12.5357 24.4685 12.5367 24.4882 12.5444C24.5254 12.5597 24.5637 12.6133 24.6041 12.7031L24.6096 12.714C24.6927 12.8989 24.7233 13.0542 24.7003 13.1812C24.6785 13.3092 24.6347 13.4032 24.568 13.4656C24.5024 13.528 24.4369 13.5739 24.3713 13.6035C24.3024 13.6341 24.2226 13.6538 24.1296 13.6614C24.0378 13.6702 23.935 13.6396 23.8235 13.5695C23.712 13.5006 23.6114 13.3682 23.524 13.1735L23.1719 12.3967L23.9274 12.0554C24.028 12.0094 24.1264 11.9832 24.2258 11.9744C24.3242 11.9656 24.4128 11.9711 24.4926 11.9908C24.5724 12.0105 24.6314 12.0335 24.6686 12.0641L24.9649 11.6254C24.8949 11.6046 24.8173 11.6024 24.731 11.6188C24.6435 11.6331 24.5866 11.6451 24.5593 11.6517C24.5112 11.6637 24.4642 11.679 24.4182 11.6998C24.415 11.7009 24.3571 11.7239 24.2434 11.7676C24.2215 11.7764 24.1897 11.7906 24.1471 11.8092L23.1183 12.2753L22.9204 11.8398C22.8822 11.7545 22.8789 11.6812 22.9106 11.621C22.9423 11.5598 22.9981 11.5116 23.0779 11.4755C23.0866 11.4689 23.0877 11.4558 23.0779 11.435C23.068 11.4142 23.0593 11.4044 23.0505 11.4088L22.1573 11.8125C22.1486 11.818 22.1485 11.83 22.1584 11.8508C22.1682 11.8737 22.1781 11.8825 22.1879 11.8781C22.2852 11.8344 22.3628 11.8212 22.4175 11.8398C22.4733 11.8573 22.5203 11.9109 22.5618 12.0018L23.1785 13.3682C23.2386 13.4984 23.3261 13.61 23.4441 13.703C23.5622 13.7938 23.7043 13.8463 23.8738 13.8595C24.0421 13.8715 24.2269 13.8321 24.4292 13.7413C24.5812 13.6713 24.7058 13.5892 24.8009 13.4919C24.8971 13.3956 24.9649 13.2938 25.0032 13.1888C25.0425 13.0827 25.059 12.9798 25.0546 12.8803C25.0524 12.8278 25.0447 12.7764 25.0338 12.7282C25.0218 12.6801 25.0054 12.633 24.9857 12.5893L24.9638 12.5411C24.9354 12.4788 24.919 12.4295 24.9157 12.3945C24.9135 12.3584 24.9244 12.3311 24.9463 12.3103ZM22.587 14.1636L21.8752 13.0542C21.7692 12.8879 21.6467 12.7676 21.509 12.6932C21.3701 12.6177 21.228 12.5805 21.0815 12.5805C20.9361 12.5805 20.7896 12.609 20.6453 12.6648C20.5687 12.6921 20.4966 12.7216 20.4288 12.7567C20.3599 12.7906 20.29 12.8311 20.2189 12.877C19.9948 13.0214 19.8286 13.1899 19.7203 13.3825C19.611 13.5761 19.5596 13.7708 19.5662 13.9667C19.5716 14.1614 19.6263 14.3398 19.7302 14.5017C19.8723 14.7238 20.0713 14.8649 20.326 14.9229L20.2812 14.3912C20.1533 14.3507 20.044 14.2599 19.9521 14.1177C19.8461 13.9525 19.8056 13.773 19.8286 13.5827C19.8515 13.3912 19.9587 13.2359 20.1467 13.1144L21.1274 14.6472L21.4685 14.4328L20.4813 12.8923C20.5436 12.8529 20.63 12.8212 20.7404 12.796C20.8508 12.772 20.9766 12.7884 21.1165 12.8431C21.2564 12.8989 21.3876 13.0236 21.5101 13.2151L22.2568 14.3802C22.3006 14.4481 22.3038 14.5181 22.2688 14.5925C22.2339 14.6669 22.1748 14.7304 22.0939 14.7829C22.0852 14.7894 22.0873 14.8026 22.1005 14.8222C22.1125 14.8419 22.1234 14.8496 22.13 14.8452L23.0538 14.2522C23.0604 14.2479 23.0571 14.2347 23.0429 14.2128C23.032 14.1953 23.0221 14.1866 23.0156 14.191C22.9751 14.2172 22.9336 14.2358 22.8931 14.2479C22.8516 14.261 22.8122 14.2676 22.7718 14.2676C22.6909 14.2654 22.6296 14.2304 22.587 14.1636ZM18.24 16.9163L18.9004 16.285C18.9047 16.2774 18.8982 16.2653 18.8796 16.2456C18.861 16.2259 18.8489 16.2183 18.8424 16.2237C18.8205 16.2456 18.7976 16.2631 18.7735 16.2784C18.7495 16.2938 18.7298 16.3069 18.7134 16.3156C18.673 16.331 18.6358 16.3331 18.6008 16.3189C18.5647 16.3058 18.5232 16.2741 18.4751 16.2237L18.3286 16.0695C18.2859 16.0235 18.2422 15.9852 18.1995 15.9535C18.1569 15.9229 18.111 15.8944 18.0629 15.8704C17.9656 15.8211 17.8628 15.796 17.7546 15.7949C17.6463 15.7927 17.5327 15.8178 17.4124 15.8715C17.2943 15.9251 17.1708 16.0104 17.0461 16.1307C16.9619 16.2106 16.9007 16.2916 16.8624 16.3714C16.8253 16.4524 16.7991 16.5268 16.7859 16.5935L16.7651 16.6986C16.7651 16.6986 16.7608 16.6986 16.7586 16.6986C16.7553 16.6986 16.7531 16.6975 16.752 16.6953L16.4273 16.355C16.3628 16.2872 16.3355 16.2194 16.3453 16.1526C16.3551 16.0848 16.3912 16.0213 16.4546 15.9601C16.4612 15.9502 16.4579 15.9371 16.4426 15.9218C16.4262 15.9043 16.4142 15.8988 16.4077 15.9054L15.6981 16.5826C15.6915 16.5903 15.6959 16.6023 15.7112 16.6187C15.7287 16.6373 15.7407 16.6417 15.7484 16.634C15.826 16.5607 15.8948 16.5224 15.9517 16.5213C16.0107 16.5202 16.0742 16.5552 16.142 16.6275L17.5064 18.0596C17.5742 18.1307 17.6037 18.1985 17.5938 18.262C17.5851 18.3254 17.5392 18.3966 17.4572 18.4742C17.4539 18.4819 17.4583 18.4928 17.4736 18.5081C17.49 18.5267 17.5009 18.5322 17.5075 18.5278L18.2619 17.8069C18.2674 17.8014 18.2619 17.7904 18.2466 17.7751C18.2291 17.7554 18.216 17.7511 18.2094 17.7576C18.1449 17.8189 18.0749 17.8572 18.0006 17.8692C17.9262 17.8823 17.8562 17.855 17.7917 17.7872L16.9564 16.9108C16.8887 16.8397 16.8745 16.7369 16.916 16.6056C16.9565 16.4743 17.033 16.3539 17.1467 16.2467C17.1697 16.2303 17.197 16.2117 17.232 16.1887C17.2658 16.1669 17.2877 16.1548 17.2965 16.1493C17.338 16.1253 17.3982 16.1067 17.4769 16.0946C17.5545 16.0815 17.6442 16.0946 17.748 16.134C17.8497 16.1734 17.958 16.2522 18.0706 16.3704L18.1908 16.4962C18.2586 16.5673 18.2903 16.6285 18.2859 16.6811C18.2837 16.7336 18.2477 16.7916 18.1821 16.855C18.1777 16.8627 18.1864 16.8769 18.2061 16.8988C18.2225 16.9152 18.2345 16.9218 18.24 16.9163ZM15.9747 19.7083C15.8402 19.6908 15.6937 19.6132 15.5341 19.4742L14.4386 18.5256L14.2757 18.7138C14.2112 18.7882 14.1205 18.8473 14.0024 18.8911C13.8854 18.9348 13.7728 18.9567 13.6645 18.9578C13.5563 18.9589 13.482 18.9403 13.4404 18.9053L13.4393 19.4162C13.5727 19.4206 13.705 19.3779 13.8373 19.2915C13.9083 19.2434 13.9663 19.2029 14.0122 19.1679C14.0581 19.1329 14.0964 19.1 14.1292 19.0672L14.2691 18.9064L15.31 19.8068C15.4182 19.9009 15.5439 19.9643 15.6883 19.9961C15.8326 20.0289 15.9845 20.0158 16.143 19.9589C16.3027 19.8998 16.4547 19.7882 16.599 19.6208C16.7094 19.4939 16.7892 19.3648 16.8395 19.2335C16.8898 19.1033 16.9116 18.9808 16.9073 18.8692C16.9018 18.7565 16.8767 18.6526 16.8275 18.5563C16.7794 18.4611 16.7159 18.3801 16.6383 18.3112L16.4907 18.1843C16.4393 18.1405 16.4065 18.1011 16.3923 18.0683C16.377 18.0355 16.3748 18.0038 16.3858 17.9731C16.3978 17.9349 16.4251 17.8911 16.4645 17.8462C16.4666 17.8386 16.4612 17.8276 16.4437 17.8134C16.4262 17.7981 16.4142 17.7926 16.4087 17.7992L15.8194 18.4808C15.815 18.4885 15.8205 18.4983 15.8337 18.5092C15.8555 18.5278 15.8697 18.5333 15.8763 18.5256C15.908 18.4885 15.9375 18.4611 15.967 18.4425C15.9944 18.4239 16.0206 18.4119 16.0436 18.4075C16.0895 18.3976 16.1485 18.4261 16.2228 18.4896L16.3846 18.6296C16.529 18.7554 16.6121 18.879 16.6372 19.0027C16.6613 19.1252 16.6536 19.2313 16.6154 19.3178C16.5771 19.4042 16.5345 19.4753 16.4875 19.5289C16.4481 19.5749 16.3847 19.6208 16.3016 19.6668C16.2174 19.7105 16.108 19.7258 15.9747 19.7083ZM13.0271 20.0923C13.0282 20.0333 13.061 19.9545 13.1234 19.856C13.1277 19.8473 13.1212 19.8352 13.1015 19.8232C13.0818 19.8101 13.0687 19.8079 13.0632 19.8167L12.5002 20.6952C12.498 20.7039 12.5046 20.7127 12.5199 20.7225C12.5439 20.7378 12.557 20.74 12.5625 20.7313C12.6281 20.6295 12.6871 20.5672 12.7407 20.5442C12.7943 20.5201 12.8599 20.5343 12.9397 20.5847L13.7399 21.0989C13.7596 21.0858 13.7935 21.0737 13.8405 21.0595C13.8875 21.0464 13.9499 21.0442 14.0297 21.0529C14.1095 21.0606 14.1959 21.0945 14.2877 21.1536C14.3358 21.1842 14.3817 21.2203 14.4244 21.2597C14.467 21.3002 14.5086 21.344 14.5468 21.3932C14.6321 21.496 14.6704 21.6251 14.6638 21.7805C14.6562 21.9348 14.607 22.0835 14.5151 22.2269C14.2779 22.5977 13.951 22.6503 13.5355 22.3833L12.2968 21.5879C12.217 21.5376 12.1765 21.4829 12.1754 21.4238C12.1765 21.3637 12.2082 21.2849 12.2706 21.1875C12.2749 21.1787 12.2662 21.1667 12.2443 21.1525C12.2269 21.1416 12.2159 21.1394 12.2115 21.1459L11.6485 22.0234C11.6474 22.0321 11.654 22.0409 11.6725 22.0529C11.6933 22.066 11.7053 22.0693 11.7097 22.0628C11.7742 21.9632 11.8322 21.9008 11.8846 21.8779C11.9371 21.8549 12.0038 21.8691 12.0847 21.9205L13.3628 22.7411C13.4076 22.7695 13.4568 22.7936 13.506 22.8144C13.5563 22.8341 13.6099 22.8494 13.6645 22.8614C13.7749 22.8822 13.8865 22.8778 14.0013 22.8505C14.1161 22.8242 14.2298 22.7662 14.3424 22.6776C14.455 22.5901 14.5578 22.473 14.6518 22.3275C14.7021 22.2477 14.7403 22.1558 14.7666 22.0518C14.7928 21.9479 14.807 21.8702 14.8103 21.8177C14.8825 21.705 14.9689 21.6076 15.0684 21.5267C15.1678 21.4457 15.2684 21.4205 15.3723 21.4479L15.393 20.9041C15.2225 20.9599 15.0464 21.1306 14.8628 21.4173L14.7644 21.5693C14.7589 21.507 14.7348 21.4402 14.69 21.3702C14.6452 21.2991 14.5982 21.2389 14.5479 21.1886C14.5184 21.158 14.4943 21.1361 14.4736 21.1175C14.4539 21.1 14.4364 21.0858 14.42 21.0759L13.1474 20.2597C13.0665 20.2072 13.026 20.1514 13.0271 20.0923ZM11.4408 23.3461C11.28 23.2739 11.2396 23.1481 11.3194 22.9697C11.3205 22.961 11.3096 22.9511 11.2877 22.9413C11.2779 22.9369 11.2691 22.9336 11.2647 22.9336C11.2593 22.9336 11.256 22.9358 11.256 22.9358L10.8504 23.833C10.8482 23.8417 10.8558 23.8505 10.8766 23.8603C10.8996 23.8702 10.9127 23.8712 10.9159 23.8625C10.9608 23.764 11.01 23.7028 11.0635 23.6798C11.1171 23.6568 11.1893 23.6656 11.2789 23.706L12.3886 24.2082C12.4914 24.2553 12.5439 24.3461 12.5472 24.4828C12.5505 24.6207 12.5209 24.7563 12.4597 24.892L12.3591 25.0375C12.3263 25.0747 12.276 25.113 12.2071 25.1513C12.1372 25.1896 12.0464 25.2093 11.9349 25.2093C11.8748 25.2093 11.8136 25.2005 11.7512 25.1841C11.69 25.1677 11.6201 25.1415 11.5425 25.1064L11.4396 25.0605C11.2778 24.9872 11.2374 24.8614 11.3183 24.683C11.3194 24.6743 11.3074 24.6644 11.2844 24.6546C11.2778 24.6513 11.2713 24.6491 11.2669 24.6491C11.2604 24.6491 11.2571 24.6491 11.2538 24.6491L10.8482 25.5484C10.8449 25.555 10.8537 25.5638 10.8733 25.5725C10.8974 25.5835 10.9105 25.5856 10.9138 25.578C10.9597 25.4762 11.0089 25.4139 11.0603 25.3909C11.1117 25.3679 11.1838 25.3778 11.2778 25.4193L11.4287 25.4883C11.561 25.5484 11.7009 25.5758 11.8474 25.5703C11.9939 25.5649 12.1339 25.5145 12.2651 25.4204C12.3963 25.3264 12.5078 25.1776 12.5985 24.9773C12.6488 24.8646 12.6773 24.7629 12.6839 24.6721C12.6893 24.5813 12.6871 24.5025 12.6751 24.4358L12.6565 24.3297L13.3901 24.6612L13.4798 24.462C13.5147 24.3855 13.5574 24.3154 13.6066 24.252C13.6667 24.1809 13.717 24.1283 13.7607 24.0933C13.811 24.054 13.8613 24.0233 13.9127 24.0014C13.963 23.9796 14.0078 23.9664 14.0439 23.9653L13.9761 23.4391C13.8143 23.5201 13.6492 23.7443 13.4841 24.1119L13.424 24.2443L11.4408 23.3461ZM10.869 26.2082C10.8252 26.2836 10.7968 26.3351 10.7848 26.3602C10.7618 26.4051 10.7443 26.451 10.7301 26.4992C10.729 26.5025 10.7093 26.5615 10.6699 26.6764C10.6623 26.6983 10.6514 26.7333 10.6383 26.7782L10.3299 27.8646L9.87078 27.7344C9.78113 27.7081 9.72315 27.6644 9.69691 27.6009C9.67067 27.5374 9.6696 27.4642 9.69366 27.3799C9.69475 27.3679 9.68488 27.3591 9.66301 27.3526C9.64115 27.3471 9.62805 27.3482 9.62586 27.3569L9.35798 28.3C9.35579 28.3099 9.36563 28.3186 9.3875 28.3252C9.41155 28.3317 9.42471 28.3296 9.4269 28.3197C9.45642 28.2158 9.49576 28.1479 9.54605 28.1195C9.59525 28.0878 9.6674 28.0867 9.76252 28.1129L11.2046 28.5232C11.3423 28.5626 11.4845 28.5659 11.6299 28.5363C11.7764 28.5046 11.9087 28.4302 12.0279 28.3077C12.1459 28.1884 12.2345 28.021 12.2957 27.8077C12.3405 27.6458 12.358 27.4992 12.346 27.3624C12.334 27.2278 12.3001 27.1108 12.2443 27.0123C12.1886 26.9149 12.1208 26.8351 12.0431 26.7749C12.0005 26.7421 11.9568 26.7147 11.912 26.6917C11.8671 26.6699 11.8212 26.6524 11.7753 26.6392L11.7239 26.625C11.6583 26.6053 11.6113 26.5867 11.5807 26.567C11.5522 26.5462 11.5391 26.52 11.537 26.4893C11.5326 26.4543 11.5391 26.4062 11.5555 26.3471C11.5555 26.3384 11.5435 26.3307 11.5206 26.3241C11.4943 26.3165 11.4801 26.3165 11.4779 26.3241L11.2483 27.1337C11.2494 27.1425 11.2581 27.1491 11.2778 27.1545C11.3073 27.1633 11.3238 27.1622 11.327 27.1523C11.3402 27.1064 11.3544 27.0714 11.3697 27.0451C11.385 27.0189 11.4025 27.0014 11.42 26.9904C11.4561 26.9718 11.5217 26.9773 11.6157 27.0035L11.6277 27.0079C11.8223 27.0626 11.9612 27.1403 12.0443 27.2388C12.1263 27.3383 12.17 27.4324 12.1754 27.5232C12.1798 27.614 12.1721 27.6939 12.1525 27.7628C12.1328 27.835 12.0956 27.9094 12.0421 27.986C11.9885 28.0615 11.8988 28.1206 11.7742 28.16C11.6485 28.2004 11.4834 28.1928 11.2789 28.1337L10.4578 27.9007L10.6842 27.1031C10.7148 26.997 10.7585 26.9051 10.8154 26.8241C10.8722 26.7432 10.9334 26.6786 11.0001 26.6305C11.0668 26.5812 11.1226 26.5517 11.1696 26.5419L11.0264 26.0331C10.9652 26.0736 10.9127 26.1316 10.869 26.2082ZM9.41814 29.3667C9.33068 29.4324 9.25633 29.5254 9.19292 29.6446C9.1295 29.7639 9.08685 29.9072 9.06607 30.0757C9.04421 30.242 9.04969 30.3897 9.0814 30.521C9.1131 30.6533 9.16341 30.7638 9.23338 30.8546C9.30335 30.9444 9.38532 31.0144 9.47825 31.0647C9.57228 31.115 9.67399 31.1468 9.78441 31.161L11.2516 31.3481C11.35 31.3601 11.4145 31.394 11.4473 31.4498C11.4801 31.5045 11.4889 31.5888 11.4747 31.7004C11.4768 31.7091 11.4878 31.7146 11.5086 31.7168C11.5326 31.72 11.5457 31.7179 11.5468 31.7102L11.678 30.6752C11.6791 30.6676 11.6681 30.6621 11.6463 30.6588C11.62 30.6555 11.6069 30.6599 11.6058 30.6698C11.5949 30.7584 11.5643 30.8317 11.514 30.8875C11.4648 30.9455 11.3937 30.9684 11.3019 30.9564L9.8828 30.7759C9.6707 30.7485 9.51435 30.6916 9.41376 30.6052C9.31318 30.5177 9.25306 30.4291 9.23338 30.3372C9.2137 30.2453 9.20822 30.1632 9.21806 30.0899C9.22571 30.0264 9.25085 29.9521 9.29349 29.8689C9.33504 29.7868 9.41703 29.7157 9.5373 29.6556C9.65647 29.5954 9.82158 29.579 10.0304 29.6052L10.1572 29.6216C10.2545 29.6337 10.319 29.6621 10.3485 29.7048C10.3791 29.7475 10.3879 29.8142 10.377 29.905C10.3781 29.9138 10.3933 29.9192 10.4239 29.9236C10.4469 29.9258 10.46 29.9236 10.46 29.9159L10.5759 29.009C10.5737 29.0013 10.5606 28.9947 10.5344 28.9915C10.5071 28.9882 10.4928 28.9904 10.4917 28.998C10.4885 29.0287 10.4819 29.0571 10.4732 29.0845C10.4644 29.1107 10.4568 29.1337 10.4491 29.1512C10.4284 29.1884 10.3999 29.2136 10.3638 29.2245C10.3289 29.2376 10.2753 29.2387 10.2075 29.23L10.0315 29.2081C9.92433 29.195 9.81612 29.2004 9.70898 29.2267C9.60183 29.254 9.50561 29.3011 9.41814 29.3667ZM9.15902 33.7561C9.06609 33.7539 8.99939 33.7255 8.95893 33.6708C8.91739 33.6161 8.89883 33.5449 8.90101 33.4574C8.89883 33.4454 8.88682 33.4388 8.86386 33.4388C8.8409 33.4377 8.82884 33.4421 8.82884 33.452L8.80369 34.4322C8.80479 34.4421 8.8157 34.4486 8.83866 34.4486C8.86381 34.4497 8.87587 34.4443 8.87587 34.4344C8.87915 34.3261 8.8999 34.2517 8.94036 34.2101C8.98081 34.1675 9.0508 34.1478 9.14919 34.1511L10.647 34.1883C10.7913 34.1926 10.9291 34.162 11.0635 34.0953C11.1969 34.0285 11.3063 33.9224 11.3915 33.7758C11.4757 33.6303 11.5205 33.4454 11.526 33.2244C11.5304 33.057 11.5107 32.9093 11.4648 32.7802C11.4189 32.6522 11.3577 32.5472 11.2789 32.4662C11.2002 32.3852 11.116 32.3251 11.0253 32.2857C10.9761 32.266 10.9269 32.2496 10.8777 32.2386C10.8296 32.2288 10.7804 32.2233 10.7323 32.2211L10.6787 32.22C10.6109 32.2189 10.5595 32.2113 10.5256 32.2003C10.4939 32.1861 10.4732 32.1642 10.4644 32.1358C10.4513 32.103 10.4459 32.0548 10.447 31.9925C10.4448 31.9848 10.4316 31.9804 10.4076 31.9793C10.3802 31.9782 10.3671 31.9826 10.366 31.9914L10.3453 32.8316C10.3474 32.8404 10.3584 32.8437 10.378 32.8448C10.4097 32.8458 10.425 32.8404 10.4261 32.8305C10.4272 32.7835 10.4316 32.7452 10.4404 32.7156C10.4491 32.6872 10.4601 32.6653 10.4754 32.6511C10.506 32.6237 10.5705 32.6117 10.6689 32.615H10.6809C10.8831 32.6205 11.0373 32.6599 11.1412 32.7364C11.2461 32.8108 11.3117 32.8918 11.3391 32.9793C11.3664 33.0657 11.3795 33.1445 11.3773 33.2167C11.3762 33.2922 11.3588 33.3721 11.3249 33.4596C11.2921 33.546 11.2199 33.6248 11.1095 33.6959C10.9979 33.766 10.8362 33.7988 10.623 33.7933L9.77016 33.7714L9.79098 32.9421C9.79426 32.8327 9.81282 32.7321 9.8489 32.6391C9.88388 32.5472 9.92652 32.4695 9.97899 32.406C10.0315 32.3415 10.0785 32.2999 10.1212 32.278L9.85653 31.8218C9.80733 31.8754 9.77128 31.9443 9.74832 32.0297C9.72318 32.1139 9.70895 32.1697 9.70348 32.1982C9.69255 32.2474 9.686 32.2966 9.6849 32.3458C9.6849 32.3502 9.68054 32.4126 9.6707 32.5329C9.66852 32.5559 9.66742 32.592 9.66632 32.6391L9.6368 33.7692L9.15902 33.7561ZM10.3846 41.897L10.3179 41.9244L10.7312 42.9812L10.7979 42.955L10.7673 42.874C10.7268 42.7734 10.7246 42.6902 10.7574 42.6235C10.7815 42.5743 10.8701 42.5206 11.0231 42.4605L11.6452 42.2165L12.8205 42.4462C12.9714 42.4747 13.0818 42.5031 13.1529 42.5316C13.224 42.5611 13.2852 42.6005 13.3355 42.6486C13.3858 42.699 13.4185 42.7395 13.4305 42.7723L13.4492 42.8204L13.4831 42.8062L13.4819 42.804L13.4404 42.7198L13.4809 42.7001L13.178 41.9277L13.1113 41.9539C13.1364 42.0174 13.1474 42.071 13.1452 42.1104C13.143 42.1519 13.131 42.187 13.1102 42.2143C13.0895 42.2417 13.0632 42.2624 13.0315 42.2756C12.9746 42.2975 12.8751 42.2942 12.733 42.2646L11.7786 42.0786L12.3755 41.2472C12.4597 41.1279 12.5253 41.0601 12.569 41.0426C12.6237 41.0207 12.674 41.0283 12.7188 41.0666C12.7636 41.1038 12.7975 41.152 12.8194 41.2089L12.8413 41.2647L12.9091 41.2373L12.4936 40.1772L12.4269 40.2034C12.4433 40.2472 12.451 40.2855 12.4499 40.3172C12.4411 40.4244 12.428 40.4977 12.4094 40.5371C12.3854 40.5841 12.3307 40.6684 12.2454 40.7909L11.4725 41.8784L10.8843 42.1082C10.8165 42.1355 10.7585 42.153 10.7093 42.164C10.6612 42.1749 10.6251 42.1771 10.6011 42.1716C10.5213 42.1519 10.4601 42.0896 10.4196 41.9857L10.3846 41.897ZM13.5169 42.7931L13.4831 42.8062C13.5312 42.9036 13.5432 42.9845 13.518 43.0513C13.4994 43.0994 13.4142 43.1607 13.2622 43.2373L11.7151 44.0129C11.5993 44.072 11.5184 44.1027 11.4735 44.1081C11.4276 44.1136 11.3883 44.1016 11.3522 44.0742C11.2997 44.0381 11.2604 43.9911 11.2308 43.9342L11.1893 43.8499L11.1237 43.8817L12.0443 45.7186L12.744 45.6245L12.709 45.5545C12.5231 45.5512 12.3755 45.5326 12.2695 45.4965C12.1831 45.4659 12.1164 45.4254 12.0683 45.3751C12.0202 45.3247 11.9623 45.2317 11.8956 45.0972L11.6933 44.6945C11.6594 44.6278 11.6452 44.5797 11.6463 44.549C11.6485 44.5173 11.6583 44.4921 11.6747 44.4736C11.6922 44.4528 11.7545 44.4167 11.8606 44.3631L12.6445 43.9703L12.9058 44.4921C12.955 44.5917 12.9801 44.6705 12.9812 44.7307C12.9823 44.7908 12.967 44.8422 12.9364 44.8838C12.9135 44.9156 12.8467 44.9692 12.7374 45.0446L12.7702 45.1092L13.6 44.6935L13.5683 44.6278C13.5016 44.6617 13.4404 44.6814 13.3836 44.6869C13.3267 44.6924 13.2764 44.6869 13.2327 44.6694C13.1693 44.6442 13.1037 44.5633 13.0359 44.4276L12.7735 43.9057L13.7159 43.4331L14.0428 44.0852C14.1029 44.2044 14.1357 44.2919 14.1412 44.3466C14.1434 44.4188 14.1292 44.4812 14.0996 44.5315C14.0701 44.584 13.9969 44.6541 13.8821 44.7427L13.916 44.8116L14.4244 44.5239L13.5049 42.688L13.4809 42.7001L13.5169 42.7931ZM12.3307 46.0041L12.2706 46.0424L12.8817 47.003L12.9429 46.9647L12.8872 46.8772C12.8336 46.793 12.8183 46.7153 12.8402 46.642C12.8544 46.5884 12.932 46.5184 13.0741 46.4275L13.7279 46.0107C13.7378 46.026 13.7455 46.037 13.7498 46.0435L13.7607 46.0621L13.7902 46.1081L13.8788 46.2459L13.3114 47.6791L13.693 48.2787L13.7542 48.2404C13.6908 48.1058 13.658 47.9877 13.6591 47.8837C13.6591 47.7743 13.7006 47.6212 13.7815 47.422L14.1281 46.5457C14.2932 46.7087 14.4539 46.8039 14.6124 46.828C14.7698 46.8542 14.9175 46.8225 15.0552 46.735C15.1853 46.6529 15.2717 46.5413 15.3143 46.4024C15.3581 46.2645 15.3613 46.1278 15.3242 45.9943C15.2881 45.8608 15.1919 45.6726 15.0377 45.4309L14.5162 44.6114L14.455 44.6497L14.5086 44.735C14.5632 44.8193 14.5796 44.8991 14.5577 44.9724C14.5435 45.025 14.4659 45.0972 14.3238 45.1869L12.873 46.1114C12.744 46.1945 12.6554 46.235 12.6073 46.2328C12.5198 46.2306 12.4455 46.1825 12.3854 46.0884L12.3307 46.0041ZM13.8329 45.944L14.7677 45.3477C14.8573 45.444 14.924 45.5238 14.9655 45.5895C15.0585 45.7361 15.0891 45.8805 15.0563 46.0249C15.0235 46.1693 14.9382 46.2853 14.7983 46.3739C14.6551 46.4647 14.502 46.4855 14.3391 46.4352C14.1751 46.3849 14.0253 46.2536 13.8897 46.0391L13.8646 46.0009L13.8329 45.944ZM13.8121 48.247L13.7575 48.294L15.0946 49.8531L15.7505 49.5927L15.6991 49.5325C15.5187 49.5741 15.3712 49.5916 15.2586 49.5828C15.1678 49.5741 15.0935 49.5511 15.0345 49.5139C14.9754 49.4767 14.8978 49.4012 14.7994 49.2863L14.5053 48.9439C14.4572 48.8892 14.4309 48.8454 14.4255 48.8148C14.42 48.7842 14.4233 48.7579 14.4353 48.7349C14.4474 48.7109 14.4987 48.6605 14.5884 48.5828L15.2531 48.0117L15.6347 48.4548C15.7057 48.5391 15.7484 48.6091 15.7648 48.6671C15.7801 48.7262 15.7779 48.7787 15.7582 48.8257C15.7429 48.864 15.6915 48.9329 15.6041 49.0314L15.651 49.0872L16.3562 48.4811L16.3092 48.4264C16.2524 48.4745 16.1977 48.5084 16.1441 48.527C16.0906 48.5467 16.0403 48.5533 15.9933 48.5467C15.9255 48.538 15.8424 48.4756 15.744 48.3607L15.3635 47.9177L16.1627 47.2306L16.6383 47.7842C16.7247 47.8859 16.7782 47.9614 16.7968 48.0139C16.8165 48.084 16.8176 48.1474 16.8012 48.2032C16.7859 48.2612 16.7323 48.3465 16.6416 48.4614L16.6919 48.5194L17.115 48.1168L15.7779 46.5588L15.7232 46.6059L15.7844 46.6781C15.8555 46.7601 15.8872 46.8378 15.8796 46.9078C15.8719 46.9593 15.8041 47.0391 15.6751 47.1507L14.362 48.2787C14.2636 48.364 14.1937 48.4133 14.1511 48.4297C14.1084 48.445 14.0669 48.4439 14.0242 48.4264C13.9652 48.4034 13.916 48.3684 13.8734 48.3192L13.8121 48.247ZM17.1653 48.8192L16.2972 51.1681L16.3497 51.2184L18.5888 50.225C18.7211 50.1649 18.8337 50.1375 18.9255 50.1397C18.9911 50.1419 19.0632 50.1681 19.143 50.2228L19.1934 50.1692L18.5997 49.6014L18.5494 49.6539L18.5691 49.6813C18.6259 49.7579 18.6555 49.8202 18.6587 49.8695C18.662 49.9198 18.65 49.9592 18.6237 49.9854C18.5833 50.0281 18.4882 50.0828 18.3373 50.1506L16.8165 50.8312L17.4069 49.2316C17.4594 49.0916 17.5086 48.9964 17.5545 48.9483C17.5873 48.9143 17.6277 48.899 17.6758 48.9034C17.7239 48.9078 17.795 48.9472 17.8912 49.0238L17.9415 48.9712L17.1555 48.2174L17.1062 48.2699C17.1609 48.3334 17.197 48.3881 17.2134 48.4362C17.2243 48.4625 17.2309 48.4877 17.2353 48.5128C17.2396 48.5369 17.2396 48.5632 17.2363 48.5883C17.232 48.6222 17.2079 48.6988 17.1653 48.8192ZM17.0527 51.7655L17.009 51.8235L17.6748 52.3333L17.7196 52.2764C17.6693 52.2381 17.631 52.202 17.6048 52.1703C17.5796 52.1364 17.5622 52.1057 17.5556 52.0773C17.5447 52.0281 17.5512 51.9876 17.5753 51.9558C17.6059 51.9165 17.6704 51.8694 17.771 51.8147L18.1646 51.5882L18.9867 52.2184L18.8862 52.6188C18.8501 52.7479 18.814 52.8366 18.779 52.8825C18.7528 52.9175 18.7156 52.935 18.6675 52.9361C18.6402 52.9361 18.6095 52.9296 18.5768 52.9153C18.5429 52.9022 18.5057 52.8792 18.4641 52.8475L18.4204 52.9055L19.2546 53.5444L19.2994 53.4875C19.2579 53.4547 19.225 53.4197 19.1999 53.3814C19.1758 53.3431 19.1595 53.3037 19.1496 53.2611C19.1354 53.1823 19.1518 53.0488 19.201 52.8617L19.8111 50.5379L19.7564 50.4964L17.6802 51.667C17.4955 51.771 17.3588 51.8278 17.2714 51.8366C17.2243 51.8399 17.1522 51.8158 17.0527 51.7655ZM18.3012 51.5106L19.3279 50.9373L19.0305 52.0696L18.3012 51.5106ZM19.3792 53.6046L19.3431 53.667L20.1489 54.1319L20.185 54.0696L20.103 54.0214C20.0123 53.97 19.9598 53.9077 19.9444 53.8354C19.9346 53.7818 19.9707 53.6834 20.0516 53.5422L20.8705 52.1232L21.321 54.8606L21.38 54.8945L22.5039 52.9482C22.54 52.8847 22.5739 52.8344 22.6056 52.795C22.6362 52.7567 22.6624 52.7326 22.6843 52.7217C22.7597 52.6867 22.8472 52.6976 22.9434 52.7534L23.0254 52.8005L23.0615 52.7381L22.2568 52.2731L22.2207 52.3355L22.3005 52.3814C22.3924 52.435 22.4459 52.4974 22.459 52.5685C22.4711 52.6221 22.435 52.7195 22.3541 52.8617L21.5855 54.1921L21.1722 51.6484L20.5501 51.2863L20.513 51.3497C20.5808 51.388 20.6278 51.4219 20.654 51.4504C20.7098 51.5138 20.7469 51.5686 20.7666 51.6134C20.7885 51.6572 20.8082 51.737 20.8278 51.8508L19.9018 53.4569C19.8647 53.5193 19.8307 53.5718 19.799 53.609C19.7684 53.6484 19.7422 53.6724 19.7203 53.6834C19.646 53.7184 19.5585 53.7074 19.4601 53.6506L19.3792 53.6046ZM23.2419 54.8595L22.9029 55.7074L22.9696 55.7336C23.0013 55.6811 23.0298 55.6494 23.0527 55.6385C23.0812 55.6286 23.1085 55.6297 23.1369 55.6406C23.1675 55.6527 23.2353 55.703 23.3392 55.7883C23.4431 55.8748 23.513 55.9273 23.548 55.947C23.6081 55.9831 23.6737 56.0159 23.7437 56.0444C23.9722 56.1363 24.1865 56.1417 24.3866 56.064C24.5867 55.9853 24.7233 55.854 24.7976 55.668C24.837 55.5695 24.8512 55.4667 24.8403 55.3573C24.8305 55.2479 24.7954 55.1429 24.7386 55.0433C24.6807 54.9448 24.5626 54.7873 24.3822 54.5707C24.1581 54.3037 24.028 54.1101 23.9908 53.9908C23.9646 53.9066 23.9657 53.8278 23.9952 53.7534C24.0345 53.6549 24.1111 53.5838 24.2248 53.539C24.3385 53.4952 24.4576 53.4985 24.5834 53.5488C24.696 53.5937 24.7922 53.6659 24.8742 53.7665C24.9562 53.8661 25.0053 53.9744 25.0217 54.0925C25.0305 54.1538 25.0316 54.2205 25.0261 54.2949C25.0196 54.3672 25.0054 54.4459 24.9835 54.5324L25.0513 54.5586L25.3924 53.7042L25.3257 53.6768C25.2896 53.7304 25.2579 53.7621 25.2306 53.7731C25.2022 53.7829 25.1726 53.7818 25.142 53.7687C25.1289 53.7643 25.1103 53.7512 25.0885 53.7326C25.0655 53.7129 25.0414 53.691 25.0163 53.6659C24.8982 53.5433 24.7714 53.4547 24.638 53.4022C24.427 53.3169 24.2291 53.3125 24.0411 53.3869C23.853 53.4613 23.724 53.586 23.6529 53.7632C23.6125 53.865 23.5983 53.9678 23.6103 54.0707C23.6224 54.1757 23.6584 54.2796 23.7197 54.3858C23.7514 54.4416 23.7951 54.5083 23.8541 54.5871C23.9121 54.6658 23.9798 54.7534 24.0575 54.8518C24.2237 55.0575 24.3221 55.1866 24.3527 55.2391C24.403 55.3223 24.4314 55.4021 24.4401 55.4765C24.4478 55.5531 24.4402 55.6199 24.4161 55.6789C24.3724 55.7872 24.2903 55.8638 24.169 55.9087C24.0465 55.9546 23.9109 55.947 23.7623 55.8868C23.6289 55.8332 23.5196 55.7566 23.4332 55.6549C23.3468 55.5531 23.2954 55.447 23.278 55.3376C23.2681 55.2807 23.2659 55.2151 23.2714 55.1396C23.278 55.0652 23.29 54.9798 23.3097 54.8857L23.2419 54.8595ZM25.4001 56.5236L25.376 56.5925L26.4485 56.9513L26.4715 56.8824L26.3841 56.8529C26.2867 56.8211 26.2222 56.7708 26.1927 56.703C26.173 56.6516 26.1883 56.5487 26.2397 56.3945L26.8847 54.4656L27.2412 54.5849C27.3429 54.6188 27.4216 54.6636 27.4752 54.7205C27.5298 54.7774 27.5637 54.8475 27.5779 54.9295C27.5878 54.9831 27.5812 55.063 27.5594 55.1713L27.6304 55.1954L27.7998 54.5936L25.7368 53.9022L25.5094 54.4842L25.5793 54.5083C25.6296 54.3956 25.6876 54.3146 25.7521 54.2654C25.8232 54.2129 25.8931 54.1866 25.9631 54.1855C26.0156 54.1844 26.103 54.203 26.2233 54.2435L26.5262 54.3453L25.8811 56.2741C25.8582 56.3441 25.8352 56.401 25.8122 56.4448C25.7892 56.4885 25.7685 56.5181 25.7488 56.5323C25.6821 56.5826 25.5946 56.5892 25.4886 56.5531L25.4001 56.5236ZM26.8301 56.9634L26.8137 57.0334L27.6304 57.2248L27.6468 57.1537C27.5856 57.1395 27.5364 57.122 27.4992 57.1034C27.462 57.0837 27.4336 57.0629 27.415 57.0389C27.3855 56.9995 27.3757 56.959 27.3844 56.9207C27.3953 56.8726 27.4347 56.8025 27.5036 56.7106L27.7693 56.343L28.7784 56.5783L28.8505 56.9842C28.8713 57.1165 28.8757 57.2117 28.8626 57.2686C28.8527 57.3102 28.8254 57.343 28.7816 57.3638C28.7576 57.3747 28.727 57.3824 28.6909 57.3824C28.6559 57.3835 28.6122 57.378 28.5608 57.366L28.5444 57.4371L29.5688 57.6756L29.5852 57.6045C29.5338 57.5935 29.489 57.5739 29.4507 57.5498C29.4136 57.5246 29.3819 57.4951 29.3556 57.4601C29.3097 57.3944 29.2703 57.2664 29.2375 57.0761L28.8363 54.7063L28.7696 54.691L27.3603 56.6144C27.2346 56.785 27.134 56.8923 27.0575 56.9371C27.0159 56.959 26.9405 56.9677 26.8301 56.9634ZM27.8621 56.2161L28.5608 55.2698L28.7565 56.424L27.8621 56.2161ZM29.5513 55.5411L29.6257 55.5498C29.6519 55.4306 29.6924 55.3398 29.746 55.2774C29.805 55.2118 29.8684 55.1724 29.9362 55.1571C29.9876 55.145 30.0772 55.1472 30.2029 55.1614L30.5211 55.2008L30.2751 57.2194C30.2664 57.2938 30.2554 57.3539 30.2412 57.401C30.2281 57.4491 30.2128 57.482 30.1975 57.5006C30.1406 57.5618 30.0575 57.5859 29.9471 57.5717L29.8531 57.5607L29.8443 57.6329L30.9661 57.7697L30.9748 57.6975L30.8841 57.6865C30.7813 57.6734 30.7092 57.6373 30.6665 57.5761C30.6359 57.5312 30.6315 57.4273 30.6512 57.2653L30.8961 55.2468L31.2689 55.2916C31.3749 55.3048 31.4613 55.3343 31.5247 55.3781C31.5903 55.4229 31.6373 55.4842 31.6679 55.563C31.6876 55.6133 31.6975 55.6921 31.6975 55.8026L31.7718 55.8113L31.8177 55.1877L29.6585 54.9251L29.5513 55.5411ZM31.9117 57.75L31.9096 57.8233L33.9617 57.8857L34.2121 57.2248L34.1334 57.2227C34.0426 57.3846 33.9552 57.5049 33.8732 57.5826C33.8054 57.6439 33.7387 57.6833 33.6709 57.7019C33.6042 57.7205 33.4949 57.727 33.3451 57.7216L32.8935 57.7084C32.8203 57.7062 32.7711 57.6964 32.7449 57.68C32.7186 57.6636 32.7012 57.6428 32.6913 57.6187C32.6826 57.5935 32.6803 57.5224 32.6836 57.4032L32.711 56.5257L33.2937 56.5443C33.4041 56.5476 33.4851 56.564 33.5386 56.5914C33.5922 56.6187 33.6305 56.657 33.6523 56.703C33.6687 56.7391 33.6851 56.8233 33.6993 56.9557L33.7715 56.9579L33.7999 56.028L33.7278 56.0258C33.7256 56.1002 33.7135 56.1636 33.6917 56.2161C33.6698 56.2686 33.6403 56.3102 33.6042 56.3409C33.5517 56.3846 33.45 56.4043 33.2981 56.3999L32.7153 56.3813L32.747 55.3277L33.4763 55.3496C33.6097 55.354 33.7015 55.3671 33.7529 55.3879C33.8174 55.4197 33.8655 55.4612 33.895 55.5126C33.9278 55.563 33.9552 55.6603 33.9781 55.8037L34.0546 55.8059L34.0437 55.2216L31.9916 55.1593L31.9894 55.2315L32.0845 55.2337C32.1938 55.238 32.2704 55.2665 32.3185 55.3201C32.3513 55.3595 32.3644 55.4634 32.36 55.6341L32.3065 57.3649C32.3021 57.4951 32.2923 57.5804 32.2748 57.622C32.2573 57.6647 32.2288 57.6942 32.1873 57.7128C32.1315 57.7423 32.0714 57.7555 32.0069 57.7533L31.9117 57.75ZM36.1297 54.9744L34.9873 55.1122L34.996 55.1844L35.0955 55.1724C35.1971 55.1604 35.2726 55.1768 35.3229 55.2216C35.3732 55.2676 35.4081 55.3715 35.4278 55.5345L35.5547 56.5695C35.5929 56.8868 35.64 57.1012 35.6957 57.2139C35.7821 57.3758 35.9034 57.4973 36.0641 57.5793C36.2237 57.6614 36.449 57.6844 36.7387 57.6483C37.0044 57.6165 37.2077 57.5377 37.3499 57.413C37.4909 57.2883 37.5805 57.1505 37.6144 57.0006C37.6494 56.8496 37.6494 56.6406 37.6166 56.3737L37.4865 55.2993C37.4679 55.1516 37.4701 55.0553 37.4931 55.0138C37.5379 54.9186 37.6123 54.8661 37.7161 54.8529L37.8156 54.8409L37.8069 54.7698L36.8721 54.8836L36.8808 54.9547L36.9803 54.9437C37.0798 54.9306 37.1596 54.9503 37.2165 55.0017C37.258 55.0389 37.2886 55.1396 37.3094 55.3059L37.4395 56.3769C37.4734 56.6592 37.4723 56.8627 37.4362 56.9874C37.4002 57.1122 37.3181 57.2194 37.1913 57.3102C37.0634 57.401 36.9136 57.4579 36.742 57.4787C36.6764 57.4863 36.613 57.4874 36.5528 57.482C36.4927 57.4754 36.438 57.4645 36.391 57.448C36.2905 57.4108 36.2117 57.3583 36.1549 57.2927C36.0969 57.2248 36.0499 57.1253 36.0138 56.9929C35.9941 56.9218 35.981 56.8605 35.9701 56.8058C35.9592 56.7522 35.9505 56.6964 35.9439 56.6417L35.8039 55.4886C35.7853 55.342 35.7897 55.2435 35.8171 55.1899C35.8531 55.1155 35.9275 55.0706 36.0379 55.0575L36.1385 55.0455L36.1297 54.9744ZM37.8069 54.7698L37.808 54.772C37.8823 54.7512 37.9392 54.7424 37.9785 54.7424C38.0627 54.7479 38.1283 54.7588 38.1742 54.7752C38.2201 54.7917 38.2912 54.8321 38.3863 54.8978L38.8859 56.6833C38.9067 56.7522 38.9188 56.8135 38.9253 56.8627C38.9308 56.912 38.9297 56.9481 38.922 56.971C38.8947 57.0487 38.8258 57.1034 38.7165 57.134L38.6279 57.1603L38.6476 57.2292L39.5419 56.9787L39.5223 56.9087L39.4315 56.9338C39.3309 56.9623 39.25 56.9568 39.1866 56.9163C39.1418 56.8868 39.097 56.7927 39.0532 56.6362L38.6104 55.0575L40.8812 56.6483L40.9479 56.6297L40.3423 54.4656C40.3226 54.3956 40.3094 54.3354 40.304 54.2851C40.2974 54.2359 40.2985 54.1998 40.3062 54.1768C40.3346 54.0991 40.4024 54.0444 40.5095 54.0149L40.6003 53.9886L40.5806 53.9186L39.6863 54.1702L39.7059 54.2402L39.7956 54.2151C39.8984 54.1855 39.9793 54.1921 40.0394 54.2315C40.0864 54.261 40.1312 54.3551 40.1749 54.5127L40.5893 55.9918L38.4825 54.5105L37.7883 54.7019L37.8069 54.7698ZM40.9392 53.7873C40.9971 53.7632 41.0584 53.7556 41.124 53.7632C41.1721 53.7709 41.2081 53.7873 41.2311 53.8125C41.2628 53.8464 41.3033 53.9262 41.3536 54.051L41.9877 55.6516C42.0467 55.8004 42.0697 55.8999 42.0555 55.9503C42.0314 56.029 41.9691 56.0881 41.8674 56.1286L41.7799 56.1636L41.8061 56.2303L42.8677 55.8091L42.8415 55.7413L42.753 55.7774C42.6928 55.8015 42.6316 55.8091 42.5693 55.7993C42.519 55.7916 42.484 55.7752 42.4611 55.7511C42.4294 55.7172 42.3889 55.6374 42.3386 55.5115L41.7045 53.9109C41.6455 53.7643 41.6236 53.6648 41.6389 53.6123C41.6619 53.5335 41.7242 53.4744 41.8237 53.435L41.8258 53.4339L41.7996 53.3814L41.8881 53.3366L41.886 53.3322L40.8244 53.7534L40.8506 53.8212L40.9392 53.7873ZM41.9122 53.4L41.8258 53.4339L41.8324 53.446C41.9111 53.4164 41.9745 53.4011 42.0248 53.4011C42.0532 53.3989 42.0795 53.4011 42.1036 53.4055C42.1287 53.4098 42.1528 53.4186 42.1757 53.4296C42.2074 53.4449 42.2708 53.493 42.3692 53.574L44.2902 55.1811L44.3546 55.1483L44.1699 52.7042C44.1579 52.5587 44.1699 52.4438 44.2038 52.3574C44.2267 52.2972 44.277 52.2381 44.3536 52.1812L44.3492 52.1714L44.3 52.2064L44.2584 52.1484L43.5871 52.4843L43.62 52.5499L43.6528 52.5401C43.7424 52.5127 43.8113 52.5062 43.8594 52.5193C43.9075 52.5335 43.9403 52.5576 43.9567 52.5915C43.983 52.6429 44.0026 52.7501 44.0157 52.9153L44.1459 54.5783L42.8383 53.4853C42.7246 53.388 42.6513 53.3103 42.6217 53.2501C42.601 53.2085 42.5999 53.1659 42.6207 53.121C42.6404 53.0783 42.7016 53.0236 42.8054 52.958L42.7727 52.8935L41.8881 53.3366L41.9122 53.4ZM44.3219 52.1167L44.3492 52.1714L44.3765 52.1506C44.4662 52.0882 44.5449 52.0642 44.616 52.0784C44.6652 52.0893 44.7395 52.1648 44.8379 52.3038L45.8394 53.7162C45.9148 53.8212 45.9585 53.8967 45.9695 53.9405C45.9815 53.9842 45.9761 54.0258 45.9542 54.0652C45.9269 54.1221 45.8875 54.1691 45.835 54.2063L45.7574 54.261L45.8 54.3201L47.4739 53.1298L47.2738 52.4525L47.2104 52.4985C47.2355 52.6834 47.2388 52.8311 47.2202 52.9427C47.2027 53.0324 47.1732 53.1046 47.1306 53.1593C47.0879 53.2151 47.0049 53.2862 46.8835 53.3727L46.515 53.6341C46.4549 53.6768 46.4101 53.6987 46.3784 53.702C46.3478 53.7042 46.3215 53.6987 46.2996 53.6845C46.2767 53.6713 46.2319 53.6155 46.163 53.5182L45.6557 52.8027L46.1324 52.4646C46.2209 52.4 46.2964 52.3639 46.3554 52.3541C46.4145 52.3442 46.4669 52.3519 46.5129 52.3749C46.5478 52.3935 46.6123 52.4504 46.7031 52.5477L46.7621 52.5051L46.2242 51.7469L46.1652 51.7896C46.2078 51.8497 46.2362 51.9077 46.2515 51.9624C46.2647 52.0182 46.2668 52.0685 46.2559 52.1145C46.2406 52.1812 46.1717 52.2589 46.0482 52.3464L45.5715 52.6845L44.9615 51.8246L45.5562 51.4022C45.6655 51.3246 45.7464 51.2797 45.7989 51.2655C45.8711 51.2524 45.9345 51.2567 45.9892 51.2786C46.0449 51.2994 46.1258 51.3607 46.2308 51.4613L46.2931 51.4176L45.9323 50.9581L44.2584 52.1473V52.1484L44.3219 52.1167ZM47.8336 52.795L47.757 52.8595L47.8041 52.9153L48.6721 52.179L48.6251 52.1243L48.5464 52.1911C48.471 52.2556 48.3955 52.2819 48.3201 52.2688C48.2654 52.2622 48.1845 52.1943 48.0763 52.0652L47.5744 51.4745C47.5887 51.4624 47.5985 51.4537 47.605 51.4482L47.6215 51.4351L47.663 51.399L47.7876 51.2939L49.2833 51.6615L49.8255 51.202L49.7786 51.1462C49.6539 51.2272 49.5413 51.2753 49.4385 51.2896C49.3314 51.3038 49.1728 51.2841 48.9651 51.2305L48.0511 51.0051C48.19 50.8191 48.261 50.6473 48.2643 50.4865C48.2687 50.3268 48.2173 50.1846 48.1123 50.0598C48.0129 49.9428 47.8915 49.8728 47.7483 49.8476C47.605 49.8235 47.4695 49.8388 47.3427 49.8935C47.2147 49.9482 47.042 50.0686 46.8233 50.2546L46.0821 50.8826L46.1291 50.9373L46.2056 50.8727C46.2822 50.8071 46.3587 50.7808 46.4352 50.7918C46.4888 50.7994 46.5697 50.8673 46.679 50.9953L47.7909 52.3081C47.8904 52.4252 47.9418 52.5084 47.9462 52.5565C47.9571 52.6429 47.9189 52.7228 47.8336 52.795ZM47.546 51.3399L47.4946 51.3793L46.7785 50.5336C46.8605 50.4318 46.9316 50.3541 46.9895 50.3038C47.1218 50.1922 47.2618 50.143 47.4083 50.155C47.5559 50.1681 47.6827 50.2371 47.7887 50.364C47.8992 50.4931 47.9407 50.643 47.9123 50.8115C47.8849 50.9799 47.7745 51.1462 47.581 51.3104L47.546 51.3399ZM49.3664 50.4263L50.0267 51.0576L50.0759 51.0062C50.0387 50.957 50.0202 50.9187 50.018 50.8935C50.0202 50.8629 50.0311 50.8377 50.0519 50.8158C50.0738 50.7918 50.1459 50.748 50.264 50.6835C50.3832 50.6189 50.4575 50.574 50.4892 50.5489C50.545 50.5073 50.6007 50.4581 50.6521 50.4034C50.8226 50.2261 50.9079 50.0292 50.9112 49.8148C50.9123 49.5992 50.8423 49.4231 50.698 49.2852C50.6215 49.2119 50.5307 49.1594 50.4258 49.1288C50.3197 49.0971 50.2104 49.0905 50.0978 49.1058C49.9841 49.1222 49.7939 49.1736 49.526 49.2601C49.1947 49.3673 48.9662 49.4165 48.8416 49.4067C48.753 49.4001 48.6809 49.3695 48.6229 49.3148C48.5475 49.2404 48.5092 49.143 48.5103 49.0216C48.5125 48.899 48.5606 48.7896 48.6536 48.6912C48.7377 48.6036 48.8405 48.5413 48.964 48.503C49.0865 48.4647 49.2057 48.4581 49.3215 48.4877C49.3817 48.503 49.444 48.526 49.5096 48.5599C49.5741 48.5927 49.643 48.6365 49.714 48.6868L49.7643 48.6354L49.0996 47.9986L49.0493 48.05C49.0865 48.1047 49.104 48.1452 49.1029 48.1748C49.1018 48.2054 49.0898 48.2317 49.0668 48.2557C49.057 48.2656 49.0384 48.2776 49.0121 48.2918C48.9859 48.306 48.9575 48.3192 48.9236 48.3323C48.7661 48.3979 48.6371 48.4822 48.5377 48.5861C48.3802 48.7502 48.3015 48.933 48.3004 49.1354C48.2993 49.3367 48.3671 49.504 48.5038 49.6342C48.5836 49.7108 48.6732 49.7622 48.7738 49.7896C48.8754 49.818 48.9859 49.8235 49.1061 49.806C49.1696 49.7984 49.2483 49.7808 49.3434 49.7568C49.4375 49.7327 49.5446 49.7021 49.6649 49.6671C49.9174 49.5894 50.0738 49.5467 50.1339 49.5369C50.2301 49.5215 50.3142 49.5248 50.3864 49.5456C50.4596 49.5664 50.5187 49.5981 50.5657 49.643C50.6499 49.724 50.6893 49.8279 50.686 49.9581C50.6827 50.0883 50.6248 50.2108 50.5132 50.3279C50.4148 50.4318 50.3022 50.504 50.1754 50.5456C50.0486 50.5883 49.9316 50.597 49.8234 50.5719C49.7676 50.5609 49.7064 50.5368 49.6375 50.504C49.5708 50.4701 49.4976 50.4263 49.4167 50.3738L49.3664 50.4263ZM53.9276 33.5493C53.9276 22.1328 44.6794 12.8781 33.2707 12.8781C21.8632 12.8781 12.6149 22.1328 12.6149 33.5493C12.6149 44.9648 21.8632 54.2195 33.2707 54.2195C44.6794 54.2195 53.9276 44.9648 53.9276 33.5493ZM53.5209 33.5493C53.5209 44.7405 44.4541 53.8125 33.2707 53.8125C22.0873 53.8125 13.0217 44.7405 13.0217 33.5493C13.0217 22.3581 22.0873 13.2851 33.2707 13.2851C44.4541 13.2851 53.5209 22.3581 53.5209 33.5493ZM43.8463 23.6546L49.0504 25.7574L44.3514 22.6251L41.921 22.0256L40.5937 20.6996L38.0999 20.1481L37.14 21.2061L38.1414 20.7849L40.387 22.8472L42.3583 23.2706L43.867 24.45L43.8463 23.6546ZM32.137 24.6557L37.4909 20.9501L38.1414 20.1492L31.6002 23.9763L27.9081 21.9162L24.3308 24.6557L27.4336 23.0529L28.5269 23.9828L28.6198 23.4653L32.137 24.6557ZM24.5123 16.5443C23.1041 17.2719 21.8042 18.1712 20.6267 19.2116C20.5185 20.2269 20.4364 21.7116 20.63 23.182C21.0257 26.1874 21.181 27.2617 19.9991 29.5822C18.5767 32.3754 17.5075 34.209 18.8468 36.5219H19.2786C19.2786 36.5219 18.3056 34.941 18.9791 32.9465C19.6514 30.9509 22.8155 28.8306 23.2003 25.5616C23.5502 22.5813 22.0972 20.4337 24.5123 16.5443ZM20.3414 26.3788C20.3271 24.2695 19.717 21.9512 19.9215 19.8528C18.9605 20.7915 18.0946 21.8264 17.3479 22.949C17.5512 23.8647 17.8114 24.9806 18.0355 25.7782C18.5166 27.4849 18.4444 29.7923 17.8672 31.2584C17.291 32.7244 16.4021 34.5745 17.8672 36.5219H18.5407C18.5407 36.5219 17.6037 35.441 17.9153 33.7572C18.3504 31.4148 20.3599 28.9805 20.3414 26.3788ZM17.8672 28.3503C17.8672 26.9488 17.349 25.0856 16.8887 23.7049C16.1004 25.0145 15.4499 26.4149 14.9907 27.9029C15.6204 28.6228 16.306 29.7398 16.306 31.2037C16.306 32.7671 16.1562 32.6402 16.1562 33.9016C16.1562 35.5329 16.9335 36.3195 17.1708 36.5219H17.537C17.537 36.5219 16.6623 35.8961 16.7443 33.8546C16.8165 32.0756 17.8672 31.7748 17.8672 28.3503ZM21.6807 37.372H14.7753V38.686H21.6807V37.372ZM15.4401 39.5349H15.3755C15.8413 40.6312 16.7422 41.1421 16.7422 41.1421H16.8056H19.6996H19.763C19.763 41.1421 20.6639 40.6312 21.1296 39.5349H21.0651H15.4401ZM18.9331 41.9835H17.5523V44.4484C17.9765 45.0611 18.4422 45.6398 18.9331 46.1978V41.9835ZM19.4732 46.7842C21.2641 48.654 23.4212 50.1703 25.8428 51.1922C26.4332 50.9745 27.2521 50.7086 28.2033 50.504C31.938 49.6977 33.028 51.6878 33.028 51.6878C33.028 51.6878 33.028 51.2721 33.028 48.5905C33.028 45.9101 30.18 45.9615 30.18 45.9615C28.0994 45.9615 28.0732 46.5348 24.7703 46.8728C22.9248 47.0621 20.9065 46.9341 19.4732 46.7842ZM30.0827 48.0194L30.0892 47.9133L30.1034 47.8137L30.1286 47.7196L30.1636 47.6321L30.2073 47.5479L30.2598 47.4713L30.3199 47.3991L30.3921 47.3334L30.4719 47.2733L30.5616 47.224L30.6599 47.1803L30.7682 47.1463L30.8862 47.1201L31.0141 47.1004L31.1508 47.0916L31.2974 47.0905L31.47 47.0927L31.5969 47.2131L31.6975 47.3334L31.7729 47.4527L31.8221 47.5741L31.8549 47.6956L31.8768 47.817L31.8888 47.9363L31.8921 48.0555L31.8822 48.2262L31.8582 48.3936L31.821 48.5555L31.7696 48.7152L31.7095 48.8596L31.6417 48.9942L31.5751 49.096L31.4865 49.2097L31.3946 49.3104L31.27 49.4296L30.9223 49.7305L30.2423 49.8706L30.4719 49.6386L30.6741 49.4023L30.8469 49.1616L30.9901 48.9176L30.8403 48.9023L30.6883 48.8607L30.5353 48.794L30.3833 48.701L30.3101 48.6452L30.2488 48.5807L30.1953 48.5074L30.1526 48.4242L30.1209 48.3356L30.098 48.2382L30.0848 48.1321L30.0827 48.0194ZM29.1501 47.9373L28.8746 48.0774L28.6843 48.1649L28.7784 47.6266L29.2245 47.4571L29.5994 47.3017L30.0401 47.1277L30.0335 47.1803L29.9559 47.5347L29.8443 48.0851L29.759 48.5391L29.7514 48.608L29.7438 48.6649L29.7383 48.713L29.7186 48.8728L29.7055 48.9461L29.6847 49.0095L29.6596 49.1507L29.5994 49.3006L29.5754 49.3596L29.5448 49.4089L29.5065 49.4483L29.4617 49.4778L29.3873 49.5041L29.2605 49.527L28.8505 49.573L28.8899 49.4975L28.9227 49.4045L28.9588 49.2557L28.9708 49.1616L29.0517 48.6375L29.1348 48.0686L29.1501 47.9373ZM30.7911 47.8794L30.7802 47.9855L30.7846 48.0752L30.7988 48.1627L30.8228 48.2481L30.8578 48.3312L30.9016 48.4111L30.9573 48.4888L31.0218 48.5642L31.0983 48.6365L31.1541 48.4089L31.1738 48.2295L31.1716 48.1255L31.1607 48.0249L31.1421 47.9319L31.1126 47.8411L31.0765 47.7568L31.0317 47.6781L30.9781 47.6037L30.9158 47.5358L30.8589 47.654L30.813 47.7678L30.7911 47.8794ZM27.0018 51.6178C27.5167 51.7961 28.0426 51.9504 28.5761 52.0849C31.2613 50.8837 32.7525 52.2119 33.028 52.4996V52.1342C31.4799 50.248 28.715 50.9296 27.0018 51.6178ZM30.1646 52.4164C31.0273 52.5576 31.9063 52.6451 32.8028 52.667C32.313 52.2611 31.4799 51.958 30.1646 52.4164ZM32.3819 39.2264H34.6636V45.3236C35.1677 45.072 35.6618 44.9473 36.0073 44.8871V39.2264H38.289V45.0468C38.7241 45.142 39.1615 45.2569 39.6327 45.3729V39.2264H41.9144V45.7963C42.495 45.863 43.14 45.9046 43.8812 45.9046C44.9734 45.9046 45.8722 45.8378 46.6626 45.735L46.6615 31.9378H42.9028V29.0669L33.9738 26.8307H33.5616H33.1494L24.2204 29.0024V31.9367H20.4397V36.5394H22.5345V39.9649H21.978C21.3034 40.9879 20.4616 41.4846 20.4397 41.4977V42.3686V45.7875C21.1209 45.8597 21.8774 45.9046 22.7674 45.9046C23.6825 45.9046 24.4532 45.8411 25.1311 45.7459V39.2264H27.4128V45.2733C27.8753 45.1573 28.3126 45.049 28.7565 44.9681V39.2264H31.0382V44.9746C31.4417 45.0775 31.9282 45.2514 32.3819 45.5512V39.2264ZM42.7792 33.3108H43.6801L43.6779 37.3785H42.7803L42.7792 33.3108ZM24.2674 33.3108L24.2652 37.3785H23.3676L23.3654 33.3108H24.2674ZM26.032 33.3108L26.0298 37.3785H25.1322L25.1311 33.3108H26.032ZM27.7966 31.6653H26.7503L26.7481 29.5418L27.7966 29.5352V31.6653ZM27.7966 33.3108L27.7944 37.3785H26.8968L26.8957 33.3108H27.7966ZM28.6603 33.3108H29.5611L29.5601 37.3785H28.6625L28.6603 33.3108ZM31.3258 31.6632H28.6614V29.5418L31.3258 29.5374V31.6632ZM31.3258 33.3108L31.3247 37.3785H30.4271L30.426 33.3108H31.3258ZM41.0146 33.3108H41.9144L41.9133 37.3785H41.0157L41.0146 33.3108ZM39.25 33.3108H40.1509L40.1487 37.3785H39.2511L39.25 33.3108ZM39.25 29.5418L40.2985 29.5352V31.6653H39.2522L39.25 29.5418ZM37.4854 33.3108H38.3852L38.3841 37.3785H37.4854V33.3108ZM35.7197 33.3108H36.6206L36.6185 37.3785H35.7209L35.7197 33.3108ZM35.7197 29.5374H38.3852V31.6632H35.7197V29.5374ZM33.9552 33.3108H34.856L34.8538 37.3785H33.9562L33.9552 33.3108ZM33.5233 31.6653H32.1906V29.5363H34.855V31.6653H33.5233ZM32.1916 37.3785L32.1906 33.3108H33.0914L33.0892 37.3785H32.1916ZM33.4511 48.5905C33.4511 51.2721 33.4511 51.6878 33.4511 51.6878C33.4511 51.6878 34.5411 49.6977 38.2759 50.504C39.2445 50.7119 40.0766 50.9843 40.6681 51.2042C43.105 50.1802 45.2752 48.6583 47.0759 46.7776C45.6393 46.9297 43.5839 47.0654 41.7099 46.8728C38.406 46.5348 38.3809 45.9615 36.2992 45.9615C36.2992 45.9615 33.4511 45.9101 33.4511 48.5905ZM35.8903 48.0194L35.8969 47.9133L35.9111 47.8137L35.9373 47.7196L35.9712 47.6321L36.0149 47.5479L36.0674 47.4713L36.1287 47.3991L36.2008 47.3334L36.2806 47.2733L36.3692 47.224L36.4687 47.1803L36.5769 47.1463L36.695 47.1201L36.8229 47.1004L36.9596 47.0916L37.1049 47.0905L37.2777 47.0927L37.4045 47.2131L37.5051 47.3334L37.5817 47.4527L37.6308 47.5741L37.6625 47.6956L37.6855 47.817L37.6976 47.9363L37.6997 48.0555L37.691 48.2262L37.6669 48.3936L37.6298 48.5555L37.5773 48.7152L37.5171 48.8596L37.4494 48.9942L37.3838 49.096L37.2941 49.2097L37.2023 49.3104L37.0776 49.4296L36.731 49.7305L36.0499 49.8706L36.2806 49.6386L36.4818 49.4023L36.6545 49.1616L36.7988 48.9176L36.648 48.9023L36.4971 48.8607L36.344 48.794L36.191 48.701L36.1177 48.6452L36.0565 48.5807L36.0029 48.5074L35.9614 48.4242L35.9296 48.3356L35.9067 48.2382L35.8936 48.1321L35.8903 48.0194ZM34.9588 47.9373L34.6822 48.0774L34.492 48.1649L34.5871 47.6266L35.0332 47.4571L35.4081 47.3017L35.8476 47.1277L35.8411 47.1803L35.7646 47.5347L35.6531 48.0851L35.5678 48.5391L35.559 48.608L35.5514 48.6649L35.5459 48.713L35.5262 48.8728L35.5131 48.9461L35.4934 49.0095L35.4683 49.1507L35.4081 49.3006L35.3841 49.3596L35.3535 49.4089L35.3152 49.4483L35.2693 49.4778L35.196 49.5041L35.0681 49.527L34.6581 49.573L34.6986 49.4975L34.7314 49.4045L34.7675 49.2557L34.7795 49.1616L34.8604 48.6375L34.9424 48.0686L34.9588 47.9373ZM36.5988 47.8794L36.5878 47.9855L36.5922 48.0752L36.6075 48.1627L36.6316 48.2481L36.6654 48.3312L36.7092 48.4111L36.7649 48.4888L36.8305 48.5642L36.906 48.6365L36.9618 48.4089L36.9814 48.2295L36.9792 48.1255L36.9694 48.0249L36.9497 47.9319L36.9202 47.8411L36.8852 47.7568L36.8393 47.6781L36.7868 47.6037L36.7245 47.5358L36.6666 47.654L36.6217 47.7678L36.5988 47.8794ZM33.4511 52.1342V52.4996C33.7277 52.2119 35.2267 50.876 37.926 52.0959C38.4618 51.9613 38.9898 51.8081 39.507 51.6298C37.797 50.9384 35.0091 50.236 33.4511 52.1342ZM33.672 52.6703C34.5772 52.6517 35.4639 52.563 36.3331 52.423C35.0037 51.9537 34.164 52.2611 33.672 52.6703ZM50.0005 47.7743L51.2917 48.9122C51.4119 49.0172 51.4775 49.0949 51.4874 49.1463C51.5016 49.2283 51.4732 49.3093 51.401 49.3914L51.3387 49.4625L51.3934 49.5106L52.1477 48.6518L52.0931 48.6036L52.0307 48.6758C51.9881 48.7251 51.9367 48.759 51.8766 48.7787C51.8285 48.7951 51.7902 48.7962 51.7596 48.7852C51.7159 48.7688 51.6426 48.7163 51.5421 48.6277L50.2497 47.4899C50.1306 47.3848 50.0661 47.3072 50.0551 47.2536C50.0409 47.1726 50.0694 47.0916 50.1393 47.0118L50.1994 46.9439L50.1426 46.8991L49.3937 47.7492L49.4484 47.7973L49.5107 47.7262C49.5522 47.6792 49.6036 47.6441 49.6659 47.6212C49.7118 47.6069 49.7512 47.6048 49.7829 47.6168C49.8266 47.6332 49.8988 47.6857 50.0005 47.7743ZM50.2038 46.9396L50.1994 46.9439L50.6094 47.2722L50.6521 47.212C50.5602 47.131 50.5001 47.0512 50.4717 46.9746C50.4433 46.8914 50.44 46.817 50.4586 46.7492C50.4728 46.6989 50.5176 46.6212 50.592 46.5183L50.7789 46.258L52.4276 47.4483C52.4878 47.491 52.5348 47.5304 52.5697 47.5654C52.6058 47.5993 52.6266 47.6288 52.6354 47.6507C52.6627 47.7295 52.643 47.8159 52.5774 47.9056L52.5227 47.9822L52.5818 48.0238L53.2421 47.107L53.1831 47.0643L53.1295 47.1387C53.0694 47.2229 53.0027 47.2689 52.9294 47.2765C52.8737 47.2809 52.7808 47.235 52.6496 47.1409L50.9998 45.9516L51.2195 45.6464C51.2818 45.56 51.3485 45.4987 51.4185 45.4637C51.4885 45.4287 51.565 45.4166 51.6481 45.4276C51.7016 45.4341 51.7771 45.4637 51.8733 45.5162L51.917 45.456L51.4513 45.1541C51.4305 45.1727 51.4087 45.1945 51.389 45.2284L51.3343 45.1967L50.1218 46.8827L50.1426 46.8991L50.1492 46.8914L50.2038 46.9396ZM51.3934 45.1158L51.4513 45.1541C51.4557 45.1508 51.459 45.1431 51.4622 45.1398C51.553 45.0808 51.6186 45.0447 51.6601 45.0348C51.7115 45.0239 51.8121 45.014 51.9608 45.0042L53.2924 44.9298L53.8391 45.2449C53.9014 45.2821 53.9527 45.316 53.9921 45.3477C54.0304 45.3783 54.0545 45.4046 54.0654 45.4265C54.1004 45.502 54.0895 45.5895 54.0337 45.6858L53.9856 45.7678L54.049 45.8039L54.6164 44.8215L54.5541 44.7854L54.5104 44.8587C54.4557 44.9527 54.3934 45.0074 54.3201 45.0239C54.2665 45.0348 54.1693 44.9998 54.0271 44.9177L53.4488 44.583L52.8945 43.5206C52.8223 43.386 52.7753 43.2821 52.7534 43.2077C52.7316 43.1344 52.725 43.0622 52.7316 42.9911C52.7381 42.9211 52.7501 42.8707 52.7676 42.8401L52.7928 42.7963L52.7305 42.7591L52.2658 43.5644L52.3292 43.6005C52.3631 43.5414 52.397 43.5009 52.4298 43.4768C52.4626 43.4528 52.4976 43.4407 52.5326 43.4397C52.5665 43.4386 52.5981 43.4462 52.6277 43.4637C52.6823 43.4944 52.7403 43.5731 52.807 43.7022L53.2585 44.5644L52.2363 44.618C52.0898 44.6267 51.9957 44.618 51.9553 44.5939C51.905 44.5644 51.8788 44.5206 51.881 44.4615C51.8821 44.4024 51.8985 44.3466 51.9291 44.2941L51.9586 44.2427L51.8963 44.2066L51.3266 45.1923L51.3343 45.1967L51.3934 45.1158ZM54.9269 33.7091C54.8405 33.8546 54.7935 34.0373 54.7891 34.2594C54.7848 34.4268 54.8045 34.5778 54.8493 34.7101C54.893 34.8436 54.9543 34.9508 55.0286 35.0351C55.1041 35.1193 55.1904 35.1828 55.2877 35.2254C55.385 35.2692 55.4867 35.2922 55.5905 35.2944L55.784 35.2998C55.8518 35.3009 55.9021 35.3097 55.9349 35.3261C55.9677 35.3414 55.9885 35.3644 56.0005 35.395C56.0147 35.4333 56.0213 35.4836 56.0202 35.5427C56.0224 35.5515 56.0344 35.5547 56.0563 35.5558C56.0804 35.5558 56.0913 35.5525 56.0924 35.5449L56.1153 34.6434C56.1132 34.6357 56.1033 34.6313 56.0847 34.6303C56.0574 34.6292 56.0431 34.6346 56.0421 34.6445C56.041 34.6937 56.0355 34.7342 56.0257 34.7659C56.0158 34.7987 56.0027 34.8239 55.9885 34.8425C55.959 34.8786 55.8956 34.895 55.7982 34.8928L55.584 34.8874C55.3937 34.883 55.2494 34.8403 55.1521 34.7605C55.0548 34.6806 54.9936 34.5953 54.9696 34.5034C54.9433 34.4115 54.9313 34.3294 54.9335 34.2583C54.9346 34.197 54.9543 34.1226 54.9903 34.034C55.0264 33.9465 55.1018 33.8655 55.2166 33.7944C55.3314 33.7233 55.4932 33.6894 55.7042 33.6948L57.1529 33.7309L57.1594 33.4815C57.1616 33.383 57.1944 33.2791 57.2578 33.1708C57.3201 33.0625 57.3934 32.9739 57.4754 32.9049C57.5585 32.8349 57.6274 32.801 57.6831 32.8021L57.3584 32.4071C57.2534 32.4881 57.177 32.6051 57.131 32.7572C57.1059 32.8393 57.0873 32.9082 57.0742 32.9629C57.0611 33.0187 57.0512 33.069 57.0468 33.1161L57.0413 33.3294L55.666 33.2944C55.5238 33.2911 55.3861 33.3218 55.2538 33.3896C55.1215 33.4563 55.0133 33.5625 54.9269 33.7091Z" fill="white"/>
</svg>
